<svg width="121" height="120" viewBox="0 0 121 120" fill="none" xmlns="http://www.w3.org/2000/svg">
<path d="M60.6142 76.2882C66.6649 76.2881 72.3939 75.4264 77.2966 74.3006C79.7277 73.7424 81.9557 73.1193 83.9189 72.5041C89.4126 70.7826 91.3053 69.6353 91.3053 69.6353L91.575 68.8676C91.575 68.8676 78.1977 75.5206 60.7409 75.5206C43.2842 75.5206 29.6534 68.8676 29.6534 68.8676L29.9231 69.6353C29.9231 69.6353 31.8158 70.7826 37.3095 72.5041C39.2728 73.1193 41.5007 73.7424 43.9318 74.3006C48.8345 75.4264 54.5635 76.2881 60.6142 76.2882Z" fill="#070707"/>
<path d="M37.3095 72.5041C31.8158 70.7826 29.9231 69.6353 29.9231 69.6353L29.6534 68.8676L28.3949 65.2853L35.9696 55.5617C34.5055 55.8756 32.3483 44.0356 31.1966 42C30.8645 41.4129 29.5914 41.0634 27.9323 40.9415C23.8389 40.6409 17.3953 41.726 16.9333 44.047C16.1692 47.8853 19.2256 67.5882 22.0273 70.9147C23.3301 72.4615 25.7343 73.0124 28.3949 73.1131C29.31 73.1477 30.2553 73.1291 31.1966 73.0795C33.4044 72.963 35.5899 72.6758 37.3095 72.5041Z" fill="#F0E68C"/>
<path d="M31.1966 42C32.3483 44.0356 34.5055 55.8756 35.9696 55.5617L44.007 45.2442C42.9873 41.8942 41.9453 37.0719 41.2722 35.8736C40.8926 35.1978 39.1925 34.8578 37.128 34.8363C33.3632 34.7973 28.3867 35.8178 27.9963 37.7928C27.8702 38.4309 27.8559 39.5367 27.9323 40.9415C29.5914 41.0634 30.8645 41.4129 31.1966 42Z" fill="#F0E68C"/>
<path d="M48.5292 30.0743C47.6104 28.4782 37.6679 29.1218 37.1498 31.6795C37.0261 32.2901 37.0279 33.4128 37.128 34.8363C39.1925 34.8578 40.8926 35.1978 41.2722 35.8736C41.9453 37.0719 42.9873 41.8942 44.007 45.2442L50.5535 36.8404C49.7863 34.172 49.0358 30.9544 48.5292 30.0743Z" fill="#F0E68C"/>
<path d="M68.0595 34.0676C68.5117 27.3844 67.3374 24.9059 60.6142 24.6C53.891 24.9059 52.7167 27.3844 53.1689 34.0676C53.1689 34.0676 55.5129 31.8 60.6136 31.8C65.7142 31.8 68.0595 34.0676 68.0595 34.0676Z" fill="#F0E68C"/>
<path d="M84.0786 31.6795C83.5605 29.1218 73.6181 28.4782 72.6993 30.0743C72.1926 30.9544 71.4421 34.172 70.6749 36.8404L77.2215 45.2442C78.2411 41.8942 79.2831 37.0719 79.9562 35.8736C80.3358 35.1978 82.0359 34.8578 84.1004 34.8363C84.2005 33.4128 84.2023 32.2901 84.0786 31.6795Z" fill="#F0E68C"/>
<path d="M85.2589 55.5617C86.7229 55.8756 88.8801 44.0356 90.0318 42C90.3639 41.4129 91.637 41.0634 93.2962 40.9415C93.3725 39.5367 93.3582 38.4309 93.2321 37.7928C92.8417 35.8178 87.8652 34.7973 84.1004 34.8363C82.0359 34.8578 80.3358 35.1978 79.9562 35.8736C79.2831 37.0719 78.2411 41.8942 77.2215 45.2442L85.2589 55.5617Z" fill="#F0E68C"/>
<path d="M91.3053 69.6353C91.3053 69.6353 89.4126 70.7826 83.9189 72.5041C85.6385 72.6758 87.824 72.963 90.0318 73.0795C90.9731 73.1291 91.9185 73.1477 92.8335 73.1131C95.4941 73.0124 97.8983 72.4615 99.2011 70.9147C102.003 67.5882 105.059 47.8853 104.295 44.047C103.833 41.726 97.3896 40.6409 93.2962 40.9415C91.637 41.0634 90.3639 41.4129 90.0318 42C88.8801 44.0356 86.7229 55.8756 85.2589 55.5617L92.8335 65.2853L91.575 68.8676L91.3053 69.6353Z" fill="#F0E68C"/>
<path d="M92.8335 73.1131C91.9185 73.1477 90.9731 73.1291 90.0318 73.0795V79.8706L83.9189 77.5676V80.6382H85.4921V79.8706L89.013 81.15L83.6642 83.4529V86.2676H85.4921V84.4764L90.7959 82.4294H92.3241L97.4182 84.9882V86.2676H99.4558V83.7088L93.8523 81.15L97.9276 79.8706V80.6382H99.4558V77.5676L92.8335 79.8706V73.1131Z" fill="#1770C2"/>
<path d="M92.8335 65.2853L85.2589 55.5617L77.2215 45.2442L70.6749 36.8404L69.9102 35.8588C69.9102 35.8588 69.3219 34.9991 68.0595 34.0676C68.0595 34.0676 65.7142 31.8 60.6136 31.8C55.5129 31.8 53.1689 34.0676 53.1689 34.0676C51.9065 34.9991 51.3182 35.8588 51.3182 35.8588L50.5535 36.8404L44.007 45.2442L35.9696 55.5617L28.3949 65.2853L29.6534 68.8676C29.6534 68.8676 43.2842 75.5206 60.7409 75.5206C78.1977 75.5206 91.575 68.8676 91.575 68.8676L92.8335 65.2853Z" fill="#1770C2"/>
<path d="M31.1966 73.0795C30.2553 73.1291 29.31 73.1477 28.3949 73.1131V79.8706L21.7726 77.5676V80.6382H23.3008V79.8706L27.3761 81.15L21.7726 83.7088V86.2676H23.8103V84.9882L28.9043 82.4294H30.4325L35.7364 84.4764V86.2676H37.5642V83.4529L32.2155 81.15L35.7364 79.8706V80.6382H37.3095V77.5676L31.1966 79.8706V73.0795Z" fill="#1770C2"/>
<path d="M77.2966 91.1294V74.3006C72.3939 75.4264 66.6649 76.2881 60.6142 76.2882C54.5635 76.2881 48.8345 75.4264 43.9318 74.3006V91.1294C43.9318 91.1294 46.2142 95.1 60.6142 95.1C75.0142 95.1 77.2966 91.1294 77.2966 91.1294Z" fill="#F0E68C"/>
<path d="M92.8335 65.2853C92.8335 65.2853 84.1736 72.9617 60.6136 72.9617M92.8335 65.2853L85.2589 55.5617M92.8335 65.2853L91.575 68.8676M60.6136 76.2882H60.6142M77.2966 74.3006V91.1294C77.2966 91.1294 75.0142 95.1 60.6142 95.1C46.2142 95.1 43.9318 91.1294 43.9318 91.1294V74.3006M77.2966 74.3006C79.7277 73.7424 81.9557 73.1193 83.9189 72.5041M77.2966 74.3006C72.3939 75.4264 66.6649 76.2881 60.6142 76.2882M83.9189 72.5041C89.4126 70.7826 91.3053 69.6353 91.3053 69.6353L91.575 68.8676M83.9189 72.5041C85.6385 72.6757 87.824 72.963 90.0318 73.0795M85.2589 55.5617C86.7229 55.8756 88.8801 44.0356 90.0318 42C90.3639 41.4129 91.637 41.0634 93.2962 40.9415M85.2589 55.5617L77.2215 45.2442M90.0318 73.0795C90.9731 73.1291 91.9185 73.1477 92.8335 73.1131M90.0318 73.0795V79.8706M90.0318 80.8941V79.8706M92.8335 73.1131C95.4941 73.0124 97.8983 72.4615 99.2011 70.9147C102.003 67.5882 105.059 47.8853 104.295 44.047C103.833 41.726 97.3896 40.6409 93.2962 40.9415M92.8335 73.1131V79.8706M92.8335 80.8941V79.8706M90.0318 79.8706L83.9189 77.5676V80.6382H85.4921V79.8706L89.013 81.15L83.6642 83.4529V86.2676H85.4921V84.4764L90.7959 82.4294H92.3241L97.4182 84.9882V86.2676H99.4558V83.7088L93.8523 81.15L97.9276 79.8706V80.6382H99.4558V77.5676L92.8335 79.8706M70.6749 36.8404C71.4421 34.172 72.1926 30.9544 72.6993 30.0743C73.6181 28.4782 83.5605 29.1218 84.0786 31.6795C84.2023 32.2901 84.2005 33.4128 84.1004 34.8363M70.6749 36.8404L69.9102 35.8588C69.9102 35.8588 69.3219 34.9991 68.0595 34.0676M70.6749 36.8404L77.2215 45.2442M84.1004 34.8363C87.8652 34.7973 92.8417 35.8178 93.2321 37.7928C93.3582 38.4309 93.3725 39.5367 93.2962 40.9415M84.1004 34.8363C82.0359 34.8578 80.3358 35.1978 79.9562 35.8736C79.2831 37.0719 78.2411 41.8942 77.2215 45.2442M60.6136 24.6L60.6142 24.6M68.0595 34.0676C68.0595 34.0676 65.7142 31.8 60.6136 31.8C55.5129 31.8 53.1689 34.0676 53.1689 34.0676M68.0595 34.0676C68.5117 27.3844 67.3374 24.9059 60.6142 24.6M28.3949 65.2853C28.3949 65.2853 37.0548 72.9617 60.6149 72.9617M28.3949 65.2853L35.9696 55.5617M28.3949 65.2853L29.6534 68.8676M60.6149 76.2882H60.6142M43.9318 74.3006C41.5007 73.7424 39.2728 73.1193 37.3095 72.5041M43.9318 74.3006C48.8345 75.4264 54.5635 76.2881 60.6142 76.2882M37.3095 72.5041C31.8158 70.7826 29.9231 69.6353 29.9231 69.6353L29.6534 68.8676M37.3095 72.5041C35.5899 72.6757 33.4044 72.963 31.1966 73.0795M35.9696 55.5617C34.5055 55.8756 32.3483 44.0356 31.1966 42C30.8645 41.4129 29.5914 41.0634 27.9323 40.9415M35.9696 55.5617L44.007 45.2442M31.1966 73.0795C30.2553 73.1291 29.31 73.1477 28.3949 73.1131M31.1966 73.0795V79.8706M31.1966 80.8941V79.8706M28.3949 73.1131C25.7343 73.0124 23.3301 72.4615 22.0273 70.9147C19.2256 67.5882 16.1692 47.8853 16.9333 44.047C17.3953 41.726 23.8389 40.6409 27.9323 40.9415M28.3949 73.1131V79.8706M28.3949 80.8941V79.8706M31.1966 79.8706L37.3095 77.5676V80.6382H35.7364V79.8706L32.2155 81.15L37.5642 83.4529V86.2676H35.7364V84.4764L30.4325 82.4294H28.9043L23.8103 84.9882V86.2676H21.7726V83.7088L27.3761 81.15L23.3008 79.8706V80.6382H21.7726V77.5676L28.3949 79.8706M50.5535 36.8404C49.7863 34.172 49.0358 30.9544 48.5292 30.0743C47.6104 28.4782 37.6679 29.1218 37.1498 31.6795C37.0261 32.2901 37.0279 33.4128 37.128 34.8363M50.5535 36.8404L51.3182 35.8588C51.3182 35.8588 51.9065 34.9991 53.1689 34.0676M50.5535 36.8404L44.007 45.2442M37.128 34.8363C33.3632 34.7973 28.3867 35.8178 27.9963 37.7928C27.8702 38.4309 27.8559 39.5367 27.9323 40.9415M37.128 34.8363C39.1925 34.8578 40.8926 35.1978 41.2722 35.8736C41.9453 37.0719 42.9873 41.8942 44.007 45.2442M60.6149 24.6L60.6142 24.6M53.1689 34.0676C52.7167 27.3844 53.891 24.9059 60.6142 24.6M31.587 70.6588C24.2188 71.4227 22.6724 68.3559 21.1441 61.1912M89.6593 70.6588C97.0274 71.4227 98.5739 68.3559 100.102 61.1912M29.6534 68.8676C29.6534 68.8676 43.2842 75.5206 60.7409 75.5206C78.1976 75.5206 91.575 68.8676 91.575 68.8676" stroke="black" stroke-width="0.5" stroke-linecap="round" stroke-linejoin="round"/>
</svg>
