<svg width="121" height="120" viewBox="0 0 121 120" fill="none" xmlns="http://www.w3.org/2000/svg">
<path d="M50.5735 105.402H24.6614L26.4659 92.667H48.4081L50.5735 105.402Z" fill="#1770C2"/>
<path d="M71.0984 105.402H97.1472L95.3332 92.667H73.2752L71.0984 105.402Z" fill="#1770C2"/>
<path d="M58.4255 77.9972H30.547L22.568 85.957H31.7525C33.5652 82.7995 35.4202 82.2945 41.7407 82.3201C48.0613 82.3458 50.1721 82.5035 51.5452 85.957H58.4255V77.9972Z" fill="#F0E68C"/>
<path d="M52.878 90.8453H30.1371H22.568L13.1265 101.057H25.4739C27.0778 95.2117 29.6325 94.5354 37.1108 94.5354C44.5891 94.5354 48.4573 94.3241 49.7449 101.057H58.4255V90.8453H52.878Z" fill="#F0E68C"/>
<path d="M41.7407 82.3201C35.4202 82.2945 33.5652 82.7995 31.7525 85.957L31.454 86.86L30.9259 88.4583L30.6377 89.3302L30.1371 90.8453H52.878L52.4649 89.3302L52.2272 88.4583L51.7914 86.86L51.5452 85.957C50.1721 82.5035 48.0613 82.3458 41.7407 82.3201Z" fill="#1770C2"/>
<path d="M31.7525 85.957H22.568V86.86H23.6302H24.5231H31.454L31.7525 85.957Z" fill="#F0E68C"/>
<path d="M58.4255 85.957H51.5452L51.7914 86.86H56.6205H57.6046H58.4255V85.957Z" fill="#F0E68C"/>
<path d="M31.454 86.86H24.5231L24.8885 88.4583H30.9259L31.454 86.86Z" fill="black"/>
<path d="M51.7914 86.86L52.2272 88.4583H56.3469L56.6205 86.86H51.7914Z" fill="black"/>
<path d="M25.2393 102.034H16.5112L17.0571 104.075H24.7492L25.2393 102.034Z" fill="black"/>
<path d="M49.9168 102.034L50.276 104.075H55.3119L56.0771 102.034H49.9168Z" fill="black"/>
<path d="M25.4739 101.057H13.1265V102.034H15.3633H16.5112H25.2393L25.4739 101.057Z" fill="#F0E68C"/>
<path d="M58.4255 101.057H49.7449L49.9168 102.034H56.0771H57.1745H58.4255V101.057Z" fill="#F0E68C"/>
<path d="M23.6302 86.86L24.2216 89.3302H30.6377L30.9259 88.4583H24.8885L24.5231 86.86H23.6302Z" fill="#F0E68C"/>
<path d="M52.4649 89.3302H57.1745L57.6046 86.86H56.6205L56.3469 88.4583H52.2272L52.4649 89.3302Z" fill="#F0E68C"/>
<path d="M15.3633 102.034L16.2218 105.017H24.5231L24.7492 104.075H17.0571L16.5112 102.034H15.3633Z" fill="#F0E68C"/>
<path d="M50.4417 105.017H56.0771L57.1745 102.034H56.0771L55.3119 104.075H50.276L50.4417 105.017Z" fill="#F0E68C"/>
<path d="M62.9646 77.9972H90.843L98.822 85.957H89.6376C87.8249 82.7994 85.9699 82.2945 79.6493 82.3201C73.3287 82.3458 71.2179 82.5035 69.8449 85.957H62.9646V77.9972Z" fill="#F0E68C"/>
<path d="M68.5121 90.8453H91.253H98.822L108.264 101.057H95.9162C94.3123 95.2117 91.7576 94.5354 84.2793 94.5354C76.801 94.5354 72.9328 94.3241 71.6452 101.057H62.9646V90.8453H68.5121Z" fill="#F0E68C"/>
<path d="M79.6493 82.3201C85.9699 82.2945 87.8249 82.7994 89.6376 85.957L89.936 86.86L90.4642 88.4583L90.7523 89.3302L91.253 90.8453H68.5121L68.9252 89.3302L69.1629 88.4583L69.5987 86.86L69.8449 85.957C71.2179 82.5035 73.3287 82.3458 79.6493 82.3201Z" fill="#1770C2"/>
<path d="M89.6376 85.957H98.822V86.86H97.7598H96.867H89.936L89.6376 85.957Z" fill="#F0E68C"/>
<path d="M62.9646 85.957H69.8449L69.5987 86.86H64.7696H63.7855H62.9646V85.957Z" fill="#F0E68C"/>
<path d="M89.936 86.86H96.867L96.5015 88.4583H90.4642L89.936 86.86Z" fill="black"/>
<path d="M69.5987 86.86L69.1629 88.4583H65.0432L64.7696 86.86H69.5987Z" fill="black"/>
<path d="M96.1508 102.034H104.879L104.333 104.075H96.6409L96.1508 102.034Z" fill="black"/>
<path d="M71.4733 102.034L71.1141 104.075H66.0782L65.313 102.034H71.4733Z" fill="black"/>
<path d="M95.9162 101.057H108.264V102.034H106.027H104.879H96.1508L95.9162 101.057Z" fill="#F0E68C"/>
<path d="M62.9646 101.057H71.6452L71.4733 102.034H65.313H64.2155H62.9646V101.057Z" fill="#F0E68C"/>
<path d="M97.7598 86.86L97.1685 89.3302H90.7523L90.4642 88.4583H96.5015L96.867 86.86H97.7598Z" fill="#F0E68C"/>
<path d="M68.9252 89.3302H64.2155L63.7855 86.86H64.7696L65.0432 88.4583H69.1629L68.9252 89.3302Z" fill="#F0E68C"/>
<path d="M106.027 102.034L105.168 105.017H96.867L96.6409 104.075H104.333L104.879 102.034H106.027Z" fill="#F0E68C"/>
<path d="M70.9484 105.017H65.313L64.2155 102.034H65.313L66.0782 104.075H71.1141L70.9484 105.017Z" fill="#F0E68C"/>
<path d="M58.4255 85.957V77.9972H30.547L22.568 85.957M58.4255 85.957H51.5452M58.4255 85.957V86.86H57.6046M22.568 85.957H31.7525M22.568 85.957V86.86H23.6302M31.7525 85.957C33.5652 82.7995 35.4202 82.2945 41.7407 82.3201C48.0613 82.3458 50.1721 82.5035 51.5452 85.957M31.7525 85.957L31.454 86.86M51.5452 85.957L51.7914 86.86M30.1371 90.8453H52.878M30.1371 90.8453H22.568L13.1265 101.057M30.1371 90.8453L30.6377 89.3302M52.878 90.8453H58.4255V101.057M52.878 90.8453L52.4649 89.3302M13.1265 101.057H25.4739M13.1265 101.057V102.034H15.3633M25.4739 101.057C27.0778 95.2117 29.6325 94.5354 37.1108 94.5354C44.5891 94.5354 48.4573 94.3241 49.7449 101.057M25.4739 101.057L25.2393 102.034M58.4255 101.057H49.7449M58.4255 101.057V102.034H57.1745M49.7449 101.057L49.9168 102.034M31.454 86.86H24.5231M31.454 86.86L30.9259 88.4583M51.7914 86.86L52.2272 88.4583M51.7914 86.86H56.6205M23.6302 86.86L24.2216 89.3302H30.6377M23.6302 86.86H24.5231M30.6377 89.3302L30.9259 88.4583M52.4649 89.3302H57.1745L57.6046 86.86M52.4649 89.3302L52.2272 88.4583M57.6046 86.86H56.6205M24.5231 86.86L24.8885 88.4583H30.9259M52.2272 88.4583H56.3469L56.6205 86.86M25.2393 102.034H16.5112M25.2393 102.034L24.7492 104.075M49.9168 102.034L50.276 104.075M49.9168 102.034H56.0771M15.3633 102.034L16.2218 105.017H24.5231L24.7492 104.075M15.3633 102.034H16.5112M57.1745 102.034L56.0771 105.017H50.4417L50.276 104.075M57.1745 102.034H56.0771M16.5112 102.034L17.0571 104.075H24.7492M50.276 104.075H55.3119L56.0771 102.034M62.9646 85.957V77.9972H90.843L98.822 85.957M62.9646 85.957H69.8449M62.9646 85.957V86.86H63.7855M98.822 85.957H89.6376M98.822 85.957V86.86H97.7598M89.6376 85.957C87.8249 82.7995 85.9699 82.2945 79.6493 82.3201C73.3287 82.3458 71.2179 82.5035 69.8449 85.957M89.6376 85.957L89.936 86.86M69.8449 85.957L69.5987 86.86M91.253 90.8453H68.5121M91.253 90.8453H98.822L108.264 101.057M91.253 90.8453L90.7523 89.3302M68.5121 90.8453H62.9646V101.057M68.5121 90.8453L68.9252 89.3302M108.264 101.057H95.9162M108.264 101.057V102.034H106.027M95.9162 101.057C94.3123 95.2117 91.7576 94.5354 84.2793 94.5354C76.801 94.5354 72.9328 94.3241 71.6452 101.057M95.9162 101.057L96.1508 102.034M62.9646 101.057H71.6452M62.9646 101.057V102.034H64.2155M71.6452 101.057L71.4733 102.034M89.936 86.86H96.867M89.936 86.86L90.4642 88.4583M69.5987 86.86L69.1629 88.4583M69.5987 86.86H64.7696M97.7598 86.86L97.1685 89.3302H90.7523M97.7598 86.86H96.867M90.7523 89.3302L90.4642 88.4583M68.9252 89.3302H64.2155L63.7855 86.86M68.9252 89.3302L69.1629 88.4583M63.7855 86.86H64.7696M96.867 86.86L96.5015 88.4583H90.4642M69.1629 88.4583H65.0432L64.7696 86.86M96.1508 102.034H104.879M96.1508 102.034L96.6409 104.075M71.4733 102.034L71.1141 104.075M71.4733 102.034H65.313M106.027 102.034L105.168 105.017H96.867L96.6409 104.075M106.027 102.034H104.879M64.2155 102.034L65.313 105.017H70.9484L71.1141 104.075M64.2155 102.034H65.313M104.879 102.034L104.333 104.075H96.6409M71.1141 104.075H66.0782L65.313 102.034" stroke="black" stroke-width="0.5" stroke-linecap="round" stroke-linejoin="round"/>
<path d="M23.902 23.3745V66.8834L34.8073 66.8781V64.2433C34.8073 62.5865 36.1504 61.2433 37.8073 61.2433H45.9934C47.6502 61.2433 48.9934 62.5865 48.9934 64.2433V66.8674L97.3108 66.8328V23.3239L23.902 23.3745Z" fill="#1770C2"/>
<path d="M20.7111 20.7623V66.8834H23.902V23.3745L97.3108 23.3239V66.8328L100.555 66.8834V20.7623H20.7111Z" fill="white"/>
<path d="M37.8073 61.2433C36.1504 61.2433 34.8073 62.5865 34.8073 64.2433V66.8781L48.9934 66.8674V64.2433C48.9934 62.5865 47.6502 61.2433 45.9934 61.2433H37.8073Z" fill="#F0E68C"/>
<path fill-rule="evenodd" clip-rule="evenodd" d="M13.9465 70.2383H107.444V66.8834H100.555L97.3108 66.8328L48.9934 66.8674L34.8073 66.8781L23.902 66.8834H20.7111H13.9465V70.2383Z" fill="white"/>
<path d="M15.9465 71.3523H105.444L107.444 70.2383H13.9465L15.9465 71.3523Z" fill="black"/>
<path d="M20.7111 66.8834H13.9465V70.2383M20.7111 66.8834V20.7623H100.555V66.8834M20.7111 66.8834H23.902M100.555 66.8834H107.444V70.2383M100.555 66.8834L97.3108 66.8328M23.902 66.8834V23.3745L97.3108 23.3239V66.8328M23.902 66.8834L34.8073 66.8781M97.3108 66.8328L48.9934 66.8674M34.8073 66.8781V64.2433C34.8073 62.5865 36.1504 61.2433 37.8073 61.2433H45.9934C47.6502 61.2433 48.9934 62.5865 48.9934 64.2433V66.8674M34.8073 66.8781L48.9934 66.8674M13.9465 70.2383L15.9465 71.3523H105.444L107.444 70.2383M13.9465 70.2383H107.444" stroke="black" stroke-width="0.5" stroke-linecap="round" stroke-linejoin="round"/>
<path d="M58.168 36.0298V58.8101M58.168 58.8101H86.9143M58.168 58.8101C61.5132 50.4688 62.7233 44.7744 72.9972 50.127C83.2711 55.4797 86.9143 41.9547 86.9143 41.9547M34.9119 35.1718H50.0718M34.9119 42.6494H49.0979M34.9119 50.127H43.8375" stroke="white" stroke-width="2" stroke-linecap="round" stroke-linejoin="round"/>
</svg>
