<svg width="121" height="121" viewBox="0 0 121 121" fill="none" xmlns="http://www.w3.org/2000/svg">
<path fill-rule="evenodd" clip-rule="evenodd" d="M13.9614 71.5697H12.1037V77.6196H35.5332V71.5291H33.6476V69.7487H13.9614V71.5697ZM18.7066 76.1669C19.8959 76.1669 20.8601 75.2027 20.8601 74.0134C20.8601 73.3675 20.5758 72.7881 20.1255 72.3933C19.7466 72.0612 19.2501 71.8598 18.7066 71.8598C17.5172 71.8598 16.553 72.824 16.553 74.0134C16.553 75.2027 17.5172 76.1669 18.7066 76.1669Z" fill="#F0E68C"/>
<path d="M20.8601 74.0134C20.8601 75.2027 19.8959 76.1669 18.7066 76.1669C17.5172 76.1669 16.553 75.2027 16.553 74.0134C16.553 72.824 17.5172 71.8598 18.7066 71.8598C19.2501 71.8598 19.7466 72.0612 20.1255 72.3933C20.5758 72.7881 20.8601 73.3675 20.8601 74.0134Z" fill="#1770C2"/>
<path d="M10.2286 71.5697H10.684H12.1037H13.9614V69.7487V68.2414V67.8094H12.0286C11.0345 67.8094 10.2286 68.6153 10.2286 69.6094V71.5697Z" fill="#1770C2"/>
<path d="M33.6476 68.2414H13.9614V69.7487H33.6476V68.2414Z" fill="#1770C2"/>
<path d="M10.684 71.5697V89.4072H12.1037V78.6112H35.5332V89.3895H36.9566V71.5291H35.5332V77.6196H12.1037V71.5697H10.684Z" fill="#1770C2"/>
<path d="M10.684 89.4072H10.1716V91.318C10.1716 92.3121 10.9775 93.118 11.9716 93.118H13.9313V92.681V91.2504V89.4072H12.1037H10.684Z" fill="#1770C2"/>
<path fill-rule="evenodd" clip-rule="evenodd" d="M33.6648 93.1508V92.681V91.2504V89.3895H35.5332H36.9566H37.4164V91.3508C37.4164 92.3449 36.6105 93.1508 35.6164 93.1508H33.6648ZM36.9566 71.5291H37.4371V69.5915C37.4371 68.5974 36.6312 67.7915 35.6371 67.7915H33.6476V68.2414V69.7487V71.5291H35.5332H36.9566Z" fill="#F0E68C"/>
<path d="M13.9313 92.681H33.6648V91.2504H13.9313V92.681Z" fill="#1770C2"/>
<path d="M12.1037 89.4072H13.9313V91.2504H33.6648V89.3895H35.5332V78.6112H12.1037V89.4072Z" fill="#F0E68C"/>
<path d="M10.684 71.5697V89.4072M10.684 71.5697H10.2286V69.6094M10.684 71.5697H12.1037M10.684 89.4072H10.1716V91.318M10.684 89.4072H12.1037M13.9614 68.2414V67.8094H12.0286M13.9614 68.2414H33.6476M13.9614 68.2414V69.7487M33.6476 68.2414V67.7915H35.6371M33.6476 68.2414V69.7487M13.9313 92.681V93.118H11.9716M13.9313 92.681H33.6648M13.9313 92.681V91.2504M33.6648 92.681V93.1508H35.6164M33.6648 92.681V91.2504M36.9566 71.5291H37.4371V69.5915M36.9566 71.5291V89.3895M36.9566 71.5291H35.5332M36.9566 89.3895H37.4164V91.3508M36.9566 89.3895H35.5332M12.1037 71.5697H13.9614V69.7487M12.1037 71.5697V77.6196H35.5332V71.5291M35.5332 71.5291H33.6476V69.7487M13.9614 69.7487H33.6476M12.1037 89.4072H13.9313V91.2504M12.1037 89.4072V78.6112H35.5332V89.3895M35.5332 89.3895H33.6648V91.2504M13.9313 91.2504H33.6648M20.1255 72.3933C19.7466 72.0612 19.2501 71.8598 18.7066 71.8598C17.5172 71.8598 16.553 72.824 16.553 74.0134C16.553 75.2027 17.5172 76.1669 18.7066 76.1669C19.8959 76.1669 20.8601 75.2027 20.8601 74.0134C20.8601 73.3675 20.5758 72.7881 20.1255 72.3933ZM20.1255 72.3933L18.6389 73.9188M10.2286 69.6094C10.2286 68.6153 11.0345 67.8094 12.0286 67.8094M10.2286 69.6094V69.6094C10.2286 68.6153 11.0345 67.8094 12.0286 67.8094V67.8094M35.6371 67.7915C36.6312 67.7915 37.4371 68.5974 37.4371 69.5915M35.6371 67.7915V67.7915C36.6312 67.7915 37.4371 68.5974 37.4371 69.5915V69.5915M37.4164 91.3508C37.4164 92.3449 36.6105 93.1508 35.6164 93.1508M37.4164 91.3508V91.3508C37.4164 92.3449 36.6105 93.1508 35.6164 93.1508V93.1508M11.9716 93.118C10.9775 93.118 10.1716 92.3121 10.1716 91.318M11.9716 93.118V93.118C10.9775 93.118 10.1716 92.3121 10.1716 91.318V91.318" stroke="black" stroke-width="0.5" stroke-linecap="round" stroke-linejoin="round"/>
<path d="M24.6954 71.241C24.4634 71.241 24.2754 71.429 24.2754 71.661V73.182C24.2754 73.414 24.4635 73.602 24.6955 73.602C25.2455 73.602 25.6701 73.602 26.2202 73.602C26.4521 73.602 26.6403 73.414 26.6403 73.182V71.661C26.6403 71.429 26.4522 71.241 26.2203 71.241H24.6954Z" fill="black"/>
<path d="M24.6954 74.0392C24.4634 74.0392 24.2754 74.2272 24.2754 74.4592V75.9802C24.2754 76.2122 24.4635 76.4002 24.6955 76.4002C25.2455 76.4002 25.6701 76.4002 26.2202 76.4002C26.4521 76.4002 26.6403 76.2122 26.6403 75.9802V74.4592C26.6403 74.2272 26.4522 74.0392 26.2203 74.0392H24.6954Z" fill="black"/>
<path d="M27.5272 71.241C27.2952 71.241 27.1072 71.429 27.1072 71.661V73.182C27.1072 73.414 27.2953 73.602 27.5273 73.602C28.0773 73.602 28.5019 73.602 29.0519 73.602C29.2839 73.602 29.4721 73.414 29.4721 73.182V71.661C29.4721 71.429 29.284 71.241 29.0521 71.241H27.5272Z" fill="black"/>
<path d="M27.5272 74.0392C27.2952 74.0392 27.1072 74.2272 27.1072 74.4592V75.9802C27.1072 76.2122 27.2953 76.4002 27.5273 76.4002C28.0773 76.4002 28.5019 76.4002 29.0519 76.4002C29.2839 76.4002 29.4721 76.2122 29.4721 75.9802V74.4592C29.4721 74.2272 29.284 74.0392 29.0521 74.0392H27.5272Z" fill="black"/>
<path d="M30.3595 71.241C30.1275 71.241 29.9395 71.429 29.9395 71.661V73.182C29.9395 73.414 30.1276 73.602 30.3596 73.602C30.9096 73.602 31.3342 73.602 31.8842 73.602C32.1162 73.602 32.3043 73.414 32.3043 73.182V71.661C32.3043 71.429 32.1163 71.241 31.8843 71.241H30.3595Z" fill="black"/>
<path d="M30.3595 74.0392C30.1275 74.0392 29.9395 74.2272 29.9395 74.4592V75.9802C29.9395 76.2122 30.1276 76.4002 30.3596 76.4002C30.9096 76.4002 31.3342 76.4002 31.8842 76.4002C32.1162 76.4002 32.3043 76.2122 32.3043 75.9802V74.4592C32.3043 74.2272 32.1163 74.0392 31.8843 74.0392H30.3595Z" fill="black"/>
<path d="M35.5759 42.1465H37.9759H38.5759L40.0759 40.6465C39.8555 39.5428 39.6449 38.6508 39.1759 36.7465C39.4519 35.8584 39.7353 35.4842 40.3759 34.9465C40.3514 33.6529 39.6561 33.1465 38.5759 33.1465C37.9256 33.1465 37.3657 33.5623 36.8134 34.5111C36.6197 34.844 36.4269 35.2424 36.2314 35.7115C36.213 35.7559 36.1945 35.8009 36.1759 35.8465L35.8635 36.8878L35.497 38.1097L35.1307 39.3306L34.7738 40.5202L34.3759 41.8465L35.5689 42.4465L35.5759 42.1465Z" fill="#1770C2"/>
<path fill-rule="evenodd" clip-rule="evenodd" d="M30.1764 63.1465C26.738 63.1465 28.676 70.9465 29.5761 73.0465C30.5545 75.3291 29.4655 77.8407 28.3494 80.4149C27.7708 81.7496 27.1848 83.1012 26.8758 84.4465C26.0089 88.2216 27.4758 91.0465 32.2759 92.5465C33.9882 93.0815 35.8687 93.2635 37.6759 93.0836C40.9351 92.7592 43.9557 91.2579 45.3204 88.5287C46.5233 86.1228 45.4634 84.1808 44.2967 82.043C43.1357 79.9156 41.8687 77.5942 42.6204 74.4287C42.8008 73.6689 43.0916 72.8681 43.3759 72.0852C43.4786 71.8024 43.5804 71.5219 43.6759 71.2465C44.4232 69.0915 44.5759 67.2265 43.6759 67.0465C43.288 66.9689 43.1789 67.4625 43.0333 68.1208C42.7237 69.5211 42.2493 71.6668 38.5762 70.6465H34.9762L34.9759 69.4465L34.9762 67.6465C31.7532 68.4049 31.4059 66.4073 31.1323 64.8344C30.9731 63.9185 30.8388 63.1465 30.1764 63.1465ZM39.4759 72.7465H33.7759V75.7465H39.4759V72.7465ZM33.7759 81.7465V78.7465H39.4759V81.7465H33.7759ZM33.7759 85.3465V82.6465H39.4759V85.3465H33.7759Z" fill="#1770C2"/>
<path d="M43.6759 67.0465C44.5759 67.2265 44.4232 69.0915 43.6759 71.2465C43.5804 71.5219 43.4786 71.8024 43.3759 72.0852C43.0916 72.8681 42.8008 73.6689 42.6204 74.4287C41.8687 77.5942 43.1357 79.9156 44.2967 82.043C45.4634 84.1808 46.5233 86.1228 45.3204 88.5287C43.9557 91.2579 40.9351 92.7592 37.6759 93.0836C37.6759 93.0836 40.7088 92.906 42.4759 92.2465C44.3643 91.5417 45.4085 90.6395 46.3759 88.9465C47.5759 86.8465 46.7288 84.4903 45.7759 82.3465C45.4834 81.6882 45.2066 81.1285 44.9559 80.6214C44.1782 79.0485 43.6505 77.9812 43.6759 76.0465C43.6903 74.951 44.0745 73.8838 44.4578 72.8193C44.9303 71.5069 45.4013 70.1986 45.1759 68.8465C44.8759 67.0465 43.6759 67.0465 43.6759 67.0465Z" fill="black"/>
<path fill-rule="evenodd" clip-rule="evenodd" d="M38.1212 49.0465L38.0348 44.9404H35.5102L35.4136 49.0465L35.3266 52.748L35.2533 55.8619L35.1842 58.8026L35.1243 61.3465L35.0679 63.7465L35.02 65.7819L34.9762 67.6465L34.9759 69.4465H38.5509L38.513 67.6465L38.4737 65.7819L38.4308 63.7465L38.3803 61.3465L38.3267 58.8026L38.2648 55.8619L38.1992 52.748L38.1212 49.0465ZM39.4759 72.7465H33.7759V75.7465H39.4759V72.7465ZM33.7759 81.7465V78.7465H39.4759V81.7465H33.7759ZM33.7759 85.3465V82.6465H39.4759V85.3465H33.7759Z" fill="white"/>
<path d="M34.9762 70.6465H38.5762L38.5509 69.4465H34.9759L34.9762 70.6465Z" fill="white"/>
<path d="M34.9762 67.6465L35.02 65.7819M34.9762 67.6465H38.513M34.9762 67.6465L34.9759 69.4465M34.9762 67.6465C31.7532 68.4049 31.4059 66.4073 31.1323 64.8344C30.9731 63.9185 30.8388 63.1465 30.1764 63.1465C26.738 63.1465 28.676 70.9465 29.5761 73.0465C30.5545 75.3291 29.4655 77.8407 28.3494 80.4149C27.7708 81.7496 27.1848 83.1012 26.8758 84.4465C26.0089 88.2216 27.4758 91.0465 32.2759 92.5465C33.9882 93.0815 35.8687 93.2635 37.6759 93.0836M43.6759 67.0465C44.5759 67.2265 44.4232 69.0915 43.6759 71.2465C43.5804 71.5219 43.4786 71.8024 43.3759 72.0852C43.0916 72.8681 42.8008 73.6689 42.6204 74.4287C41.8687 77.5942 43.1357 79.9156 44.2967 82.043C45.4634 84.1808 46.5233 86.1228 45.3204 88.5287C43.9557 91.2579 40.9351 92.7592 37.6759 93.0836M43.6759 67.0465C43.6759 67.0465 44.8759 67.0465 45.1759 68.8465C45.4013 70.1986 44.9303 71.5069 44.4578 72.8193C44.0745 73.8838 43.6903 74.951 43.6759 76.0465C43.6505 77.9812 44.1782 79.0485 44.9559 80.6214C45.2066 81.1285 45.4834 81.6882 45.7759 82.3465C46.7288 84.4903 47.5759 86.8465 46.3759 88.9465C45.4085 90.6395 44.3643 91.5417 42.4759 92.2465C40.7088 92.906 37.6759 93.0836 37.6759 93.0836M43.6759 67.0465C43.288 66.9689 43.1789 67.4625 43.0333 68.1208C42.7237 69.5211 42.2493 71.6668 38.5762 70.6465M38.5762 70.6465H34.9762L34.9759 69.4465M38.5762 70.6465L38.5509 69.4465M37.9759 42.1465H35.5759L35.5689 42.4465M37.9759 42.1465C38.2159 42.1465 38.4759 42.1465 38.5759 42.1465M37.9759 42.1465L38.0348 44.9404M37.9759 42.1465H38.5759M38.5759 42.1465L40.0759 40.6465C39.8555 39.5428 39.6449 38.6508 39.1759 36.7465C39.4519 35.8584 39.7353 35.4842 40.3759 34.9465C40.3514 33.6529 39.6561 33.1465 38.5759 33.1465C37.9256 33.1465 37.3657 33.5623 36.8134 34.5111M35.5689 42.4465L34.3759 41.8465L34.7738 40.5202M35.5689 42.4465L35.5102 44.9404M35.5102 44.9404H38.0348M35.5102 44.9404L35.4136 49.0465M38.0348 44.9404L38.1212 49.0465M35.4136 49.0465H38.1212M35.4136 49.0465L35.3266 52.748M38.1212 49.0465L38.1992 52.748M35.3266 52.748H38.1992M35.3266 52.748L35.2533 55.8619M38.1992 52.748L38.2648 55.8619M35.2533 55.8619H38.2648M35.2533 55.8619L35.1842 58.8026M38.2648 55.8619L38.3267 58.8026M35.1842 58.8026H38.3267M35.1842 58.8026L35.1243 61.3465M38.3267 58.8026L38.3803 61.3465M35.1243 61.3465H38.3803M35.1243 61.3465L35.0679 63.7465M38.3803 61.3465L38.4308 63.7465M35.0679 63.7465H38.4308M35.0679 63.7465L35.02 65.7819M38.4308 63.7465L38.4737 65.7819M35.02 65.7819H38.4737M38.4737 65.7819L38.513 67.6465M38.513 67.6465L38.5509 69.4465M34.9759 69.4465H38.5509M34.9759 73.6465H38.2759M34.9759 74.8465H38.2759M34.3759 84.1465V84.7465M35.2759 84.1465V84.7465M36.1759 84.1465V84.7465M37.0759 84.1465V84.7465M37.9759 84.1465V84.7465M38.8759 84.1465V84.7465M34.6759 87.4465H38.5759M34.9759 79.6465H38.2759M34.9759 80.8465H38.2759M33.9282 40.2682L34.7738 40.5202M35.7819 40.8206L34.7738 40.5202M34.3222 39.0897L35.1307 39.3306M36.1759 39.6421L35.1307 39.3306M34.666 37.862L35.497 38.1097M36.5197 38.4145L35.497 38.1097M35.0956 36.659L35.8635 36.8878M36.9493 37.2114L35.8635 36.8878M35.4148 35.4682L36.2314 35.7115M37.2685 36.0206L36.2314 35.7115M35.7819 34.2037L36.8134 34.5111M37.6356 34.7562L36.8134 34.5111M34.7738 40.5202L35.1307 39.3306M35.1307 39.3306L35.497 38.1097M35.497 38.1097L35.8635 36.8878M35.8635 36.8878L36.1759 35.8465C36.1945 35.8009 36.213 35.7559 36.2314 35.7115M36.2314 35.7115C36.4269 35.2424 36.6197 34.844 36.8134 34.5111M33.7759 72.7465H39.4759V75.7465H33.7759V72.7465ZM33.7759 78.7465V81.7465H39.4759V78.7465H33.7759ZM33.7759 82.6465V85.3465H39.4759V82.6465H33.7759Z" stroke="black" stroke-width="0.5" stroke-linecap="round" stroke-linejoin="round"/>
<path d="M50.0799 65.8508V68.2509H50.9799V65.8508H50.0799Z" fill="black"/>
<path d="M53.3799 65.8508V68.2509H54.2799V65.8508H53.3799Z" fill="black"/>
<path d="M53.3799 58.0508H54.5798H56.0799L86.0799 28.3508H83.7488L53.3799 58.0508Z" fill="#F0E68C"/>
<path d="M48.5799 62.5508C45.5799 64.3508 44.2437 65.8788 44.3798 69.1508H46.7797C46.7665 68.8323 46.7672 68.5331 46.7821 68.2509C46.8329 67.2842 47.0495 66.5165 47.439 65.8508C48.1038 64.7146 49.2724 63.8754 50.9799 62.8508C53.9799 61.0508 54.5798 58.0508 54.5798 58.0508H53.3799H52.1798C52.1798 58.0508 51.5799 60.7509 48.5799 62.5508Z" fill="#F0E68C"/>
<path d="M44.3798 69.1508L47.9799 92.5508V69.1508H46.7797H44.3798Z" fill="#F0E68C"/>
<path d="M84.28 62.8508C81.28 64.6508 79.9438 65.8788 80.0799 69.1508H80.3799H102.28H106.18V58.0508H102.28H87.8799C87.8799 58.0508 87.28 61.0508 84.28 62.8508Z" fill="#F0E68C"/>
<path d="M80.0799 69.1508C79.9438 65.8788 81.28 64.6508 84.28 62.8508C87.28 61.0508 87.8799 58.0508 87.8799 58.0508H85.7799C85.7799 58.0508 85.4024 59.7498 83.7488 61.3508C83.3179 61.7681 82.8002 62.1787 82.18 62.5508C80.7037 63.4366 79.6303 64.2566 78.937 65.2509C78.8025 65.4437 78.6823 65.6431 78.5763 65.8508C78.2253 66.5385 78.0291 67.3173 77.9818 68.2509C77.9673 68.5358 77.9668 68.8352 77.9799 69.1508H80.0799Z" fill="#F0E68C"/>
<path d="M76.1799 69.1508L80.3799 93.1508V69.1508H80.0799H77.9799H76.1799Z" fill="#F0E68C"/>
<path d="M102.28 69.1508L106.18 92.2509V69.1508H102.28Z" fill="#F0E68C"/>
<path d="M56.0799 58.0508V61.3508H83.7488V58.0508H56.0799Z" fill="#F0E68C"/>
<path d="M82.18 62.5508C82.8002 62.1787 83.3179 61.7681 83.7488 61.3508H56.0799H53.9799V65.2509H78.937C79.6303 64.2566 80.7037 63.4366 82.18 62.5508Z" fill="#F0E68C"/>
<path fill-rule="evenodd" clip-rule="evenodd" d="M78.5763 65.8508C78.2253 66.5385 78.0291 67.3173 77.9818 68.2509H74.3799H73.7799H71.0799H70.4799H67.7799H67.1799H64.4799H63.8799H60.8799H60.2799H57.5799H56.9799H54.2799V65.8508H56.9799H57.5799H60.2799H60.8799H63.8799H64.4799H67.1799H67.7799H70.4799H71.0799H73.7799H74.3799H78.5763ZM53.3799 68.2509V65.8508H50.9799V68.2509H53.3799ZM50.0799 68.2509V65.8508H47.439C47.0495 66.5165 46.8329 67.2842 46.7821 68.2509H50.0799Z" fill="white"/>
<path d="M56.0799 58.0508H83.7488H85.7799H87.8799H102.28C106.011 55.5362 107.98 52.414 107.98 47.8508C107.98 45.6371 105.598 43.9906 102.926 42.144C101.253 40.9875 99.4662 39.7527 98.0799 38.2508C96.8799 36.7508 96.0778 33.9825 96.5799 32.4008C97.505 29.3903 97.4014 28.2922 95.0799 28.3508H86.0799L56.0799 58.0508Z" fill="#F0E68C"/>
<path d="M46.7821 68.2509C46.7672 68.5331 46.7665 68.8323 46.7797 69.1508H47.9799H76.1799H77.9799C77.9668 68.8352 77.9673 68.5358 77.9818 68.2509H74.3799H73.7799H71.0799H70.4799H67.7799H67.1799H64.4799H63.8799H60.8799H60.2799H57.5799H56.9799H54.2799H53.3799H50.9799H50.0799H46.7821Z" fill="white"/>
<path d="M83.7488 61.3508C85.4024 59.7498 85.7799 58.0508 85.7799 58.0508H83.7488V61.3508Z" fill="#F0E68C"/>
<path d="M54.5798 58.0508C54.5798 58.0508 53.9799 61.0508 50.9799 62.8508C49.2724 63.8754 48.1038 64.7146 47.439 65.8508H50.0799H50.9799H53.3799H54.2799H56.9799H57.5799H60.2799H60.8799H63.8799H64.4799H67.1799H67.7799H70.4799H71.0799H73.7799H74.3799H78.5763C78.6823 65.6431 78.8025 65.4437 78.937 65.2509H53.9799V61.3508H56.0799V58.0508H54.5798Z" fill="#F0E68C"/>
<path d="M102.28 69.1508L106.18 92.2509V69.1508M102.28 69.1508H80.3799M102.28 69.1508H106.18M44.3798 69.1508C44.2437 65.8788 45.5799 64.3508 48.5799 62.5508C51.5799 60.7508 52.1798 58.0508 52.1798 58.0508H53.3799M44.3798 69.1508L47.9799 92.5508V69.1508M44.3798 69.1508H47.9799M44.3798 69.1508H46.7797M46.7797 69.1508C46.7665 68.8323 46.7672 68.5331 46.7821 68.2509M46.7797 69.1508H47.9799M54.5798 58.0508C54.5798 58.0508 53.9799 61.0508 50.9799 62.8508C49.2724 63.8754 48.1038 64.7146 47.439 65.8508M54.5798 58.0508H56.0799M54.5798 58.0508H53.3799M77.9799 69.1508C77.9668 68.8352 77.9673 68.5358 77.9818 68.2509M77.9799 69.1508H80.0799M77.9799 69.1508H76.1799M85.7799 58.0508C85.7799 58.0508 85.4024 59.7498 83.7488 61.3508M85.7799 58.0508H83.7488M85.7799 58.0508H87.8799M80.0799 69.1508C79.9438 65.8788 81.28 64.6508 84.28 62.8508C87.28 61.0508 87.8799 58.0508 87.8799 58.0508M80.0799 69.1508H80.3799M87.8799 58.0508H102.28M56.0799 58.0508V61.3508M56.0799 58.0508H83.7488M56.0799 58.0508H53.3799M56.0799 58.0508L86.0799 28.3508M56.0799 61.3508H83.7488M56.0799 61.3508H53.9799V65.2509H78.937M83.7488 61.3508C83.3179 61.7681 82.8002 62.1787 82.18 62.5508C80.7037 63.4366 79.6303 64.2566 78.937 65.2509M83.7488 61.3508V58.0508M83.7488 58.0508H102.28M78.937 65.2509C78.8025 65.4437 78.6823 65.6431 78.5763 65.8508M47.439 65.8508C47.0495 66.5165 46.8329 67.2842 46.7821 68.2509M47.439 65.8508H50.0799M78.5763 65.8508C78.2253 66.5385 78.0291 67.3173 77.9818 68.2509M78.5763 65.8508H74.3799M46.7821 68.2509H50.0799M77.9818 68.2509H74.3799M50.0799 65.8508V68.2509M50.0799 65.8508H50.9799M50.0799 68.2509H50.9799M50.9799 68.2509V65.8508M50.9799 68.2509H53.3799M50.9799 65.8508H53.3799M53.3799 65.8508V68.2509M53.3799 65.8508H54.2799M53.3799 68.2509H54.2799M54.2799 68.2509V65.8508M54.2799 68.2509H56.9799M54.2799 65.8508H56.9799M56.9799 68.2509V65.8508M56.9799 68.2509H57.5799M56.9799 65.8508H57.5799M57.5799 65.8508V68.2509M57.5799 65.8508H60.2799M57.5799 68.2509H60.2799M60.2799 68.2509V65.8508M60.2799 68.2509H60.8799M60.2799 65.8508H60.8799M60.8799 65.8508V68.2509M60.8799 65.8508H63.8799M60.8799 68.2509H63.8799M63.8799 68.2509V65.8508M63.8799 68.2509H64.4799M63.8799 65.8508H64.4799M64.4799 65.8508V68.2509M64.4799 65.8508H67.1799M64.4799 68.2509H67.1799M67.1799 65.8508V68.2509M67.1799 65.8508H67.7799M67.1799 68.2509H67.7799M67.7799 68.2509V65.8508M67.7799 68.2509H70.4799M67.7799 65.8508H70.4799M70.4799 65.8508V68.2509M70.4799 65.8508H71.0799M70.4799 68.2509H71.0799M71.0799 68.2509V65.8508M71.0799 68.2509H73.7799M71.0799 65.8508H73.7799M73.7799 65.8508V68.2509M73.7799 65.8508H74.3799M73.7799 68.2509H74.3799M74.3799 68.2509V65.8508M47.9799 69.1508H76.1799M76.1799 69.1508L80.3799 93.1508V69.1508M76.1799 69.1508H80.3799M106.18 69.1508V58.0508H102.28M53.3799 58.0508L83.7488 28.3508H86.0799M102.28 58.0508C106.011 55.5362 107.98 52.414 107.98 47.8508C107.98 45.6371 105.598 43.9906 102.926 42.144C101.253 40.9875 99.4662 39.7527 98.0799 38.2508C96.8799 36.7508 96.0778 33.9825 96.5799 32.4008C97.505 29.3903 97.4014 28.2922 95.0799 28.3508H86.0799" stroke="black" stroke-width="0.5" stroke-linecap="round" stroke-linejoin="round"/>
</svg>
