<svg width="121" height="120" viewBox="0 0 121 120" fill="none" xmlns="http://www.w3.org/2000/svg">
<path d="M27.8074 19.2H93.4212V21.963H27.8074V19.2Z" fill="#1770C2"/>
<path d="M69.8127 53.7627C67.9647 55.2261 65.792 56.2273 63.4762 56.6826C61.1604 57.1379 58.769 57.0341 56.5017 56.3798C54.2344 55.7255 52.1573 54.5398 50.444 52.9217C48.7306 51.3037 47.4308 49.3004 46.6533 47.0793C45.8758 44.8581 45.6431 42.4838 45.9748 40.1547C46.3064 37.8257 47.1927 35.6096 48.5596 33.6917C49.9264 31.7739 51.7341 30.21 53.8315 29.1309C55.9289 28.0518 58.2551 27.4888 60.6155 27.489L60.6143 42.2252L69.8127 53.7627Z" fill="#1770C2"/>
<path d="M62.4626 24.2655C64.4043 24.2655 66.3271 24.6467 68.121 25.3872C69.915 26.1278 71.545 27.2132 72.918 28.5816C74.291 29.95 75.3802 31.5745 76.1233 33.3624C76.8663 35.1502 77.2488 37.0665 77.2488 39.0016L62.4626 39.0016V24.2655Z" fill="#1770C2"/>
<path d="M77.2488 41.3042C77.2488 43.5839 76.718 45.8326 75.6983 47.8734C74.6785 49.9141 73.1976 51.6912 71.3719 53.0649L62.4626 41.3042H77.2488Z" fill="#1770C2"/>
<path d="M33.8143 43.1462H43.5178V47.2907H33.8143V43.1462Z" fill="#1770C2"/>
<path d="M33.8143 48.6722H43.5178V52.8168H33.8143V48.6722Z" fill="#1770C2"/>
<path d="M33.8143 54.1983H43.5178V58.3428H33.8143V54.1983Z" fill="#1770C2"/>
<path d="M24.3419 75.842V77.4537H31.0419V75.842V74.921C31.0419 74.921 31.2729 70.5462 27.6919 70.5462C24.1109 70.5462 24.3419 74.921 24.3419 74.921V75.842Z" fill="#F0E68C"/>
<path d="M36.5867 75.842V77.4537H43.5178V75.842V74.921C43.5178 74.921 43.7488 70.5462 40.0522 70.5462C36.3557 70.5462 36.5867 74.921 36.5867 74.921V75.842Z" fill="#F0E68C"/>
<path d="M48.8315 75.842V77.4537H55.7626V75.842V74.921C55.7626 74.921 55.9936 70.5462 52.2971 70.5462C48.6005 70.5462 48.8315 74.921 48.8315 74.921V75.842Z" fill="#F0E68C"/>
<path d="M65.466 75.842V77.4537H72.166V75.842V74.921C72.166 74.921 72.3971 70.5462 68.816 70.5462C65.235 70.5462 65.466 74.921 65.466 74.921V75.842Z" fill="#F0E68C"/>
<path d="M77.7109 75.842V77.4537H84.6419V75.842V74.921C84.6419 74.921 84.8729 70.5462 81.1764 70.5462C77.4798 70.5462 77.7109 74.921 77.7109 74.921V75.842Z" fill="#F0E68C"/>
<path d="M89.9557 75.842V77.4537H96.8867V75.842V74.921C96.8867 74.921 97.1178 70.5462 93.4212 70.5462C89.7247 70.5462 89.9557 74.921 89.9557 74.921V75.842Z" fill="#F0E68C"/>
<path d="M24.3419 90.8083V92.4201V101.4H25.1794L26.0169 96.3344H27.6919H29.4247L30.2333 101.4H31.0419V92.4201V90.8083V89.8873C31.0419 89.8873 31.2729 85.5126 27.6919 85.5126C24.1109 85.5126 24.3419 89.8873 24.3419 89.8873V90.8083Z" fill="#F0E68C"/>
<path d="M36.5867 90.8083V92.4201V101.4H37.4531L38.3195 96.3344H40.0522H41.9005L42.6514 101.4H43.5178V92.4201V90.8083V89.8873C43.5178 89.8873 43.7488 85.5126 40.0522 85.5126C36.3557 85.5126 36.5867 89.8873 36.5867 89.8873V90.8083Z" fill="#F0E68C"/>
<path d="M48.8315 90.8083V92.4201V101.4H49.6979L50.5643 96.3344H52.2971H54.0298L54.8962 101.4H55.7626V92.4201V90.8083V89.8873C55.7626 89.8873 55.9936 85.5126 52.2971 85.5126C48.6005 85.5126 48.8315 89.8873 48.8315 89.8873V90.8083Z" fill="#F0E68C"/>
<path d="M65.466 90.8083V92.4201V101.4H66.3035L67.141 96.3344H68.816H70.5488L71.3574 101.4H72.166V92.4201V90.8083V89.8873C72.166 89.8873 72.3971 85.5126 68.816 85.5126C65.235 85.5126 65.466 89.8873 65.466 89.8873V90.8083Z" fill="#F0E68C"/>
<path d="M77.7109 90.8083V92.4201V101.4H78.5772L79.4436 96.3344H81.1764H83.0247L83.7755 101.4H84.6419V92.4201V90.8083V89.8873C84.6419 89.8873 84.8729 85.5126 81.1764 85.5126C77.4798 85.5126 77.7109 89.8873 77.7109 89.8873V90.8083Z" fill="#F0E68C"/>
<path d="M89.9557 90.8083V92.4201V101.4H90.8221L91.6884 96.3344H93.4212H95.154L96.0203 101.4H96.8867V92.4201V90.8083V89.8873C96.8867 89.8873 97.1178 85.5126 93.4212 85.5126C89.7247 85.5126 89.9557 89.8873 89.9557 89.8873V90.8083Z" fill="#F0E68C"/>
<path d="M20.4143 74.921V75.842H24.3419V74.921H20.4143Z" fill="#070707"/>
<path d="M31.0419 74.921V75.842H36.5867V74.921H31.0419Z" fill="#070707"/>
<path d="M43.5178 74.921V75.842H48.8315V74.921H43.5178Z" fill="#070707"/>
<path d="M59.6902 75.842V74.921H55.7626V75.842H59.6902Z" fill="#070707"/>
<path d="M59.6902 62.4873H20.4143V74.921H24.3419C24.3419 74.921 24.1109 70.5462 27.6919 70.5462C31.2729 70.5462 31.0419 74.921 31.0419 74.921H36.5867C36.5867 74.921 36.3557 70.5462 40.0522 70.5462C43.7488 70.5462 43.5178 74.921 43.5178 74.921H48.8315C48.8315 74.921 48.6005 70.5462 52.2971 70.5462C55.9936 70.5462 55.7626 74.921 55.7626 74.921H59.6902V62.4873Z" fill="#1770C2"/>
<path fill-rule="evenodd" clip-rule="evenodd" d="M29.8867 22.6537V60.8756H91.3419V22.6537H29.8867ZM63.4762 56.6826C65.792 56.2273 67.9647 55.2261 69.8127 53.7627L60.6143 42.2252L60.6155 27.489C58.2551 27.4888 55.9289 28.0518 53.8315 29.1309C51.7341 30.21 49.9264 31.7739 48.5596 33.6917C47.1927 35.6096 46.3064 37.8257 45.9748 40.1547C45.6431 42.4838 45.8758 44.8581 46.6533 47.0793C47.4308 49.3004 48.7306 51.3037 50.444 52.9217C52.1573 54.5398 54.2344 55.7255 56.5017 56.3798C58.769 57.0341 61.1604 57.1379 63.4762 56.6826ZM68.121 25.3872C66.3271 24.6467 64.4043 24.2655 62.4626 24.2655V39.0016L77.2488 39.0016C77.2488 37.0665 76.8663 35.1502 76.1233 33.3624C75.3802 31.5745 74.291 29.95 72.918 28.5816C71.545 27.2132 69.915 26.1278 68.121 25.3872ZM75.6983 47.8734C76.718 45.8326 77.2488 43.5839 77.2488 41.3042H62.4626L71.3719 53.0649C73.1976 51.6912 74.6785 49.9141 75.6983 47.8734ZM43.5178 43.1462H33.8143V47.2907H43.5178V43.1462ZM43.5178 48.6722H33.8143V52.8168H43.5178V48.6722ZM43.5178 54.1983H33.8143V58.3428H43.5178V54.1983Z" fill="#F0E68C"/>
<path d="M100.814 62.4873H61.5384V74.921H65.466C65.466 74.921 65.235 70.5462 68.816 70.5462C72.3971 70.5462 72.166 74.921 72.166 74.921H74.9384H77.7109C77.7109 74.921 77.4798 70.5462 81.1764 70.5462C84.8729 70.5462 84.6419 74.921 84.6419 74.921H89.9557C89.9557 74.921 89.7247 70.5462 93.4212 70.5462C97.1178 70.5462 96.8867 74.921 96.8867 74.921H100.814V62.4873Z" fill="#1770C2"/>
<path d="M65.466 77.4537H61.5384V89.8873H65.466C65.466 89.8873 65.235 85.5126 68.816 85.5126C72.3971 85.5126 72.166 89.8873 72.166 89.8873H77.7109C77.7109 89.8873 77.4798 85.5126 81.1764 85.5126C84.8729 85.5126 84.6419 89.8873 84.6419 89.8873H89.9557C89.9557 89.8873 89.7247 85.5126 93.4212 85.5126C97.1178 85.5126 96.8867 89.8873 96.8867 89.8873H100.814V77.4537H96.8867H89.9557H84.6419H77.7109H72.166H65.466Z" fill="#1770C2"/>
<path d="M20.4143 89.8873V90.8083H24.3419V89.8873H20.4143Z" fill="#070707"/>
<path d="M43.5178 89.8873V90.8083H46.1747H48.8315V89.8873H43.5178Z" fill="#070707"/>
<path d="M24.3419 77.4537H20.4143V89.8873H24.3419C24.3419 89.8873 24.1109 85.5126 27.6919 85.5126C31.2729 85.5126 31.0419 89.8873 31.0419 89.8873H36.5867C36.5867 89.8873 36.3557 85.5126 40.0522 85.5126C43.7488 85.5126 43.5178 89.8873 43.5178 89.8873H48.8315C48.8315 89.8873 48.6005 85.5126 52.2971 85.5126C55.9936 85.5126 55.7626 89.8873 55.7626 89.8873H59.6902V77.4537H55.7626H48.8315H43.5178H36.5867H31.0419H24.3419Z" fill="#1770C2"/>
<path d="M31.0419 89.8873V90.8083H36.5867V89.8873H31.0419Z" fill="#070707"/>
<path d="M59.6902 90.8083V89.8873H55.7626V90.8083H59.6902Z" fill="#070707"/>
<path d="M61.5384 89.8873V90.8083H65.466V89.8873H61.5384Z" fill="#070707"/>
<path d="M72.166 89.8873V90.8083H77.7109V89.8873H72.166Z" fill="#070707"/>
<path d="M84.6419 89.8873V90.8083H89.9557V89.8873H84.6419Z" fill="#070707"/>
<path d="M100.814 90.8083V89.8873H96.8867V90.8083H100.814Z" fill="#070707"/>
<path d="M72.166 74.921V75.842H77.7109V74.921H74.9384H72.166Z" fill="#070707"/>
<path d="M61.5384 74.921V75.842H65.466V74.921H61.5384Z" fill="#070707"/>
<path d="M84.6419 74.921V75.842H89.9557V74.921H84.6419Z" fill="#070707"/>
<path d="M100.814 75.842V74.921H96.8867V75.842H100.814Z" fill="#070707"/>
<path d="M93.4212 21.963H27.8074L29.1936 22.6537H29.8867H91.3419H92.035L93.4212 21.963Z" fill="#070707"/>
<path d="M93.4212 21.963V19.2H27.8074V21.963M93.4212 21.963H27.8074M93.4212 21.963L92.035 22.6537H91.3419M27.8074 21.963L29.1936 22.6537H29.8867M29.8867 22.6537V60.8756H91.3419V22.6537M29.8867 22.6537H91.3419M20.4143 74.921V75.842H24.3419M20.4143 74.921V62.4873H59.6902V74.921M20.4143 74.921H24.3419M59.6902 74.921V75.842H55.7626M59.6902 74.921H55.7626M24.3419 77.4537V75.842M24.3419 77.4537H31.0419M24.3419 77.4537H20.4143M31.0419 77.4537V75.842M31.0419 77.4537H36.5867M24.3419 74.921V75.842M24.3419 74.921C24.3419 74.921 24.1109 70.5462 27.6919 70.5462C31.2729 70.5462 31.0419 74.921 31.0419 74.921M31.0419 74.921V75.842M31.0419 74.921H36.5867M31.0419 75.842H36.5867M36.5867 77.4537V75.842M36.5867 77.4537H43.5178M43.5178 77.4537V75.842M43.5178 77.4537H48.8315M48.8315 77.4537V75.842M48.8315 77.4537H55.7626M55.7626 77.4537V75.842M55.7626 77.4537H59.6902M36.5867 74.921V75.842M36.5867 74.921C36.5867 74.921 36.3557 70.5462 40.0522 70.5462C43.7488 70.5462 43.5178 74.921 43.5178 74.921M43.5178 74.921V75.842M43.5178 74.921H48.8315M43.5178 75.842H48.8315M48.8315 74.921V75.842M48.8315 74.921C48.8315 74.921 48.6005 70.5462 52.2971 70.5462C55.9936 70.5462 55.7626 74.921 55.7626 74.921M55.7626 74.921V75.842M20.4143 77.4537H59.6902M20.4143 77.4537V89.8873M59.6902 77.4537V89.8873M20.4143 89.8873V90.8084H24.3419M20.4143 89.8873H24.3419M59.6902 89.8873V90.8084H55.7626M59.6902 89.8873H55.7626M24.3419 89.8873V90.8084M24.3419 89.8873C24.3419 89.8873 24.1109 85.5126 27.6919 85.5126C31.2729 85.5126 31.0419 89.8873 31.0419 89.8873M24.3419 90.8084V92.4201V101.4H25.1794L26.0169 96.3344H27.6919H29.4247L30.2333 101.4H31.0419V92.4201V90.8084M31.0419 89.8873V90.8084M31.0419 89.8873H36.5867M31.0419 90.8084H36.5867M36.5867 89.8873V90.8084M36.5867 89.8873C36.5867 89.8873 36.3557 85.5126 40.0522 85.5126C43.7488 85.5126 43.5178 89.8873 43.5178 89.8873M36.5867 90.8084V92.4201V101.4H37.4531L38.3195 96.3344H40.0522H41.9005L42.6514 101.4H43.5178V92.4201V90.8084M43.5178 89.8873V90.8084M43.5178 89.8873H48.8315M43.5178 90.8084H46.1747H48.8315M48.8315 89.8873V90.8084M48.8315 89.8873C48.8315 89.8873 48.6005 85.5126 52.2971 85.5126C55.9936 85.5126 55.7626 89.8873 55.7626 89.8873M48.8315 90.8084V92.4201V101.4H49.6979L50.5643 96.3344H52.2971H54.0298L54.8962 101.4H55.7626V92.4201V90.8084M55.7626 89.8873V90.8084M61.5384 74.921V75.842H65.466M61.5384 74.921V62.4873H100.814V74.921M61.5384 74.921H65.466M100.814 74.921V75.842H96.8867M100.814 74.921H96.8867M65.466 77.4537V75.842M65.466 77.4537H72.166M65.466 77.4537H61.5384M72.166 77.4537V75.842M72.166 77.4537H77.7109M65.466 74.921V75.842M65.466 74.921C65.466 74.921 65.235 70.5462 68.816 70.5462C72.3971 70.5462 72.166 74.921 72.166 74.921M72.166 74.921V75.842M72.166 74.921H74.9384H77.7109M72.166 75.842H77.7109M77.7109 77.4537V75.842M77.7109 77.4537H84.6419M84.6419 77.4537V75.842M84.6419 77.4537H89.9557M89.9557 77.4537V75.842M89.9557 77.4537H96.8867M96.8867 77.4537V75.842M96.8867 77.4537H100.814M77.7109 74.921V75.842M77.7109 74.921C77.7109 74.921 77.4798 70.5462 81.1764 70.5462C84.8729 70.5462 84.6419 74.921 84.6419 74.921M84.6419 74.921V75.842M84.6419 74.921H89.9557M84.6419 75.842H89.9557M89.9557 74.921V75.842M89.9557 74.921C89.9557 74.921 89.7247 70.5462 93.4212 70.5462C97.1178 70.5462 96.8867 74.921 96.8867 74.921M96.8867 74.921V75.842M61.5384 77.4537H100.814M61.5384 77.4537V89.8873M100.814 77.4537V89.8873M61.5384 89.8873V90.8084H65.466M61.5384 89.8873H65.466M100.814 89.8873V90.8084H96.8867M100.814 89.8873H96.8867M65.466 89.8873V90.8084M65.466 89.8873C65.466 89.8873 65.235 85.5126 68.816 85.5126C72.3971 85.5126 72.166 89.8873 72.166 89.8873M65.466 90.8084V92.4201V101.4H66.3035L67.141 96.3344H68.816H70.5488L71.3574 101.4H72.166V92.4201V90.8084M72.166 89.8873V90.8084M72.166 89.8873H77.7109M72.166 90.8084H77.7109M77.7109 89.8873V90.8084M77.7109 89.8873C77.7109 89.8873 77.4798 85.5126 81.1764 85.5126C84.8729 85.5126 84.6419 89.8873 84.6419 89.8873M77.7109 90.8084V92.4201V101.4H78.5772L79.4436 96.3344H81.1764H83.0247L83.7755 101.4H84.6419V92.4201V90.8084M84.6419 89.8873V90.8084M84.6419 89.8873H89.9557M84.6419 90.8084H89.9557M89.9557 89.8873V90.8084M89.9557 89.8873C89.9557 89.8873 89.7247 85.5126 93.4212 85.5126C97.1178 85.5126 96.8867 89.8873 96.8867 89.8873M89.9557 90.8084V92.4201V101.4H90.8221L91.6884 96.3344H93.4212H95.154L96.0203 101.4H96.8867V92.4201V90.8084M96.8867 89.8873V90.8084M69.8127 53.7627C67.9647 55.2261 65.792 56.2273 63.4762 56.6826C61.1604 57.1379 58.769 57.0341 56.5017 56.3798C54.2344 55.7255 52.1573 54.5398 50.444 52.9217C48.7306 51.3037 47.4308 49.3004 46.6533 47.0793C45.8758 44.8581 45.6431 42.4838 45.9748 40.1547C46.3064 37.8257 47.1927 35.6096 48.5596 33.6917C49.9264 31.7739 51.7341 30.21 53.8315 29.1309C55.9289 28.0518 58.2551 27.4888 60.6155 27.489L60.6143 42.2252L69.8127 53.7627ZM62.4626 24.2655C64.4043 24.2655 66.3271 24.6467 68.121 25.3872C69.915 26.1278 71.545 27.2132 72.918 28.5816C74.291 29.95 75.3802 31.5745 76.1233 33.3624C76.8663 35.1502 77.2488 37.0665 77.2488 39.0016L62.4626 39.0016V24.2655ZM77.2488 41.3042C77.2488 43.5839 76.718 45.8326 75.6983 47.8734C74.6785 49.9141 73.1976 51.6912 71.3719 53.0649L62.4626 41.3042H77.2488ZM33.8143 43.1462H43.5178V47.2907H33.8143V43.1462ZM33.8143 48.6722H43.5178V52.8168H33.8143V48.6722ZM33.8143 54.1983H43.5178V58.3428H33.8143V54.1983Z" stroke="black" stroke-width="0.5" stroke-linecap="round" stroke-linejoin="round"/>
</svg>
