<svg width="121" height="120" viewBox="0 0 121 120" fill="none" xmlns="http://www.w3.org/2000/svg">
<path d="M65.4761 22.1282C67.0256 23.6775 67.6416 25.2924 67.7205 26.8197C67.7312 27.0274 67.732 27.2338 67.7238 27.4379C67.5738 31.1881 64.4055 34.2601 64.4055 34.2601L60.8573 30.5257L56.3559 25.7881L53.3054 22.5774C53.3054 22.5774 59.8431 16.496 65.4761 22.1282Z" fill="#1770C2"/>
<path fill-rule="evenodd" clip-rule="evenodd" d="M72.7557 58.2515H21.3201V63.1203H99.9083V58.2515H95.6738H72.7557Z" fill="#F0E68C"/>
<path d="M22.5201 63.9045H23.2543H59.7218H91.2787H96.6375H98.7083L99.9083 63.1203H21.3201L22.5201 63.9045Z" fill="black"/>
<path d="M45.9184 69.5514V71.0415H37.1757V69.5514H38.2686V70.0497H41.5471H44.8256V69.5514H45.9184Z" fill="#1770C2"/>
<path d="M45.9184 81.8701V83.3603H37.1757V81.8701H38.2686V82.3684H41.5471H44.8256V81.8701H45.9184Z" fill="#1770C2"/>
<path d="M45.9184 94.2323V95.7224H37.1757V94.2323H38.2686V94.7306H41.5471H44.8256V94.2323H45.9184Z" fill="#1770C2"/>
<path fill-rule="evenodd" clip-rule="evenodd" d="M26.0736 77.7471V87.7374H57.3928V77.7471H26.0736ZM45.9184 83.3603V81.8701H44.8256V82.3684H41.5471H38.2686V81.8701H37.1757V83.3603H45.9184Z" fill="#F0E68C"/>
<path fill-rule="evenodd" clip-rule="evenodd" d="M26.0736 90.1092V100.099H57.3928V90.1092H26.0736ZM45.9184 95.7224V94.2323H44.8256V94.7306H41.5471H38.2686V94.2323H37.1757V95.7224H45.9184Z" fill="#F0E68C"/>
<path fill-rule="evenodd" clip-rule="evenodd" d="M26.0736 65.4284V75.4186H57.3928V65.4284H26.0736ZM45.9184 71.0415V69.5514H44.8256V70.0497H41.5471H38.2686V69.5514H37.1757V71.0415H45.9184Z" fill="#F0E68C"/>
<path d="M91.2787 63.9045V102.631H96.6375V63.9045H91.2787Z" fill="#F0E68C"/>
<path fill-rule="evenodd" clip-rule="evenodd" d="M23.2543 63.9045V102.631H59.7218V63.9045H23.2543ZM26.0736 75.4186V65.4284H57.3928V75.4186H26.0736ZM26.0736 87.7374V77.7471H57.3928V87.7374H26.0736ZM26.0736 100.099V90.1092H57.3928V100.099H26.0736Z" fill="#F0E68C"/>
<path d="M25.3981 58.2515H42.6386V52.0923H25.3981V58.2515Z" fill="#1770C2"/>
<path d="M27.7362 45.1918V51.3509H44.9767V45.1918H27.7362Z" fill="#1770C2"/>
<path d="M23.0599 38.2913V44.4505H40.3004V38.2913H23.0599Z" fill="#1770C2"/>
<path d="M47.0628 44.4505V38.2913H43.4099V44.4505H47.0628Z" fill="#1770C2"/>
<path fill-rule="evenodd" clip-rule="evenodd" d="M41.5164 38.2913H40.3004V44.4505H41.5164V38.2913ZM42.1765 44.4505H43.4099V38.2913H42.1765V44.4505Z" fill="#F0E68C"/>
<path d="M41.5164 38.2913V44.4505H42.1765V38.2913H41.5164Z" fill="#1770C2"/>
<path d="M51.7392 51.3509V45.1918H48.0863V51.3509H51.7392Z" fill="#1770C2"/>
<path fill-rule="evenodd" clip-rule="evenodd" d="M46.1928 45.1918H44.9767V51.3509H46.1928V45.1918ZM46.8529 51.3509H48.0863V45.1918H46.8529V51.3509Z" fill="#F0E68C"/>
<path d="M46.1928 45.1918V51.3509H46.8529V45.1918H46.1928Z" fill="#1770C2"/>
<path d="M43.8546 58.2515H44.5147V52.0923H43.8546V58.2515Z" fill="#1770C2"/>
<path d="M45.7481 58.2515H49.401V52.0923H45.7481V58.2515Z" fill="#1770C2"/>
<path d="M54.4797 28.836C54.4797 30.7206 56.0074 32.2483 57.892 32.2483C59.1618 32.2483 60.2697 31.5547 60.8573 30.5257L56.3559 25.7881C55.2429 26.3501 54.4797 27.5039 54.4797 28.836Z" fill="#F0E68C"/>
<path fill-rule="evenodd" clip-rule="evenodd" d="M44.5147 58.2515H45.7481V52.0923H44.5147V58.2515Z" fill="#F0E68C"/>
<path d="M42.6386 58.2515H43.8546V52.0923H42.6386V58.2515Z" fill="#F0E68C"/>
<path d="M72.7557 54.4738V58.2515H95.6738V54.4738H89.9443H87.0795H85.6472H84.2148H82.7824H81.35H78.4853H72.7557Z" fill="#1770C2"/>
<path d="M82.7824 54.4738H84.2148H85.6472V35.8026L69.0906 25.098L70.0184 24.1719L63.2151 17.3687L60.8114 19.7723C62.3328 19.9259 63.9381 20.5905 65.4761 22.1282C67.0256 23.6775 67.6416 25.2924 67.7205 26.8197C67.7312 27.0274 67.732 27.2338 67.7238 27.4379L67.7225 27.4684L82.7824 37.1276V54.4738Z" fill="#1770C2"/>
<path d="M23.2543 63.9045H22.5201L21.3201 63.1203M23.2543 63.9045V102.631H59.7218V63.9045M23.2543 63.9045H59.7218M59.7218 63.9045H91.2787M21.3201 63.1203V58.2515H72.7557M21.3201 63.1203H99.9083M99.9083 63.1203V58.2515H95.6738M99.9083 63.1203L98.7083 63.9045H96.6375M91.2787 63.9045V102.631H96.6375V63.9045M91.2787 63.9045H96.6375M72.7557 58.2515V54.4738H78.4853H81.35H82.7824M72.7557 58.2515H95.6738M95.6738 58.2515V54.4738H89.9443H87.0795H85.6472M82.7824 54.4738H84.2148H85.6472M82.7824 54.4738V37.1276L67.7225 27.4684M85.6472 54.4738V35.8026L69.0906 25.098L70.0184 24.1719M67.7225 27.4684C67.723 27.4582 67.7234 27.4481 67.7238 27.4379M67.7225 27.4684L67.7238 27.4379M65.4761 22.1282C59.8431 16.496 53.3054 22.5774 53.3054 22.5774L56.3559 25.7881M65.4761 22.1282C63.9381 20.5905 62.3328 19.9259 60.8114 19.7723L63.2151 17.3687L70.0184 24.1719M65.4761 22.1282C67.0256 23.6775 67.6416 25.2924 67.7205 26.8197C67.7312 27.0274 67.732 27.2338 67.7238 27.4379M70.0184 24.1719L67.6952 26.4909M56.3559 25.7881C55.2429 26.3501 54.4797 27.5039 54.4797 28.836C54.4797 30.7206 56.0074 32.2483 57.892 32.2483C59.1618 32.2483 60.2697 31.5547 60.8573 30.5257M56.3559 25.7881L60.8573 30.5257M60.8573 30.5257L64.4055 34.2601C64.4055 34.2601 67.5738 31.1881 67.7238 27.4379M40.3004 38.2913H23.0599V44.4505H40.3004M40.3004 38.2913V44.4505M40.3004 38.2913H41.5164M40.3004 44.4505H41.5164M41.5164 44.4505V38.2913M41.5164 44.4505H42.1765M41.5164 38.2913H42.1765M42.1765 38.2913V44.4505M42.1765 38.2913H43.4099M42.1765 44.4505H43.4099M43.4099 44.4505H47.0628V38.2913H43.4099M43.4099 44.4505V38.2913M44.9767 45.1918H27.7362V51.3509H44.9767M44.9767 45.1918V51.3509M44.9767 45.1918H46.1928M44.9767 51.3509H46.1928M46.1928 51.3509V45.1918M46.1928 51.3509H46.8529M46.1928 45.1918H46.8529M46.8529 45.1918V51.3509M46.8529 45.1918H48.0863M46.8529 51.3509H48.0863M48.0863 51.3509H51.7392V45.1918H48.0863M48.0863 51.3509V45.1918M42.6386 52.0923H25.3981V58.2515H42.6386M42.6386 52.0923V58.2515M42.6386 52.0923H43.8546M42.6386 58.2515H43.8546M43.8546 58.2515V52.0923M43.8546 58.2515H44.5147M43.8546 52.0923H44.5147M44.5147 52.0923V58.2515M44.5147 52.0923H45.7481M44.5147 58.2515H45.7481M45.7481 58.2515H49.401V52.0923H45.7481M45.7481 58.2515V52.0923M26.0736 65.4284V75.4186H57.3928V65.4284H26.0736ZM37.1757 69.5514V71.0415H45.9184V69.5514H44.8256V70.0497H41.5471H38.2686V69.5514H37.1757ZM26.0736 77.7471V87.7374H57.3928V77.7471H26.0736ZM37.1757 81.8701V83.3603H45.9184V81.8701H44.8256V82.3684H41.5471H38.2686V81.8701H37.1757ZM26.0736 90.1092V100.099H57.3928V90.1092H26.0736ZM37.1757 94.2323V95.7224H45.9184V94.2323H44.8256V94.7306H41.5471H38.2686V94.2323H37.1757Z" stroke="black" stroke-width="0.5" stroke-linecap="round" stroke-linejoin="round"/>
</svg>
