<svg width="121" height="120" viewBox="0 0 121 120" fill="none" xmlns="http://www.w3.org/2000/svg">
<path d="M101.414 98.7H19.5142L41.4142 65.4H79.2142L101.414 98.7Z" fill="#1770C2"/>
<path d="M36.7022 73.2717L35.2975 65.7415C30.1626 67.0846 27.6415 68.7294 27.6003 70.7208C27.6849 71.1772 27.8902 71.7053 28.6653 72.3287C29.186 76.9741 29.4255 79.4784 30.693 82.18L36.7022 73.2717Z" fill="#F0E68C"/>
<path d="M29.9323 83.4315C28.5153 80.3271 28.2181 77.5765 27.6003 72.7051C26.8814 72.1341 26.5437 71.6814 26.42 71.2597C26.4717 79.069 27.2342 82.1071 28.6653 85.2608L29.9323 83.4315Z" fill="#F0E68C"/>
<path d="M85.9311 65.7415L84.5264 73.2717L90.5357 82.18C91.8031 79.4784 92.0426 76.9741 92.5633 72.3287C93.3384 71.7053 93.5437 71.1772 93.6283 70.7208C93.5871 68.7294 91.066 67.0846 85.9311 65.7415Z" fill="#F0E68C"/>
<path d="M92.5633 72.3287C92.0426 76.9741 91.8031 79.4784 90.5357 82.18L91.2963 83.4315C92.7133 80.3271 93.0106 77.5765 93.6283 72.7051C94.3472 72.1341 94.6849 71.6814 94.8086 71.2597C94.8105 70.9764 94.8114 70.6868 94.8114 70.3907C93.6038 66.9486 89.536 65.7415 87.5297 65.7415H85.9311C91.066 67.0846 93.5871 68.7294 93.6283 70.7208C93.5437 71.1772 93.3384 71.7053 92.5633 72.3287Z" fill="#1770C2"/>
<path d="M93.6283 72.7051C93.0106 77.5765 92.7133 80.3271 91.2963 83.4315L92.5633 85.2608C93.9944 82.1071 94.757 79.069 94.8086 71.2597C94.6849 71.6814 94.3472 72.1341 93.6283 72.7051Z" fill="#F0E68C"/>
<path d="M35.8187 24.9608V59.8179H85.233V24.9608H35.8187Z" fill="#F0E68C"/>
<path d="M88.9627 21.6H32.266V23.9685H88.9627V21.6Z" fill="#1770C2"/>
<path d="M88.9627 23.9685H32.266L34.4921 24.9608H35.8187H85.233H86.7365L88.9627 23.9685Z" fill="#070707"/>
<path fill-rule="evenodd" clip-rule="evenodd" d="M27.755 86.6186L26.3504 79.0884C21.2154 80.4315 18.3183 82.4685 18.277 84.46C18.3616 84.9163 18.5669 85.4444 19.3421 86.0679C19.8627 90.7133 20.4784 92.8252 21.7458 95.5268L27.755 86.6186ZM21.3789 96.1304L20.9687 96.7424C19.5629 93.6557 18.8924 91.2968 18.277 86.4443C17.72 86.0018 17.6177 85.3949 17.5423 84.9479C17.5204 84.8179 17.5007 84.7015 17.4729 84.6066C17.471 84.3233 17.4701 84.0337 17.4701 83.7376C17.4045 84.0321 17.3864 84.3118 17.4729 84.6066C17.5245 92.4159 18.287 95.454 19.7182 98.6077L20.9851 96.7784L21.3789 96.1304Z" fill="#F0E68C"/>
<path d="M21.7458 95.5268C20.4784 92.8252 19.8627 90.7133 19.3421 86.0679C18.5669 85.4444 18.3616 84.9163 18.277 84.46C18.3183 82.4685 21.2154 80.4315 26.3504 79.0884H24.7517C22.7455 79.0884 18.6776 80.2955 17.4701 83.7376C17.4701 84.0337 17.471 84.3233 17.4729 84.6066C17.5007 84.7015 17.5204 84.8179 17.5423 84.9479C17.6177 85.3949 17.72 86.0018 18.277 86.4443C18.8924 91.2968 19.5629 93.6557 20.9687 96.7424L21.3789 96.1304L21.7458 95.5268Z" fill="#1770C2"/>
<path d="M30.693 82.18C29.4255 79.4784 29.186 76.9741 28.6653 72.3287C27.8902 71.7053 27.6849 71.1772 27.6003 70.7208C27.6415 68.7294 30.1626 67.0846 35.2975 65.7415H33.6989C31.6926 65.7415 27.6248 66.9486 26.4172 70.3907C26.4172 70.6868 26.4182 70.9764 26.42 71.2597C26.5437 71.6814 26.8814 72.1341 27.6003 72.7051C28.2181 77.5765 28.5153 80.3271 29.9323 83.4315L30.693 82.18Z" fill="#1770C2"/>
<path fill-rule="evenodd" clip-rule="evenodd" d="M93.4736 86.6186L94.8782 79.0884C100.013 80.4315 102.91 82.4685 102.952 84.46C102.867 84.9163 102.662 85.4444 101.887 86.0679C101.366 90.7133 100.75 92.8252 99.4828 95.5268L93.4736 86.6186ZM99.8497 96.1304L100.243 96.7784L101.51 98.6077C102.942 95.454 103.704 92.4159 103.756 84.6066C103.842 84.3118 103.824 84.0321 103.759 83.7376C103.759 84.0337 103.758 84.3233 103.756 84.6066C103.728 84.7015 103.708 84.8179 103.686 84.9479C103.611 85.3949 103.509 86.0018 102.952 86.4443C102.336 91.2968 101.666 93.6557 100.26 96.7424L99.8497 96.1304Z" fill="#F0E68C"/>
<path d="M101.887 86.0679C101.366 90.7133 100.75 92.8252 99.4828 95.5268L99.8497 96.1304L100.26 96.7424C101.666 93.6557 102.336 91.2968 102.952 86.4443C103.509 86.0018 103.611 85.3949 103.686 84.9479C103.708 84.8179 103.728 84.7015 103.756 84.6066C103.758 84.3233 103.759 84.0337 103.759 83.7376C102.551 80.2955 98.4831 79.0884 96.4769 79.0884H94.8782C100.013 80.4315 102.91 82.4685 102.952 84.46C102.867 84.9163 102.662 85.4444 101.887 86.0679Z" fill="#1770C2"/>
<path d="M57.6621 74.2897L54.6829 83.2313H57.2085L58.9899 74.2897H57.6621Z" fill="#F0E68C"/>
<path d="M63.5659 74.2897L66.5451 83.2313H64.0195L62.2381 74.2897H63.5659Z" fill="#F0E68C"/>
<path d="M54.1282 85.5537L49.0664 98.4H54.6158L57.0458 85.5537H54.1282Z" fill="#F0E68C"/>
<path d="M67.1003 85.5537L72.1621 98.4H66.6127L64.1828 85.5537H67.1003Z" fill="#F0E68C"/>
<path d="M19.4553 99L20.9687 96.7424M35.2975 65.7415L36.7022 73.2717M35.2975 65.7415C30.1626 67.0846 27.6415 68.7294 27.6003 70.7208C27.6849 71.1772 27.8902 71.7053 28.6653 72.3287C29.186 76.9741 29.4255 79.4784 30.693 82.18M35.2975 65.7415H33.6989C31.6926 65.7415 27.6248 66.9486 26.4172 70.3907M36.7022 73.2717L30.693 82.18M36.7022 73.2717L41.5432 65.7415H79.198L84.5264 73.2717M30.693 82.18L29.9323 83.4315M29.9323 83.4315C28.5153 80.3271 28.2181 77.5765 27.6003 72.7051C26.8814 72.1341 26.5437 71.6814 26.42 71.2597M29.9323 83.4315L28.6653 85.2608M26.4172 70.3907C26.4172 70.6868 26.4182 70.9764 26.42 71.2597M26.4172 70.3907C26.3516 70.6852 26.3336 70.9649 26.42 71.2597M28.6653 85.2608C27.2342 82.1071 26.4717 79.069 26.42 71.2597M28.6653 85.2608L21.3789 96.1304M26.3504 79.0884L27.755 86.6186L21.7458 95.5268M26.3504 79.0884C21.2154 80.4315 18.3183 82.4685 18.277 84.46C18.3616 84.9163 18.5669 85.4444 19.3421 86.0679C19.8627 90.7133 20.4784 92.8252 21.7458 95.5268M26.3504 79.0884H24.7517C22.7455 79.0884 18.6776 80.2955 17.4701 83.7376M21.7458 95.5268L21.3789 96.1304M20.9851 96.7784L19.7182 98.6077C18.287 95.454 17.5245 92.4159 17.4729 84.6066M20.9851 96.7784L21.3789 96.1304M20.9851 96.7784C20.9797 96.7663 20.9742 96.7543 20.9687 96.7424M17.4701 83.7376C17.4045 84.0321 17.3864 84.3118 17.4729 84.6066M17.4701 83.7376C17.4701 84.0337 17.471 84.3233 17.4729 84.6066M17.4729 84.6066C17.5007 84.7015 17.5204 84.8179 17.5423 84.9479C17.6177 85.3949 17.72 86.0018 18.277 86.4443C18.8924 91.2968 19.5629 93.6557 20.9687 96.7424M101.773 99L100.26 96.7424M85.9311 65.7415L84.5264 73.2717M85.9311 65.7415C91.066 67.0846 93.5871 68.7294 93.6283 70.7208C93.5437 71.1772 93.3384 71.7053 92.5633 72.3287C92.0426 76.9741 91.8031 79.4784 90.5357 82.18M85.9311 65.7415H87.5297C89.536 65.7415 93.6038 66.9486 94.8114 70.3907M84.5264 73.2717L90.5357 82.18M90.5357 82.18L91.2963 83.4315M91.2963 83.4315C92.7133 80.3271 93.0105 77.5765 93.6283 72.7051C94.3472 72.1341 94.6849 71.6814 94.8086 71.2597M91.2963 83.4315L92.5633 85.2608M94.8114 70.3907C94.8114 70.6868 94.8105 70.9764 94.8086 71.2597M94.8114 70.3907C94.877 70.6852 94.895 70.9649 94.8086 71.2597M92.5633 85.2608C93.9944 82.1071 94.757 79.069 94.8086 71.2597M92.5633 85.2608L99.8497 96.1304M94.8782 79.0884L93.4736 86.6186L99.4828 95.5268M94.8782 79.0884C100.013 80.4315 102.91 82.4685 102.952 84.46C102.867 84.9163 102.662 85.4444 101.887 86.0679C101.366 90.7133 100.75 92.8252 99.4828 95.5268M94.8782 79.0884H96.4769C98.4831 79.0884 102.551 80.2955 103.759 83.7376M99.4828 95.5268L99.8497 96.1304M100.243 96.7784L101.51 98.6077C102.942 95.454 103.704 92.4159 103.756 84.6066M100.243 96.7784L99.8497 96.1304M100.243 96.7784C100.249 96.7663 100.254 96.7543 100.26 96.7424M103.759 83.7376C103.824 84.0321 103.842 84.3118 103.756 84.6066M103.759 83.7376C103.759 84.0337 103.758 84.3233 103.756 84.6066M103.756 84.6066C103.728 84.7015 103.708 84.8179 103.686 84.9479C103.611 85.3949 103.509 86.0018 102.952 86.4443C102.336 91.2968 101.666 93.6557 100.26 96.7424M88.9627 23.9685V21.6H32.266V23.9685M88.9627 23.9685H32.266M88.9627 23.9685L86.7365 24.9608H85.233M32.266 23.9685L34.4921 24.9608H35.8187M35.8187 24.9608V59.8179H85.233V24.9608M35.8187 24.9608H85.233M21.3789 96.1304L20.9687 96.7424M99.8497 96.1304L100.26 96.7424M57.6621 74.2897L54.6829 83.2313H57.2085L58.9899 74.2897H57.6621ZM54.1282 85.5537L49.0664 98.4H54.6158L57.0458 85.5537H54.1282ZM63.5659 74.2897L66.5451 83.2313H64.0195L62.2381 74.2897H63.5659ZM67.1003 85.5537L72.1621 98.4H66.6127L64.1828 85.5537H67.1003Z" stroke="black" stroke-width="0.5" stroke-linecap="round" stroke-linejoin="round"/>
</svg>
