<svg width="173" height="30" viewBox="0 0 173 30" fill="none" xmlns="http://www.w3.org/2000/svg">
<path d="M12.4935 18.7067C12.1232 18.7067 11.8229 18.4065 11.8229 18.0361V4.19546C11.8229 3.82511 12.1232 3.52488 12.4935 3.52488H26.1205C26.4909 3.52488 26.7911 3.82511 26.7911 4.19546V18.0085C26.7911 18.3789 26.4909 18.6791 26.1205 18.6791H23.8362V22.21H27.4317C29.0242 22.21 30.3152 20.919 30.3152 19.3265L30.3152 2.88349C30.3152 1.29098 29.0242 0 27.4317 0H11.1965C9.60394 0 8.31295 1.29098 8.31295 2.88349L8.31296 19.354C8.31296 20.9465 9.60394 22.2375 11.1965 22.2375H17.6613V18.7067H12.4935Z" fill="url(#paint0_linear_2012_1232)"/>
<path d="M18.3903 11.2933C18.7606 11.2933 19.0609 11.5935 19.0609 11.9639V25.8045C19.0609 26.1749 18.7606 26.4751 18.3903 26.4751H4.76326C4.39291 26.4751 4.09268 26.1749 4.09268 25.8045V11.9915C4.09268 11.6211 4.39291 11.3209 4.76326 11.3209H7.04759V7.79005H3.45209C1.85958 7.79005 0.568603 9.08103 0.568604 10.6735L0.568608 27.1165C0.568609 28.709 1.85959 30 3.4521 30H19.6873C21.2799 30 22.5708 28.709 22.5708 27.1165L22.5708 10.646C22.5708 9.05348 21.2799 7.7625 19.6873 7.7625H13.2225V11.2933H18.3903Z" fill="url(#paint1_linear_2012_1232)"/>
<path d="M91.109 6.61349C90.7004 6.82254 90.1872 7.24065 89.7881 7.70151C89.4793 8.05785 89.3843 8.2574 89.3843 8.56148C89.389 9.06986 89.7454 9.61149 90.8524 10.7708C91.2277 11.1651 91.6411 11.6165 91.7741 11.7733C92.0639 12.1201 92.6056 12.7235 93.095 13.2414C93.2945 13.4552 93.5938 13.783 93.7601 13.9778C93.9264 14.1726 94.1782 14.453 94.316 14.6002C94.4823 14.7808 94.5631 14.9091 94.5631 14.9946C94.5631 15.1561 94.3445 15.4222 93.4465 16.3582C93.0379 16.7858 92.6151 17.2514 92.5153 17.3892C92.4155 17.5222 92.0164 17.9641 91.6316 18.3632C91.242 18.7623 90.8239 19.2184 90.6909 19.3752C90.5626 19.532 90.2965 19.8408 90.1065 20.0641C89.6884 20.544 89.3843 21.1189 89.3843 21.4277C89.3843 21.708 89.4745 21.9028 89.7786 22.2829C90.0875 22.6678 90.2157 22.7865 90.6196 23.0669C91.4938 23.675 91.8454 23.7035 92.5153 23.1999C92.9192 22.8958 93.0617 22.7533 93.4228 22.2734C93.5653 22.0881 93.9264 21.6605 94.2352 21.3232C94.5441 20.9811 94.8814 20.5867 94.9954 20.4442C95.1047 20.3017 95.3518 20.0213 95.5371 19.8265C95.7271 19.6317 96.0359 19.2754 96.226 19.0426C96.5966 18.577 97.3473 17.7835 97.409 17.7835C97.4328 17.7835 97.5848 17.9593 97.7511 18.1731C97.9174 18.3917 98.25 18.7813 98.4876 19.0426C98.7251 19.3039 99.0244 19.646 99.1527 19.8028C99.3903 20.1021 99.5566 20.2874 99.9604 20.7293C100.093 20.8718 100.303 21.1189 100.431 21.2757C100.83 21.7745 101.842 22.8673 102.203 23.1809C102.754 23.6655 103.034 23.6893 103.733 23.3092C104.298 23.0051 105.049 22.2592 105.201 21.8553C105.253 21.7033 105.301 21.4942 105.301 21.3944C105.301 20.9241 104.916 20.3207 104.013 19.3752C103.662 19.0093 103.224 18.5295 103.039 18.3062C102.849 18.0829 102.384 17.5697 101.999 17.1659C101.614 16.762 101.224 16.3344 101.129 16.2156C101.034 16.0969 100.782 15.807 100.569 15.5742C100.06 15.0136 100.051 14.9898 100.188 14.7855C100.25 14.6953 100.436 14.4957 100.607 14.3389C100.915 14.0491 101.486 13.4219 101.904 12.9136C102.032 12.7568 102.426 12.3292 102.783 11.9633C103.134 11.5975 103.548 11.1461 103.7 10.9561C103.847 10.766 104.151 10.4239 104.365 10.1959C104.968 9.55923 105.301 8.96058 105.301 8.51397C105.301 8.10061 104.864 7.49721 104.198 6.98884C103.457 6.42344 103.006 6.32367 102.498 6.59449C102.184 6.77028 101.338 7.59224 100.963 8.10061C100.811 8.30492 100.474 8.69926 100.207 8.97958C99.9462 9.26466 99.6421 9.61149 99.5376 9.75403C99.4283 9.89656 99.1432 10.2244 98.9009 10.481C98.6586 10.7375 98.402 11.0273 98.3308 11.1224C98.0932 11.4455 97.409 12.2246 97.3663 12.2246C97.3425 12.2246 97.2332 12.1106 97.124 11.9728C97.0194 11.8398 96.7439 11.5215 96.5158 11.2744C96.2878 11.0273 96.0074 10.7043 95.8934 10.5617C95.7746 10.4192 95.4753 10.0771 95.2282 9.80154C94.9764 9.52597 94.5678 9.0556 94.316 8.75628C93.6936 8.00559 92.7529 6.96508 92.6103 6.87006C92.5486 6.8273 92.444 6.74177 92.3775 6.68476C92.2397 6.56123 91.8644 6.4282 91.6363 6.4282C91.5508 6.4282 91.318 6.51372 91.109 6.61349Z" fill="#070707"/>
<path d="M149.392 6.7275C147.529 6.90804 145.828 7.59697 144.379 8.75151C143.709 9.28364 143.434 9.54495 143.272 9.80152C143.182 9.94405 143.039 10.1389 142.949 10.2291C142.778 10.4144 142.678 10.5807 142.293 11.3504C142.037 11.8683 141.733 12.7995 141.642 13.3697C141.552 13.9208 141.462 14.9756 141.481 15.1989C141.495 15.3272 141.528 15.7215 141.557 16.0731C141.6 16.5625 141.657 16.8665 141.794 17.3512C141.899 17.7027 141.98 18.0211 141.98 18.0638C141.98 18.2301 142.745 19.6697 143.011 20.0118C143.163 20.2066 143.372 20.4727 143.481 20.6057C143.956 21.2044 145.173 22.1213 146.066 22.549C147.135 23.0621 147.467 23.1809 148.332 23.3757C148.902 23.4992 149.007 23.5087 150.009 23.5039H151.078L151.743 23.3329C152.109 23.2379 152.494 23.1238 152.599 23.0763C152.703 23.0336 152.898 22.9671 153.026 22.9291C153.729 22.72 155.183 21.7745 155.373 21.4039C155.597 20.9621 155.597 20.6532 155.369 20.1163C155.24 19.8075 154.775 19.1233 154.504 18.8335C154.181 18.4962 153.763 18.2919 153.468 18.3347C153.221 18.3727 152.684 18.634 152.361 18.8715C152.024 19.1233 150.988 19.5462 150.879 19.4797C150.855 19.4654 150.684 19.4844 150.499 19.5177C149.857 19.627 149.092 19.5415 148.247 19.2754C147.401 19.0046 146.332 18.0638 145.899 17.2086C145.676 16.7715 145.496 16.1206 145.439 15.5552C145.396 15.0848 145.401 14.9185 145.467 14.4529C145.553 13.84 145.814 13.0751 146.047 12.7378C146.123 12.6332 146.237 12.4669 146.299 12.3719C146.626 11.8873 147.387 11.3314 148.19 10.9941C148.674 10.7898 149.368 10.6567 149.971 10.6567C150.755 10.6567 151.111 10.747 151.895 11.1366C152.266 11.3171 152.646 11.5214 152.746 11.588C152.841 11.6545 153.069 11.7638 153.245 11.8255L153.568 11.9443L153.867 11.8065C154.285 11.6117 154.523 11.4264 154.822 11.0511C155.193 10.5855 155.43 10.1531 155.502 9.80627C155.62 9.24088 155.497 8.92255 154.965 8.41892C154.395 7.88679 152.622 7.06008 151.705 6.90329C150.518 6.69899 150.042 6.66098 149.392 6.7275Z" fill="#070707"/>
<path d="M43.2266 6.85578C42.837 6.87478 42.3998 6.91754 42.2621 6.9508C41.7869 7.07433 41.4686 7.49243 41.3403 8.1671C41.2928 8.42842 41.2786 9.88228 41.2786 15.2891V22.0833L41.3831 22.3637C41.6682 23.1191 42.0578 23.3091 43.3216 23.3091C43.9535 23.3044 44.0057 23.2996 44.3763 23.1571C44.6614 23.0431 44.8039 22.9576 44.9037 22.8388C45.1698 22.5204 45.1698 22.5252 45.184 19.8028C45.1935 18.4154 45.1983 17.2466 45.1983 17.1991C45.1983 17.1231 45.3313 17.1183 47.3031 17.1183C50.2346 17.1183 50.8807 17.0566 51.1468 16.7573C51.1895 16.7097 51.3036 16.5102 51.3986 16.3154L51.5791 15.9638L51.5839 15.1514C51.5886 14.4909 51.5744 14.2866 51.5031 14.0633C51.3986 13.7307 51.1373 13.4219 50.8142 13.2604L50.5909 13.1511L48.0015 13.1368C46.5761 13.1321 45.3646 13.1178 45.3076 13.1036L45.1983 13.0798V11.9633V10.8468L45.3076 10.823C45.3646 10.8088 47.113 10.7945 49.1893 10.785L52.9665 10.7755L53.2516 10.6615C53.6744 10.4952 53.855 10.2814 53.988 9.79676C54.083 9.44042 54.0925 9.32164 54.0688 8.68498C54.0498 8.08158 54.026 7.92479 53.9262 7.64922C53.7457 7.15035 53.6364 7.06483 53.0378 6.92229C52.7147 6.85102 52.2633 6.84152 48.3103 6.83202C45.9062 6.82727 43.6209 6.83677 43.2266 6.85578Z" fill="#070707"/>
<path d="M75.3443 6.85575C74.0472 6.90326 73.6624 7.10756 73.4438 7.8535L73.3203 8.25735L73.3346 15.2654L73.3488 22.2734L73.4581 22.4967C73.5816 22.7485 73.8762 23.0288 74.1328 23.1381C74.5746 23.3281 74.8264 23.3376 79.8342 23.3376C84.9797 23.3424 85.0272 23.3376 85.4786 23.1096C85.8682 22.91 86.082 22.4682 86.1533 21.727C86.253 20.6817 85.9062 19.6697 85.4121 19.5652C85.3361 19.5462 85.1888 19.5034 85.0795 19.4654C84.918 19.4084 84.2861 19.3989 81.0933 19.3989C79.0075 19.3989 77.2828 19.3846 77.259 19.3609C77.2353 19.3371 77.2258 18.8192 77.2305 18.2063L77.2448 17.0946L79.8579 17.0708C82.2335 17.0471 82.4996 17.0375 82.7657 16.9568C83.4166 16.762 83.6779 16.2108 83.6827 15.0278C83.6827 14.6097 83.5829 13.9635 83.4879 13.7782C83.3833 13.5692 83.1363 13.3649 82.8797 13.2604C82.6184 13.1558 82.5756 13.1511 79.9767 13.1368C78.214 13.1273 77.3208 13.1036 77.2828 13.0703C77.1973 12.999 77.1925 10.9418 77.2781 10.8563C77.3208 10.8135 78.1855 10.7992 80.8747 10.7992C82.8274 10.7992 84.6044 10.7802 84.8277 10.7565C85.5784 10.6757 85.8872 10.4191 86.063 9.73497C86.2198 9.13157 86.1628 7.96278 85.9632 7.56843C85.8492 7.34512 85.5831 7.11232 85.3028 6.98403C85.1223 6.90326 84.937 6.88426 84.229 6.851C83.2455 6.80824 76.4799 6.81299 75.3443 6.85575Z" fill="#070707"/>
<path d="M110.765 6.85575C109.876 6.89376 109.605 6.95552 109.372 7.18358C109.163 7.37838 108.978 7.67295 108.907 7.91051C108.845 8.13382 108.845 21.765 108.912 22.1071C109.026 22.7105 109.083 22.8007 109.505 23.0335C109.9 23.2521 110.256 23.3139 111.016 23.2854C111.553 23.2664 111.686 23.2426 111.952 23.1333C112.337 22.9765 112.48 22.8387 112.646 22.4729L112.779 22.1783L112.798 20.5297C112.812 19.3799 112.836 18.8668 112.874 18.8335C112.903 18.8097 113.696 18.7812 114.637 18.767C115.953 18.748 116.414 18.729 116.632 18.672C116.789 18.6292 117.055 18.5627 117.226 18.5199C117.929 18.3394 118.69 17.9355 119.53 17.2846C119.963 16.9473 120.267 16.6337 120.39 16.4009C120.433 16.3106 120.528 16.1633 120.6 16.0731C120.875 15.7215 121.303 14.681 121.431 14.0538C121.521 13.6167 121.54 12.4194 121.469 11.8207C121.407 11.3456 121.174 10.5617 120.97 10.1673C120.571 9.38338 119.706 8.41889 118.96 7.92477C118.324 7.50191 117.906 7.30236 117.198 7.09331L116.556 6.89851L115.335 6.85575C114.071 6.80824 111.962 6.80824 110.765 6.85575ZM115.986 10.8753C116.499 10.9703 116.642 11.0463 117.069 11.4359C117.454 11.7922 117.573 12.025 117.625 12.5572C117.692 13.1986 117.502 13.7925 117.107 14.1916C116.537 14.7617 116.209 14.833 114.299 14.8377C113.292 14.8377 112.907 14.8235 112.865 14.7807C112.822 14.738 112.808 14.2296 112.808 12.7947C112.808 11.7305 112.822 10.8467 112.841 10.8325C112.855 10.8135 113.482 10.7992 114.223 10.7992C115.269 10.7992 115.673 10.8182 115.986 10.8753Z" fill="#070707"/>
<path d="M161.341 6.85577C159.863 6.91278 159.512 7.17885 159.364 8.35239C159.336 8.5947 159.322 11.2079 159.331 15.4792L159.345 22.2259L159.478 22.4967C159.692 22.9385 160.039 23.1666 160.647 23.2759C160.937 23.3281 161.996 23.3376 165.831 23.3376C170.995 23.3424 170.995 23.3424 171.504 23.1048C171.922 22.9053 172.145 22.3446 172.159 21.4752C172.174 20.7863 172.093 20.3349 171.898 20.0118C171.713 19.7125 171.584 19.6127 171.247 19.5034C171.009 19.4322 170.61 19.4227 167.161 19.4132C165.056 19.4037 163.308 19.3894 163.279 19.3751C163.232 19.3609 163.218 19.0948 163.218 18.2729C163.218 17.679 163.237 17.1658 163.256 17.1326C163.279 17.0898 163.954 17.0708 165.902 17.0613C168.273 17.0423 168.539 17.0328 168.791 16.952C169.176 16.8333 169.475 16.5149 169.579 16.1206C169.679 15.7452 169.698 14.6762 169.617 14.2344C169.537 13.8115 169.356 13.4837 169.152 13.3744C168.715 13.1511 168.762 13.1558 165.973 13.1368C163.588 13.1226 163.332 13.1178 163.279 13.0466C163.194 12.9373 163.194 10.937 163.275 10.8563C163.317 10.8135 164.182 10.7993 166.876 10.7993C168.824 10.7993 170.606 10.7755 170.838 10.7517C171.755 10.6567 172.059 10.2814 172.15 9.13634C172.188 8.68022 172.088 7.77275 171.983 7.56369C171.879 7.36414 171.641 7.15034 171.371 7.01255C171.152 6.89853 171.057 6.87952 170.439 6.85577C169.56 6.81301 162.348 6.81776 161.341 6.85577Z" fill="#070707"/>
<path d="M58.8866 6.95075C58.535 7.04578 58.2737 7.20257 58.1454 7.39261C58.1074 7.44963 58.0314 7.64918 57.9696 7.82972L57.8604 8.16231V15.0515C57.8604 21.5226 57.8651 21.9598 57.9459 22.2496C58.0552 22.6487 58.2119 22.8815 58.478 23.0335C58.9769 23.3281 58.7916 23.3186 63.8706 23.3186L68.503 23.3138L68.8594 23.1951C69.1919 23.0858 69.2204 23.062 69.325 22.8625C69.5008 22.5109 69.5863 22.0025 69.553 21.4894C69.5103 20.7102 69.306 20.2826 68.9164 20.1496C68.7833 20.1068 67.8711 20.0878 65.334 20.0735C62.2742 20.0593 61.9226 20.0545 61.8656 19.9833C61.8133 19.9215 61.8038 18.8857 61.7991 14.2058C61.7943 11.0748 61.7753 8.36661 61.7563 8.19081C61.7041 7.69669 61.457 7.22157 61.1719 7.07429C60.7396 6.85098 59.5185 6.78921 58.8866 6.95075Z" fill="#070707"/>
<path d="M130.483 6.97459C130.169 7.10762 129.87 7.34993 129.575 7.70627C129.347 7.98184 128.558 9.49747 128.416 9.93458C128.368 10.0676 128.307 10.2006 128.269 10.2339C128.23 10.2624 128.202 10.3147 128.202 10.3479C128.202 10.3812 128.116 10.576 128.007 10.7803C127.903 10.9893 127.722 11.3742 127.603 11.645C127.485 11.9111 126.986 12.9421 126.492 13.9351C125.997 14.9233 125.537 15.8688 125.47 16.0304C125.399 16.1919 125.304 16.4009 125.252 16.496C125.204 16.5862 125.161 16.686 125.161 16.705C125.161 16.7288 125.118 16.8 125.066 16.8666C125.014 16.9331 124.971 17.0234 124.971 17.0709C124.971 17.1184 124.928 17.2086 124.876 17.2752C124.824 17.3417 124.781 17.4272 124.781 17.47C124.781 17.508 124.449 18.2111 124.04 19.0284C123.631 19.8456 123.242 20.6533 123.18 20.8243C123.113 20.9953 123.033 21.2092 122.995 21.2994C122.9 21.5512 122.909 21.9836 123.018 22.1974C123.175 22.5015 123.593 22.8341 124.173 23.1239C124.843 23.4565 125.228 23.561 125.603 23.5135C125.855 23.4802 125.902 23.4517 126.187 23.1856C126.492 22.9053 126.515 22.8578 127.214 21.4467C127.603 20.6485 127.96 19.9548 127.998 19.9073C128.069 19.8313 128.278 19.8266 131.143 19.8266C132.83 19.8266 134.236 19.8456 134.269 19.8646C134.331 19.9026 135.181 21.6415 135.334 22.0311C135.452 22.3494 135.913 23.1049 136.113 23.3092C136.246 23.447 136.317 23.4802 136.602 23.523C136.982 23.58 137.229 23.5325 137.799 23.3092C138.17 23.1666 138.883 22.7248 139.068 22.5252C139.13 22.4635 139.225 22.2877 139.287 22.1356C139.396 21.8743 139.396 21.8411 139.344 21.5417C139.249 21.0571 139.111 20.7435 138.198 18.8953C137.343 17.1754 137.148 16.7668 136.673 15.7168C136.531 15.4032 135.937 14.1774 135.348 12.9943C134.763 11.8113 134.284 10.8326 134.284 10.8135C134.284 10.7755 133.713 9.55448 133.233 8.57574C132.915 7.92482 132.806 7.75378 132.545 7.47346C132.107 7.0126 131.87 6.90332 131.238 6.87956C130.796 6.86056 130.715 6.87006 130.483 6.97459ZM131.271 13.5407C131.314 13.6643 131.765 14.643 132.245 15.636C132.53 16.2252 132.649 16.5102 132.606 16.5292C132.573 16.5387 131.917 16.5435 131.148 16.5387L129.746 16.5245L129.732 16.4104C129.713 16.2869 129.713 16.2869 130.535 14.6097C131.086 13.4885 131.2 13.3222 131.271 13.5407Z" fill="#070707"/>
<defs>
<linearGradient id="paint0_linear_2012_1232" x1="29.6407" y1="1.11189" x2="3.38168" y2="27.8953" gradientUnits="userSpaceOnUse">
<stop stop-color="#085AA9"/>
<stop offset="1" stop-color="#359AF7"/>
</linearGradient>
<linearGradient id="paint1_linear_2012_1232" x1="29.6407" y1="1.11189" x2="3.38168" y2="27.8953" gradientUnits="userSpaceOnUse">
<stop stop-color="#085AA9"/>
<stop offset="1" stop-color="#359AF7"/>
</linearGradient>
</defs>
</svg>
