<svg width="354" height="50" viewBox="0 0 354 50" fill="none" xmlns="http://www.w3.org/2000/svg">
<rect x="0.385742" width="353" height="50" rx="10" fill="black"/>
<path fill-rule="evenodd" clip-rule="evenodd" d="M123.104 15.3334C123.328 14.777 123.441 14.206 123.441 13.6204C123.441 13.5423 123.436 13.4593 123.426 13.3715C123.416 13.2836 123.411 13.2007 123.411 13.1226C123.099 13.1421 122.787 13.1958 122.474 13.2836C122.162 13.3715 121.83 13.5033 121.479 13.679C121.147 13.8351 120.839 14.0206 120.556 14.2353C120.273 14.4501 120.024 14.6843 119.81 14.9381C119.361 15.4261 119.019 15.963 118.785 16.5486C118.551 17.1343 118.433 17.7199 118.433 18.3056V18.5252C118.433 18.5935 118.443 18.6667 118.463 18.7448C119.146 18.8034 119.795 18.6668 120.41 18.3349C121.025 18.003 121.596 17.5345 122.123 16.9293C122.553 16.4217 122.879 15.8898 123.104 15.3334ZM127.39 32.8478C127.605 32.4671 127.8 32.0621 127.976 31.6326C128.054 31.4569 128.127 31.2763 128.195 31.0908C128.264 30.9054 128.327 30.7248 128.386 30.5491C128.093 30.4125 127.81 30.2563 127.537 30.0806C127.263 29.9049 127 29.6999 126.746 29.4657C126.219 28.9581 125.814 28.392 125.531 27.7673C125.248 27.1426 125.106 26.4496 125.106 25.6882C125.106 24.7121 125.326 23.8434 125.765 23.0821C126.204 22.3207 126.873 21.6765 127.771 21.1494C127.263 20.4271 126.634 19.8707 125.882 19.4803C125.13 19.0899 124.257 18.8556 123.261 18.7775C122.89 18.7385 122.48 18.758 122.031 18.8361C121.582 18.9142 121.094 19.0508 120.567 19.246C120.001 19.4608 119.552 19.617 119.22 19.7146C118.888 19.8122 118.674 19.861 118.576 19.861C118.439 19.861 118.22 19.8171 117.917 19.7292C117.615 19.6414 117.239 19.5096 116.79 19.3339C116.321 19.1582 115.897 19.0264 115.516 18.9386C115.135 18.8507 114.799 18.8068 114.506 18.8068C113.979 18.8263 113.476 18.9044 112.998 19.0411C112.519 19.1777 112.046 19.3827 111.578 19.656C111.129 19.9098 110.728 20.2221 110.377 20.593C110.026 20.964 109.713 21.3739 109.44 21.8229C109.089 22.4086 108.825 23.043 108.649 23.7263C108.474 24.4095 108.386 25.1514 108.386 25.9518C108.386 26.635 108.449 27.3378 108.576 28.0601C108.703 28.7824 108.893 29.5145 109.147 30.2563C109.401 30.9396 109.679 31.5838 109.982 32.1889C110.284 32.7941 110.621 33.3505 110.992 33.8581C111.324 34.3461 111.636 34.7609 111.929 35.1026C112.222 35.4442 112.476 35.7224 112.69 35.9371C113.061 36.269 113.427 36.513 113.788 36.6692C114.15 36.8254 114.506 36.8937 114.857 36.8742C115.091 36.8742 115.365 36.8302 115.677 36.7424C115.989 36.6545 116.341 36.5325 116.731 36.3764C117.122 36.2202 117.493 36.1079 117.844 36.0396C118.195 35.9713 118.547 35.9371 118.898 35.9371C119.211 35.9371 119.542 35.9713 119.894 36.0396C120.245 36.1079 120.606 36.2202 120.977 36.3764C121.368 36.5325 121.724 36.6497 122.046 36.7277C122.368 36.8058 122.666 36.8449 122.939 36.8449C123.31 36.8449 123.676 36.7668 124.037 36.6106C124.398 36.4544 124.735 36.2299 125.048 35.9371C125.262 35.7419 125.506 35.4784 125.78 35.1465C126.053 34.8146 126.355 34.4144 126.687 33.9459C126.941 33.5945 127.175 33.2285 127.39 32.8478Z" fill="white"/>
<path d="M152.642 31.208H150.45L149.314 28.072H144.69L143.506 31.208H141.314L145.778 19.24H148.274L152.642 31.208ZM148.658 26.296L147.026 21.816L145.346 26.296H148.658ZM158.461 29.528C158.824 29.528 159.138 29.4427 159.405 29.272C159.682 29.0907 159.89 28.8347 160.029 28.504C160.178 28.1627 160.253 27.768 160.253 27.32C160.253 26.872 160.178 26.4827 160.029 26.152C159.89 25.8107 159.682 25.5493 159.405 25.368C159.138 25.1867 158.824 25.096 158.461 25.096C158.109 25.096 157.784 25.1973 157.485 25.4C157.197 25.592 156.968 25.8587 156.797 26.2C156.626 26.5413 156.541 26.9147 156.541 27.32C156.541 27.7253 156.626 28.0987 156.797 28.44C156.968 28.7813 157.197 29.048 157.485 29.24C157.784 29.432 158.109 29.528 158.461 29.528ZM158.685 23.4C159.4 23.4 160.029 23.5707 160.573 23.912C161.128 24.2427 161.554 24.7067 161.853 25.304C162.162 25.8907 162.317 26.5627 162.317 27.32C162.317 28.088 162.162 28.7707 161.853 29.368C161.554 29.9547 161.128 30.4133 160.573 30.744C160.029 31.0747 159.4 31.24 158.685 31.24C158.504 31.24 158.285 31.208 158.029 31.144C157.773 31.08 157.506 30.9627 157.229 30.792C156.952 30.6213 156.712 30.392 156.509 30.104L156.541 29.832V34.568H154.477V23.416H156.541V24.744L156.509 24.536C156.797 24.1413 157.154 23.8533 157.581 23.672C158.018 23.4907 158.386 23.4 158.685 23.4ZM168.039 29.528C168.402 29.528 168.717 29.4427 168.983 29.272C169.261 29.0907 169.469 28.8347 169.607 28.504C169.757 28.1627 169.831 27.768 169.831 27.32C169.831 26.872 169.757 26.4827 169.607 26.152C169.469 25.8107 169.261 25.5493 168.983 25.368C168.717 25.1867 168.402 25.096 168.039 25.096C167.687 25.096 167.362 25.1973 167.063 25.4C166.775 25.592 166.546 25.8587 166.375 26.2C166.205 26.5413 166.119 26.9147 166.119 27.32C166.119 27.7253 166.205 28.0987 166.375 28.44C166.546 28.7813 166.775 29.048 167.063 29.24C167.362 29.432 167.687 29.528 168.039 29.528ZM168.263 23.4C168.978 23.4 169.607 23.5707 170.151 23.912C170.706 24.2427 171.133 24.7067 171.431 25.304C171.741 25.8907 171.895 26.5627 171.895 27.32C171.895 28.088 171.741 28.7707 171.431 29.368C171.133 29.9547 170.706 30.4133 170.151 30.744C169.607 31.0747 168.978 31.24 168.263 31.24C168.082 31.24 167.863 31.208 167.607 31.144C167.351 31.08 167.085 30.9627 166.807 30.792C166.53 30.6213 166.29 30.392 166.087 30.104L166.119 29.832V34.568H164.055V23.416H166.119V24.744L166.087 24.536C166.375 24.1413 166.733 23.8533 167.159 23.672C167.597 23.4907 167.965 23.4 168.263 23.4ZM175.457 19.656V31.208H173.393V19.656H175.457ZM180.744 31.24C180.008 31.24 179.352 31.0747 178.776 30.744C178.21 30.4133 177.768 29.9547 177.448 29.368C177.128 28.7707 176.968 28.0987 176.968 27.352C176.968 26.584 177.128 25.9067 177.448 25.32C177.768 24.7227 178.21 24.2587 178.776 23.928C179.352 23.5973 180.008 23.432 180.744 23.432C181.714 23.432 182.45 23.6667 182.952 24.136C183.453 24.6053 183.8 25.0587 183.992 25.496L184.008 25.528C184.189 25.9227 184.296 26.3333 184.328 26.76C184.36 27.1867 184.365 27.5867 184.344 27.96V28.088H178.936C179 28.3653 179.122 28.616 179.304 28.84C179.485 29.0533 179.704 29.224 179.96 29.352C180.216 29.4693 180.477 29.528 180.744 29.528C181.192 29.528 181.549 29.448 181.816 29.288C182.082 29.128 182.274 28.952 182.392 28.76L182.424 28.712L184.104 29.384C183.89 29.896 183.496 30.3333 182.92 30.696C182.344 31.0587 181.618 31.24 180.744 31.24ZM182.44 26.696C182.376 26.3867 182.274 26.1147 182.136 25.88C181.997 25.6453 181.81 25.464 181.576 25.336C181.341 25.208 181.064 25.144 180.744 25.144C180.285 25.144 179.89 25.288 179.56 25.576C179.24 25.8533 179.032 26.2267 178.936 26.696H182.44ZM198.828 29.064V30.776H185.788V29.064H198.828ZM193.356 26.36V29.752H191.228V26.36H193.356ZM197.372 18.872V23.704H189.388V26.088H187.276V22.04H195.26V20.552H187.26V18.872H197.372ZM197.692 25.256V26.952H187.276V25.256H197.692ZM216.499 29.064V30.776H203.459V29.064H216.499ZM211.027 26.36V29.752H208.899V26.36H211.027ZM215.043 18.872V23.704H207.059V26.088H204.947V22.04H212.931V20.552H204.931V18.872H215.043ZM215.363 25.256V26.952H204.947V25.256H215.363ZM227.892 19.256V20.936H218.772V19.256H227.892ZM230.468 28.776V30.504H217.444V28.776H230.468ZM228.884 19.256V21C228.884 22.3333 228.852 23.496 228.788 24.488C228.735 25.4693 228.596 26.616 228.372 27.928L226.244 27.736C226.468 26.52 226.607 25.4267 226.66 24.456C226.724 23.4747 226.756 22.3227 226.756 21V19.256H228.884ZM243.396 17.976V28.296H241.268V17.976H243.396ZM243.748 30.424V32.12H233.78V30.424H243.748ZM235.908 27.272V31.112H233.78V27.272H235.908ZM235.54 18.872C236.276 18.872 236.943 19.0267 237.54 19.336C238.138 19.6453 238.607 20.0827 238.948 20.648C239.3 21.2133 239.476 21.8427 239.476 22.536C239.476 23.2293 239.3 23.8587 238.948 24.424C238.607 24.9787 238.138 25.416 237.54 25.736C236.943 26.0453 236.276 26.2 235.54 26.2C234.815 26.2 234.154 26.0453 233.556 25.736C232.959 25.416 232.484 24.9787 232.132 24.424C231.791 23.8587 231.62 23.2293 231.62 22.536C231.62 21.8427 231.791 21.2187 232.132 20.664C232.484 20.0987 232.959 19.6613 233.556 19.352C234.154 19.032 234.815 18.872 235.54 18.872ZM235.54 20.712C235.188 20.712 234.874 20.7867 234.596 20.936C234.319 21.0747 234.1 21.2827 233.94 21.56C233.78 21.8373 233.7 22.1627 233.7 22.536C233.7 22.9093 233.78 23.2347 233.94 23.512C234.1 23.7787 234.319 23.9867 234.596 24.136C234.874 24.2747 235.188 24.344 235.54 24.344C235.892 24.344 236.207 24.2747 236.484 24.136C236.762 23.9867 236.98 23.7787 237.14 23.512C237.311 23.2347 237.396 22.9093 237.396 22.536C237.396 22.1627 237.316 21.8373 237.156 21.56C236.996 21.2827 236.772 21.0747 236.484 20.936C236.207 20.7867 235.892 20.712 235.54 20.712Z" fill="white"/>
</svg>
