<svg width="21" height="24" viewBox="0 0 21 24" fill="none" xmlns="http://www.w3.org/2000/svg">
<path fill-rule="evenodd" clip-rule="evenodd" d="M15.604 2.21083C15.8285 1.65446 15.9407 1.08346 15.9407 0.497804C15.9407 0.419717 15.9359 0.33675 15.9261 0.248902C15.9163 0.161054 15.9115 0.0780872 15.9115 0C15.5991 0.0195217 15.2868 0.0732062 14.9744 0.161054C14.6621 0.248902 14.3302 0.380673 13.9788 0.556369C13.6469 0.712543 13.3395 0.897998 13.0564 1.11274C12.7733 1.32748 12.5244 1.56174 12.3097 1.81552C11.8607 2.30357 11.5191 2.84041 11.2848 3.42606C11.0506 4.01172 10.9334 4.59736 10.9334 5.18302V5.40264C10.9334 5.47096 10.9432 5.54417 10.9627 5.62225C11.646 5.68082 12.2951 5.54417 12.91 5.2123C13.5249 4.88043 14.0959 4.41191 14.623 3.80674C15.0525 3.29917 15.3795 2.76721 15.604 2.21083ZM19.8901 19.7252C20.1049 19.3445 20.3001 18.9395 20.4758 18.51C20.5539 18.3343 20.6271 18.1537 20.6954 17.9683C20.7637 17.7828 20.8272 17.6022 20.8857 17.4265C20.5929 17.2899 20.3099 17.1337 20.0365 16.958C19.7632 16.7823 19.4997 16.5773 19.2459 16.3431C18.7188 15.8355 18.3138 15.2694 18.0307 14.6447C17.7476 14.02 17.6061 13.327 17.6061 12.5656C17.6061 11.5895 17.8257 10.7208 18.2649 9.95948C18.7042 9.19813 19.3728 8.55392 20.2708 8.02683C19.7632 7.30452 19.1337 6.74816 18.3821 6.35772C17.6305 5.96729 16.7569 5.73303 15.7613 5.65494C15.3904 5.6159 14.9804 5.63542 14.5314 5.71351C14.0824 5.79159 13.5944 5.92825 13.0673 6.12346C12.5012 6.3382 12.0522 6.49438 11.7203 6.59199C11.3884 6.68959 11.1737 6.7384 11.0761 6.7384C10.9394 6.7384 10.7198 6.69447 10.4172 6.60663C10.1146 6.51878 9.73884 6.38701 9.28984 6.21131C8.82132 6.03562 8.39672 5.90384 8.01605 5.816C7.63537 5.72815 7.29863 5.68423 7.0058 5.68423C6.47871 5.70375 5.97603 5.78183 5.49775 5.91849C5.01946 6.05514 4.54607 6.26011 4.07754 6.53342C3.62854 6.7872 3.22835 7.09955 2.87696 7.47046C2.52556 7.84138 2.21322 8.25133 1.93991 8.70033C1.58852 9.28598 1.32498 9.92043 1.14929 10.6037C0.973589 11.287 0.885742 12.0288 0.885742 12.8292C0.885742 13.5124 0.949187 14.2152 1.07608 14.9375C1.20297 15.6598 1.39331 16.3919 1.64709 17.1337C1.90087 17.817 2.17905 18.4612 2.48164 19.0664C2.78423 19.6715 3.12098 20.2279 3.49189 20.7355C3.82376 21.2235 4.13611 21.6383 4.42893 21.98C4.72176 22.3216 4.97554 22.5998 5.19028 22.8145C5.56119 23.1464 5.92722 23.3904 6.28838 23.5466C6.64953 23.7028 7.0058 23.7711 7.35719 23.7516C7.59145 23.7516 7.86475 23.7077 8.1771 23.6198C8.48945 23.532 8.84084 23.4099 9.23128 23.2538C9.62171 23.0976 9.99262 22.9854 10.344 22.917C10.6954 22.8487 11.0468 22.8145 11.3982 22.8145C11.7105 22.8145 12.0424 22.8487 12.3938 22.917C12.7452 22.9854 13.1063 23.0976 13.4772 23.2538C13.8677 23.4099 14.224 23.5271 14.5461 23.6052C14.8682 23.6833 15.1659 23.7223 15.4392 23.7223C15.8101 23.7223 16.1761 23.6442 16.5373 23.488C16.8984 23.3319 17.2352 23.1074 17.5475 22.8145C17.7623 22.6193 18.0063 22.3558 18.2796 22.0239C18.5529 21.692 18.8555 21.2918 19.1874 20.8233C19.4411 20.4719 19.6754 20.1059 19.8901 19.7252Z" fill="#070707"/>
</svg>
