<svg width="22" height="24" viewBox="0 0 22 24" fill="none" xmlns="http://www.w3.org/2000/svg">
<g clip-path="url(#clip0_2290_2423)">
<path fill-rule="evenodd" clip-rule="evenodd" d="M21.1898 12.2469C21.1898 11.4568 21.1182 10.7038 20.999 9.97551H10.8857V14.2714H16.6579C16.4075 15.654 15.6561 16.839 14.5112 17.6291V20.4189H17.9817C20.0091 18.4808 21.1779 15.6416 21.1779 12.2469H21.1898Z" fill="#4285F4"/>
<path fill-rule="evenodd" clip-rule="evenodd" d="M10.8859 23.11C13.7839 23.11 16.2168 22.1101 17.9937 20.4189L14.5233 17.6291C13.5573 18.2957 12.3289 18.6907 10.8859 18.6907C8.09518 18.6907 5.72191 16.7403 4.87516 14.1109H1.29736V16.9872C3.06241 20.6164 6.68791 23.11 10.8859 23.11Z" fill="#34A853"/>
<path fill-rule="evenodd" clip-rule="evenodd" d="M4.87504 14.1109C4.66037 13.4443 4.54111 12.7283 4.54111 12C4.54111 11.2717 4.66037 10.5557 4.87504 9.8891V7.01284H1.29724C0.569753 8.51887 0.152344 10.2101 0.152344 12C0.152344 13.7899 0.569753 15.4935 1.29724 16.9872L4.88696 14.1109H4.87504Z" fill="#FBBC05"/>
<path fill-rule="evenodd" clip-rule="evenodd" d="M10.8859 5.30931C12.4601 5.30931 13.8793 5.86481 14.9884 6.97581L18.0653 3.79094C16.2048 2.001 13.7719 0.902344 10.8859 0.902344C6.68791 0.889999 3.06241 3.38358 1.29736 7.01284L4.88709 9.8891C5.73383 7.25973 8.09518 5.30931 10.8978 5.30931H10.8859Z" fill="#EA4335"/>
</g>
<defs>
<clipPath id="clip0_2290_2423">
<rect width="21.4668" height="22.22" fill="white" transform="translate(0.152344 0.889999)"/>
</clipPath>
</defs>
</svg>
