<svg width="354" height="50" viewBox="0 0 354 50" fill="none" xmlns="http://www.w3.org/2000/svg">
<rect x="0.685742" y="0.3" width="352.4" height="49.4" rx="9.7" fill="white"/>
<rect x="0.685742" y="0.3" width="352.4" height="49.4" rx="9.7" stroke="#DDDDDD" stroke-width="0.6"/>
<g clip-path="url(#clip0_2290_2393)">
<path fill-rule="evenodd" clip-rule="evenodd" d="M137.19 25.2469C137.19 24.4568 137.118 23.7038 136.999 22.9755H126.886V27.2714H132.658C132.407 28.654 131.656 29.839 130.511 30.6291V33.4189H133.982C136.009 31.4808 137.178 28.6416 137.178 25.2469H137.19Z" fill="#4285F4"/>
<path fill-rule="evenodd" clip-rule="evenodd" d="M126.886 36.11C129.784 36.11 132.217 35.1101 133.994 33.4189L130.523 30.6291C129.557 31.2957 128.329 31.6907 126.886 31.6907C124.095 31.6907 121.722 29.7403 120.875 27.1109H117.297V29.9872C119.062 33.6164 122.688 36.11 126.886 36.11Z" fill="#34A853"/>
<path fill-rule="evenodd" clip-rule="evenodd" d="M120.875 27.1109C120.66 26.4443 120.541 25.7283 120.541 25C120.541 24.2717 120.66 23.5557 120.875 22.8891V20.0128H117.297C116.57 21.5189 116.152 23.2101 116.152 25C116.152 26.7899 116.57 28.4935 117.297 29.9872L120.887 27.1109H120.875Z" fill="#FBBC05"/>
<path fill-rule="evenodd" clip-rule="evenodd" d="M126.886 18.3093C128.46 18.3093 129.879 18.8648 130.988 19.9758L134.065 16.7909C132.205 15.001 129.772 13.9023 126.886 13.9023C122.688 13.89 119.062 16.3836 117.297 20.0128L120.887 22.8891C121.734 20.2597 124.095 18.3093 126.898 18.3093H126.886Z" fill="#EA4335"/>
</g>
<path d="M160.611 18.792V20.488H151.587V18.792H160.611ZM163.123 24.92V26.648H150.099V24.92H163.123ZM157.619 26.136V32.392H155.475V26.136H157.619ZM161.619 18.792V20.072C161.619 21.1493 161.587 22.1147 161.523 22.968C161.459 23.8213 161.304 24.8187 161.059 25.96L158.963 25.704C159.208 24.648 159.363 23.7093 159.427 22.888C159.491 22.056 159.523 21.1173 159.523 20.072V18.792H161.619ZM174.788 18.52V20.232H165.684V18.52H174.788ZM177.124 23.016V24.696H164.084V23.016H177.124ZM175.604 18.52V19.528C175.604 20.2533 175.582 20.92 175.54 21.528C175.497 22.1253 175.396 22.792 175.236 23.528L173.14 23.32C173.3 22.6053 173.401 21.9707 173.444 21.416C173.486 20.8507 173.508 20.2213 173.508 19.528V18.52H175.604ZM175.572 25.64V29.72H167.668V31.144H165.556V28.168H173.444V27.272H165.524V25.64H175.572ZM175.94 30.632V32.296H165.556V30.632H175.94ZM191.108 29.064V30.776H178.068V29.064H191.108ZM185.636 26.36V29.752H183.508V26.36H185.636ZM189.652 18.872V23.704H181.668V26.088H179.556V22.04H187.54V20.552H179.54V18.872H189.652ZM189.972 25.256V26.952H179.556V25.256H189.972ZM208.78 29.064V30.776H195.74V29.064H208.78ZM203.308 26.36V29.752H201.18V26.36H203.308ZM207.324 18.872V23.704H199.34V26.088H197.228V22.04H205.212V20.552H197.212V18.872H207.324ZM207.644 25.256V26.952H197.228V25.256H207.644ZM220.172 19.256V20.936H211.052V19.256H220.172ZM222.748 28.776V30.504H209.724V28.776H222.748ZM221.164 19.256V21C221.164 22.3333 221.132 23.496 221.068 24.488C221.015 25.4693 220.876 26.616 220.652 27.928L218.524 27.736C218.748 26.52 218.887 25.4267 218.94 24.456C219.004 23.4747 219.036 22.3227 219.036 21V19.256H221.164ZM235.677 17.976V28.296H233.549V17.976H235.677ZM236.029 30.424V32.12H226.061V30.424H236.029ZM228.189 27.272V31.112H226.061V27.272H228.189ZM227.821 18.872C228.557 18.872 229.223 19.0267 229.821 19.336C230.418 19.6453 230.887 20.0827 231.229 20.648C231.581 21.2133 231.757 21.8427 231.757 22.536C231.757 23.2293 231.581 23.8587 231.229 24.424C230.887 24.9787 230.418 25.416 229.821 25.736C229.223 26.0453 228.557 26.2 227.821 26.2C227.095 26.2 226.434 26.0453 225.837 25.736C225.239 25.416 224.765 24.9787 224.413 24.424C224.071 23.8587 223.901 23.2293 223.901 22.536C223.901 21.8427 224.071 21.2187 224.413 20.664C224.765 20.0987 225.239 19.6613 225.837 19.352C226.434 19.032 227.095 18.872 227.821 18.872ZM227.821 20.712C227.469 20.712 227.154 20.7867 226.877 20.936C226.599 21.0747 226.381 21.2827 226.221 21.56C226.061 21.8373 225.981 22.1627 225.981 22.536C225.981 22.9093 226.061 23.2347 226.221 23.512C226.381 23.7787 226.599 23.9867 226.877 24.136C227.154 24.2747 227.469 24.344 227.821 24.344C228.173 24.344 228.487 24.2747 228.765 24.136C229.042 23.9867 229.261 23.7787 229.421 23.512C229.591 23.2347 229.677 22.9093 229.677 22.536C229.677 22.1627 229.597 21.8373 229.437 21.56C229.277 21.2827 229.053 21.0747 228.765 20.936C228.487 20.7867 228.173 20.712 227.821 20.712Z" fill="black"/>
<defs>
<clipPath id="clip0_2290_2393">
<rect width="21.4668" height="22.22" fill="white" transform="translate(116.152 13.89)"/>
</clipPath>
</defs>
</svg>
