<svg width="354" height="50" viewBox="0 0 354 50" fill="none" xmlns="http://www.w3.org/2000/svg">
<rect x="0.385742" width="353" height="50" rx="10" fill="#F9E000"/>
<path d="M119.886 15.8132C114.363 15.8132 109.886 19.3517 109.886 23.7192C109.886 26.561 111.782 29.0515 114.629 30.445C114.419 31.2249 113.872 33.2736 113.762 33.7116C113.626 34.2554 113.961 34.2479 114.181 34.1025C114.353 33.9873 116.921 32.2407 118.03 31.4873C118.632 31.5761 119.251 31.6233 119.886 31.6233C125.409 31.6233 129.886 28.0847 129.886 23.7192C129.886 19.3536 125.409 15.8132 119.886 15.8132Z" fill="#371C1D"/>
<path d="M112.909 22.2634H113.938C113.938 22.2634 113.944 25.09 113.938 25.749C113.938 26.2305 115.009 26.2362 115.007 25.7566L115.01 22.3011C115.01 22.3011 115.356 22.303 116.034 22.303C116.674 22.303 116.674 21.2966 116.034 21.2966C115.313 21.2966 112.903 21.2758 112.903 21.2758C112.299 21.2758 112.301 22.2634 112.903 22.2634" fill="#F9E000"/>
<mask id="mask0_2012_398" style="mask-type:luminance" maskUnits="userSpaceOnUse" x="112" y="21" width="5" height="6">
<path d="M112.909 22.2634H113.938C113.938 22.2634 113.944 25.09 113.938 25.749C113.938 26.2305 115.009 26.2362 115.007 25.7566L115.01 22.3011C115.01 22.3011 115.356 22.303 116.034 22.303C116.674 22.303 116.674 21.2966 116.034 21.2966C115.313 21.2966 112.903 21.2758 112.903 21.2758C112.299 21.2758 112.301 22.2634 112.903 22.2634" fill="white"/>
</mask>
<g mask="url(#mask0_2012_398)">
<path d="M116.678 21.2758H112.305V26.2362H116.678V21.2758Z" fill="#F9E000"/>
</g>
<path d="M117.835 22.4446L118.407 24.2384H117.214L117.835 22.4446ZM117.193 21.6044C116.94 22.1614 116.024 24.7955 115.722 25.4941C115.503 25.9983 116.449 26.4099 116.668 25.9057L116.874 25.1863H118.756C118.756 25.1863 118.692 25.2165 118.942 25.8755C119.144 26.4099 120.122 26.0398 119.92 25.5054C119.631 24.7426 118.63 21.9933 118.447 21.6044C118.364 21.425 118.062 21.2947 117.769 21.2947C117.527 21.2947 117.291 21.3835 117.191 21.6044" fill="#F9E000"/>
<mask id="mask1_2012_398" style="mask-type:luminance" maskUnits="userSpaceOnUse" x="115" y="21" width="5" height="6">
<path d="M117.835 22.4446L118.407 24.2384H117.214L117.835 22.4446ZM117.193 21.6044C116.94 22.1614 116.024 24.7955 115.722 25.4941C115.503 25.9983 116.449 26.4099 116.668 25.9057L116.874 25.1863H118.756C118.756 25.1863 118.692 25.2165 118.942 25.8755C119.144 26.4099 120.122 26.0398 119.92 25.5054C119.631 24.7426 118.63 21.9933 118.447 21.6044C118.364 21.425 118.062 21.2947 117.769 21.2947C117.527 21.2947 117.291 21.3835 117.191 21.6044" fill="white"/>
</mask>
<g mask="url(#mask1_2012_398)">
<path d="M120.124 21.2966H115.501V26.4137H120.124V21.2966Z" fill="#F9E000"/>
</g>
<path d="M120.282 21.7687C120.282 22.6637 120.288 25.5489 120.288 25.5489C120.288 25.5489 120.205 26.1229 120.698 26.1229C121.19 26.1229 122.28 26.1172 122.763 26.1172C123.247 26.1172 123.245 25.0881 122.761 25.0881C122.278 25.0881 121.394 25.0825 121.394 25.0825C121.394 25.0825 121.398 22.4144 121.396 21.7649C121.396 21.4514 121.117 21.2947 120.839 21.2947C120.562 21.2947 120.28 21.4533 120.282 21.7668" fill="#F9E000"/>
<mask id="mask2_2012_398" style="mask-type:luminance" maskUnits="userSpaceOnUse" x="120" y="21" width="4" height="6">
<path d="M120.282 21.7687C120.282 22.6637 120.288 25.5489 120.288 25.5489C120.288 25.5489 120.205 26.1229 120.698 26.1229C121.19 26.1229 122.28 26.1172 122.763 26.1172C123.247 26.1172 123.245 25.0881 122.761 25.0881C122.278 25.0881 121.394 25.0825 121.394 25.0825C121.394 25.0825 121.398 22.4144 121.396 21.7649C121.396 21.4514 121.117 21.2947 120.839 21.2947C120.562 21.2947 120.28 21.4533 120.282 21.7668" fill="white"/>
</mask>
<g mask="url(#mask2_2012_398)">
<path d="M123.247 21.2966H120.205V26.1229H123.247V21.2966Z" fill="#F9E000"/>
</g>
<path d="M123.375 21.627C123.386 22.0198 123.362 25.5696 123.362 25.8321C123.362 26.2475 124.419 26.2456 124.419 25.8321C124.419 25.3506 124.419 24.4348 124.419 24.4348L124.729 24.1856L126.087 26.036C126.36 26.3986 127.223 25.7433 126.949 25.3827L125.509 23.485C125.509 23.485 126.487 22.4276 126.872 22.0443C127.097 21.8215 126.4 21.1191 126.175 21.3438C125.958 21.5591 124.425 23.0942 124.425 23.0942C124.425 23.0942 124.438 22.1312 124.425 21.5987C124.419 21.3967 124.172 21.2985 123.917 21.2985C123.645 21.2985 123.367 21.4099 123.373 21.627" fill="#F9E000"/>
<mask id="mask3_2012_398" style="mask-type:luminance" maskUnits="userSpaceOnUse" x="123" y="21" width="5" height="6">
<path d="M123.375 21.627C123.386 22.0198 123.362 25.5696 123.362 25.8321C123.362 26.2475 124.419 26.2456 124.419 25.8321C124.419 25.3506 124.419 24.4348 124.419 24.4348L124.729 24.1856L126.087 26.036C126.36 26.3986 127.223 25.7433 126.949 25.3827L125.509 23.485C125.509 23.485 126.487 22.4276 126.872 22.0443C127.097 21.8215 126.4 21.1191 126.175 21.3438C125.958 21.5591 124.425 23.0942 124.425 23.0942C124.425 23.0942 124.438 22.1312 124.425 21.5987C124.419 21.3967 124.172 21.2985 123.917 21.2985C123.645 21.2985 123.367 21.4099 123.373 21.627" fill="white"/>
</mask>
<g mask="url(#mask3_2012_398)">
<path d="M127.223 21.121H123.362V26.4004H127.223V21.121Z" fill="#F9E000"/>
</g>
<path d="M149.822 19.32C149.822 20.9733 149.651 22.44 149.31 23.72C148.968 24.9893 148.328 26.1787 147.39 27.288C146.462 28.3867 145.139 29.3733 143.422 30.248L142.286 28.616C143.736 27.88 144.856 27.08 145.646 26.216C146.446 25.3413 146.995 24.3813 147.294 23.336C147.603 22.2907 147.758 21.048 147.758 19.608V19.32H149.822ZM149.006 19.32V21.016H143.182V19.32H149.006ZM147.822 24.488L142.686 24.984L142.43 23.176L147.822 22.872V24.488ZM153.662 17.944V32.344H151.518V17.944H153.662ZM155.646 23.432V25.176H153.118V23.432H155.646ZM163.806 19.32C163.806 20.9733 163.635 22.44 163.294 23.72C162.953 24.9893 162.313 26.1787 161.374 27.288C160.446 28.3867 159.123 29.3733 157.406 30.248L156.27 28.616C157.721 27.88 158.841 27.08 159.63 26.216C160.43 25.3413 160.979 24.3813 161.278 23.336C161.587 22.2907 161.742 21.048 161.742 19.608V19.32H163.806ZM162.99 19.32V21.016H157.166V19.32H162.99ZM161.806 24.488L156.67 24.984L156.414 23.176L161.806 22.872V24.488ZM167.646 17.944V32.344H165.502V17.944H167.646ZM169.63 23.432V25.176H167.102V23.432H169.63ZM177.902 26.04V29.304H175.774V26.04H177.902ZM176.83 18.664C177.865 18.664 178.788 18.8293 179.598 19.16C180.42 19.4907 181.065 19.96 181.534 20.568C182.004 21.1653 182.238 21.8587 182.238 22.648C182.238 23.448 182.004 24.152 181.534 24.76C181.065 25.3573 180.42 25.8213 179.598 26.152C178.788 26.4827 177.865 26.648 176.83 26.648C175.817 26.648 174.9 26.4827 174.078 26.152C173.257 25.8213 172.612 25.3573 172.142 24.76C171.684 24.152 171.454 23.448 171.454 22.648C171.454 21.8587 171.684 21.1653 172.142 20.568C172.612 19.96 173.257 19.4907 174.078 19.16C174.9 18.8293 175.817 18.664 176.83 18.664ZM176.83 20.344C176.19 20.344 175.62 20.44 175.118 20.632C174.628 20.8133 174.244 21.08 173.966 21.432C173.689 21.7733 173.55 22.1787 173.55 22.648C173.55 23.128 173.689 23.544 173.966 23.896C174.244 24.2373 174.628 24.4987 175.118 24.68C175.62 24.8613 176.19 24.952 176.83 24.952C177.481 24.952 178.057 24.8613 178.558 24.68C179.06 24.4987 179.444 24.2373 179.71 23.896C179.988 23.544 180.126 23.128 180.126 22.648C180.126 22.1787 179.988 21.7733 179.71 21.432C179.444 21.08 179.06 20.8133 178.558 20.632C178.057 20.44 177.481 20.344 176.83 20.344ZM183.374 28.968V30.696H170.334V28.968H183.374ZM197.359 29.064V30.776H184.319V29.064H197.359ZM191.887 26.36V29.752H189.759V26.36H191.887ZM195.903 18.872V23.704H187.919V26.088H185.807V22.04H193.791V20.552H185.791V18.872H195.903ZM196.223 25.256V26.952H185.807V25.256H196.223ZM215.031 29.064V30.776H201.991V29.064H215.031ZM209.559 26.36V29.752H207.431V26.36H209.559ZM213.575 18.872V23.704H205.591V26.088H203.479V22.04H211.463V20.552H203.463V18.872H213.575ZM213.895 25.256V26.952H203.479V25.256H213.895ZM226.423 19.256V20.936H217.303V19.256H226.423ZM228.999 28.776V30.504H215.975V28.776H228.999ZM227.415 19.256V21C227.415 22.3333 227.383 23.496 227.319 24.488C227.266 25.4693 227.127 26.616 226.903 27.928L224.775 27.736C224.999 26.52 225.138 25.4267 225.191 24.456C225.255 23.4747 225.287 22.3227 225.287 21V19.256H227.415ZM241.927 17.976V28.296H239.799V17.976H241.927ZM242.279 30.424V32.12H232.311V30.424H242.279ZM234.439 27.272V31.112H232.311V27.272H234.439ZM234.071 18.872C234.807 18.872 235.474 19.0267 236.071 19.336C236.669 19.6453 237.138 20.0827 237.479 20.648C237.831 21.2133 238.007 21.8427 238.007 22.536C238.007 23.2293 237.831 23.8587 237.479 24.424C237.138 24.9787 236.669 25.416 236.071 25.736C235.474 26.0453 234.807 26.2 234.071 26.2C233.346 26.2 232.685 26.0453 232.087 25.736C231.49 25.416 231.015 24.9787 230.663 24.424C230.322 23.8587 230.151 23.2293 230.151 22.536C230.151 21.8427 230.322 21.2187 230.663 20.664C231.015 20.0987 231.49 19.6613 232.087 19.352C232.685 19.032 233.346 18.872 234.071 18.872ZM234.071 20.712C233.719 20.712 233.405 20.7867 233.127 20.936C232.85 21.0747 232.631 21.2827 232.471 21.56C232.311 21.8373 232.231 22.1627 232.231 22.536C232.231 22.9093 232.311 23.2347 232.471 23.512C232.631 23.7787 232.85 23.9867 233.127 24.136C233.405 24.2747 233.719 24.344 234.071 24.344C234.423 24.344 234.738 24.2747 235.015 24.136C235.293 23.9867 235.511 23.7787 235.671 23.512C235.842 23.2347 235.927 22.9093 235.927 22.536C235.927 22.1627 235.847 21.8373 235.687 21.56C235.527 21.2827 235.303 21.0747 235.015 20.936C234.738 20.7867 234.423 20.712 234.071 20.712Z" fill="black"/>
</svg>
