<svg width="25" height="24" viewBox="0 0 25 24" fill="none" xmlns="http://www.w3.org/2000/svg">
<g clip-path="url(#clip0_2032_885)">
<path d="M24.8857 0H0.885742V24H24.8857V0Z" fill="#F9E000"/>
<path d="M12.8623 4.40121C8.10139 4.40121 4.24219 7.45147 4.24219 11.2163C4.24219 13.6659 5.87637 15.8128 8.3309 17.014C8.15022 17.6863 7.6782 19.4523 7.58379 19.8299C7.4666 20.2987 7.7547 20.2922 7.94514 20.1668C8.09326 20.0675 10.3069 18.5619 11.2623 17.9125C11.7816 17.989 12.3154 18.0297 12.8623 18.0297C17.6233 18.0297 21.4825 14.9794 21.4825 11.2163C21.4825 7.4531 17.6233 4.40121 12.8623 4.40121Z" fill="#371C1D"/>
<path d="M6.84804 9.96135H7.73512C7.73512 9.96135 7.74 12.398 7.73512 12.966C7.73512 13.3811 8.65801 13.386 8.65638 12.9725L8.65964 9.9939C8.65964 9.9939 8.9575 9.99553 9.54183 9.99553C10.0936 9.99553 10.0936 9.12798 9.54183 9.12798C8.92006 9.12798 6.84316 9.11008 6.84316 9.11008C6.3223 9.11008 6.32393 9.96135 6.84316 9.96135" fill="#F9E000"/>
<mask id="mask0_2032_885" style="mask-type:luminance" maskUnits="userSpaceOnUse" x="6" y="9" width="4" height="5">
<path d="M6.84804 9.96135H7.73512C7.73512 9.96135 7.74 12.398 7.73512 12.966C7.73512 13.3811 8.65801 13.386 8.65638 12.9725L8.65964 9.9939C8.65964 9.9939 8.9575 9.99553 9.54183 9.99553C10.0936 9.99553 10.0936 9.12798 9.54183 9.12798C8.92006 9.12798 6.84316 9.11008 6.84316 9.11008C6.3223 9.11008 6.32393 9.96135 6.84316 9.96135" fill="white"/>
</mask>
<g mask="url(#mask0_2032_885)">
<path d="M10.0963 9.11008H6.32666V13.386H10.0963V9.11008Z" fill="#F9E000"/>
</g>
<path d="M11.0942 10.1176L11.5873 11.6639H10.5587L11.0942 10.1176ZM10.5407 9.39328C10.3226 9.87344 9.53322 12.144 9.27279 12.7463C9.08398 13.1809 9.89944 13.5357 10.0883 13.1011L10.2657 12.481H11.8885C11.8885 12.481 11.8331 12.507 12.048 13.0751C12.2221 13.5357 13.0653 13.2167 12.8911 12.756C12.6421 12.0985 11.7794 9.72858 11.6215 9.39328C11.5499 9.23865 11.2895 9.12634 11.0372 9.12634C10.8288 9.12634 10.6254 9.20284 10.5391 9.39328" fill="#F9E000"/>
<mask id="mask1_2032_885" style="mask-type:luminance" maskUnits="userSpaceOnUse" x="9" y="9" width="4" height="5">
<path d="M11.0942 10.1176L11.5873 11.6639H10.5587L11.0942 10.1176ZM10.5407 9.39328C10.3226 9.87344 9.53322 12.144 9.27279 12.7463C9.08398 13.1809 9.89944 13.5357 10.0883 13.1011L10.2657 12.481H11.8885C11.8885 12.481 11.8331 12.507 12.048 13.0751C12.2221 13.5357 13.0653 13.2167 12.8911 12.756C12.6421 12.0985 11.7794 9.72858 11.6215 9.39328C11.5499 9.23865 11.2895 9.12634 11.0372 9.12634C10.8288 9.12634 10.6254 9.20284 10.5391 9.39328" fill="white"/>
</mask>
<g mask="url(#mask1_2032_885)">
<path d="M13.0671 9.12796H9.08252V13.5389H13.0671V9.12796Z" fill="#F9E000"/>
</g>
<path d="M13.2036 9.53489C13.2036 10.3064 13.2085 12.7935 13.2085 12.7935C13.2085 12.7935 13.1369 13.2883 13.5617 13.2883C13.9865 13.2883 14.9257 13.2834 15.3424 13.2834C15.7591 13.2834 15.7574 12.3963 15.3408 12.3963C14.9241 12.3963 14.1623 12.3914 14.1623 12.3914C14.1623 12.3914 14.1656 10.0916 14.1639 9.53163C14.1639 9.26144 13.9231 9.12634 13.6838 9.12634C13.4445 9.12634 13.202 9.26307 13.2036 9.53326" fill="#F9E000"/>
<mask id="mask2_2032_885" style="mask-type:luminance" maskUnits="userSpaceOnUse" x="13" y="9" width="3" height="5">
<path d="M13.2036 9.53489C13.2036 10.3064 13.2085 12.7935 13.2085 12.7935C13.2085 12.7935 13.1369 13.2883 13.5617 13.2883C13.9865 13.2883 14.9257 13.2834 15.3424 13.2834C15.7591 13.2834 15.7574 12.3963 15.3408 12.3963C14.9241 12.3963 14.1623 12.3914 14.1623 12.3914C14.1623 12.3914 14.1656 10.0916 14.1639 9.53163C14.1639 9.26144 13.9231 9.12634 13.6838 9.12634C13.4445 9.12634 13.202 9.26307 13.2036 9.53326" fill="white"/>
</mask>
<g mask="url(#mask2_2032_885)">
<path d="M15.7594 9.12799H13.1372V13.2883H15.7594V9.12799Z" fill="#F9E000"/>
</g>
<path d="M15.8698 9.41282C15.8796 9.75138 15.8584 12.8114 15.8584 13.0376C15.8584 13.3957 16.7699 13.3941 16.7699 13.0376C16.7699 12.6226 16.7699 11.8332 16.7699 11.8332L17.0368 11.6183L18.2071 13.2134C18.4431 13.5259 19.187 12.9611 18.951 12.6503L17.7091 11.0145C17.7091 11.0145 18.5522 10.103 18.8842 9.77254C19.0779 9.58047 18.4773 8.97498 18.2836 9.16867C18.0964 9.35423 16.7748 10.6775 16.7748 10.6775C16.7748 10.6775 16.7862 9.84741 16.7748 9.38841C16.7699 9.21425 16.5567 9.12961 16.3369 9.12961C16.1025 9.12961 15.8633 9.22564 15.8682 9.41282" fill="#F9E000"/>
<mask id="mask3_2032_885" style="mask-type:luminance" maskUnits="userSpaceOnUse" x="15" y="9" width="4" height="5">
<path d="M15.8698 9.41282C15.8796 9.75138 15.8584 12.8114 15.8584 13.0376C15.8584 13.3957 16.7699 13.3941 16.7699 13.0376C16.7699 12.6226 16.7699 11.8332 16.7699 11.8332L17.0368 11.6183L18.2071 13.2134C18.4431 13.5259 19.187 12.9611 18.951 12.6503L17.7091 11.0145C17.7091 11.0145 18.5522 10.103 18.8842 9.77254C19.0779 9.58047 18.4773 8.97498 18.2836 9.16867C18.0964 9.35423 16.7748 10.6775 16.7748 10.6775C16.7748 10.6775 16.7862 9.84741 16.7748 9.38841C16.7699 9.21425 16.5567 9.12961 16.3369 9.12961C16.1025 9.12961 15.8633 9.22564 15.8682 9.41282" fill="white"/>
</mask>
<g mask="url(#mask3_2032_885)">
<path d="M19.187 8.97659H15.8584V13.5276H19.187V8.97659Z" fill="#F9E000"/>
</g>
</g>
<defs>
<clipPath id="clip0_2032_885">
<rect width="24" height="24" fill="white" transform="translate(0.885742)"/>
</clipPath>
</defs>
</svg>
