<svg width="354" height="50" viewBox="0 0 354 50" fill="none" xmlns="http://www.w3.org/2000/svg">
<rect x="0.385742" width="353" height="50" rx="10" fill="#06BE34"/>
<path d="M129.886 15.8054V34.1946H123.174L116.597 24.9383V34.1946H109.886V15.8054H116.597L123.174 25.4362V15.8054H129.886Z" fill="white"/>
<path d="M144.99 19.336V27.672H142.894V19.336H144.99ZM143.918 27.128C144.899 27.128 145.752 27.1013 146.478 27.048C147.214 26.9947 147.971 26.8933 148.75 26.744L149.022 28.504C148.232 28.6853 147.443 28.8027 146.654 28.856C145.875 28.9093 144.963 28.936 143.918 28.936H142.894V27.128H143.918ZM154.766 17.96V32.36H152.75V17.96H154.766ZM150.158 22.472V24.2H146.894V22.472H150.158ZM151.678 18.2V31.72H149.694V18.2H151.678ZM168.302 17.944V32.392H166.158V17.944H168.302ZM160.526 18.936C161.262 18.936 161.913 19.1493 162.478 19.576C163.054 19.992 163.502 20.5947 163.822 21.384C164.153 22.1627 164.318 23.064 164.318 24.088C164.318 25.1333 164.153 26.0507 163.822 26.84C163.502 27.6187 163.054 28.2213 162.478 28.648C161.913 29.064 161.262 29.272 160.526 29.272C159.801 29.272 159.15 29.064 158.574 28.648C157.998 28.2213 157.545 27.6187 157.214 26.84C156.894 26.0507 156.734 25.1333 156.734 24.088C156.734 23.0533 156.894 22.1467 157.214 21.368C157.545 20.5893 157.998 19.992 158.574 19.576C159.15 19.1493 159.801 18.936 160.526 18.936ZM160.526 20.888C160.174 20.888 159.865 21.0107 159.598 21.256C159.342 21.5013 159.139 21.864 158.99 22.344C158.851 22.824 158.782 23.4053 158.782 24.088C158.782 24.7813 158.851 25.3733 158.99 25.864C159.139 26.344 159.342 26.712 159.598 26.968C159.865 27.2133 160.174 27.336 160.526 27.336C160.878 27.336 161.182 27.2133 161.438 26.968C161.705 26.712 161.907 26.344 162.046 25.864C162.195 25.3733 162.27 24.7813 162.27 24.088C162.27 23.4053 162.195 22.824 162.046 22.344C161.907 21.864 161.705 21.5013 161.438 21.256C161.182 21.0107 160.878 20.888 160.526 20.888ZM182.43 17.944V32.392H180.302V17.944H182.43ZM180.91 23V24.696H177.07V23H180.91ZM172.974 19.08V22.536H175.694V19.08H177.806V29.016H170.846V19.08H172.974ZM172.974 27.32H175.694V24.2H172.974V27.32ZM197.359 29.064V30.776H184.319V29.064H197.359ZM191.887 26.36V29.752H189.759V26.36H191.887ZM195.903 18.872V23.704H187.919V26.088H185.807V22.04H193.791V20.552H185.791V18.872H195.903ZM196.223 25.256V26.952H185.807V25.256H196.223ZM215.031 29.064V30.776H201.991V29.064H215.031ZM209.559 26.36V29.752H207.431V26.36H209.559ZM213.575 18.872V23.704H205.591V26.088H203.479V22.04H211.463V20.552H203.463V18.872H213.575ZM213.895 25.256V26.952H203.479V25.256H213.895ZM226.423 19.256V20.936H217.303V19.256H226.423ZM228.999 28.776V30.504H215.975V28.776H228.999ZM227.415 19.256V21C227.415 22.3333 227.383 23.496 227.319 24.488C227.266 25.4693 227.127 26.616 226.903 27.928L224.775 27.736C224.999 26.52 225.138 25.4267 225.191 24.456C225.255 23.4747 225.287 22.3227 225.287 21V19.256H227.415ZM241.927 17.976V28.296H239.799V17.976H241.927ZM242.279 30.424V32.12H232.311V30.424H242.279ZM234.439 27.272V31.112H232.311V27.272H234.439ZM234.071 18.872C234.807 18.872 235.474 19.0267 236.071 19.336C236.669 19.6453 237.138 20.0827 237.479 20.648C237.831 21.2133 238.007 21.8427 238.007 22.536C238.007 23.2293 237.831 23.8587 237.479 24.424C237.138 24.9787 236.669 25.416 236.071 25.736C235.474 26.0453 234.807 26.2 234.071 26.2C233.346 26.2 232.685 26.0453 232.087 25.736C231.49 25.416 231.015 24.9787 230.663 24.424C230.322 23.8587 230.151 23.2293 230.151 22.536C230.151 21.8427 230.322 21.2187 230.663 20.664C231.015 20.0987 231.49 19.6613 232.087 19.352C232.685 19.032 233.346 18.872 234.071 18.872ZM234.071 20.712C233.719 20.712 233.405 20.7867 233.127 20.936C232.85 21.0747 232.631 21.2827 232.471 21.56C232.311 21.8373 232.231 22.1627 232.231 22.536C232.231 22.9093 232.311 23.2347 232.471 23.512C232.631 23.7787 232.85 23.9867 233.127 24.136C233.405 24.2747 233.719 24.344 234.071 24.344C234.423 24.344 234.738 24.2747 235.015 24.136C235.293 23.9867 235.511 23.7787 235.671 23.512C235.842 23.2347 235.927 22.9093 235.927 22.536C235.927 22.1627 235.847 21.8373 235.687 21.56C235.527 21.2827 235.303 21.0747 235.015 20.936C234.738 20.7867 234.423 20.712 234.071 20.712Z" fill="white"/>
</svg>
