<svg width="43" height="42" viewBox="0 0 43 42" fill="none" xmlns="http://www.w3.org/2000/svg">
<path d="M14.8764 16.4554L12.2759 22.6633C15.6098 26.287 16.4241 27.9788 15.9484 33.3669L21.8072 30.9774C22.1307 27.3571 21.1288 25.5013 18.5308 22.3093C16.7348 20.2562 15.2931 18.0976 14.8764 16.4554Z" fill="#1770C2"/>
<path d="M10.427 26.9801L8.20225 32.2424C8.75244 33.608 8.85464 34.5196 8.61582 36.4169L11.6231 35.1479C12.4145 32.2424 12.1241 29.5622 10.427 26.9801Z" fill="#1770C2"/>
<path d="M14.8764 16.4554C19.379 17.151 27.5673 26.2074 27.0838 28.8016M14.8764 16.4554L12.2759 22.6633M14.8764 16.4554C15.2931 18.0976 16.7348 20.2562 18.5308 22.3093M27.0838 28.8016L21.8072 30.9774M27.0838 28.8016C25.1315 28.5664 21.384 25.571 18.5308 22.3093M10.427 26.9801L12.2759 22.6633M10.427 26.9801L8.20225 32.2424M10.427 26.9801C12.1241 29.5622 12.4145 32.2424 11.6231 35.1479M15.9484 33.3669L21.8072 30.9774M15.9484 33.3669L11.6231 35.1479M15.9484 33.3669C16.4241 27.9788 15.6098 26.287 12.2759 22.6633M21.8072 30.9774C22.1307 27.3571 21.1288 25.5013 18.5308 22.3093M8.20225 32.2424L5.97754 37.5047L8.61582 36.4169M8.20225 32.2424C8.75244 33.608 8.85464 34.5196 8.61582 36.4169M11.6231 35.1479L8.61582 36.4169" stroke="#070707" stroke-linecap="round" stroke-linejoin="round"/>
<path d="M32.1096 22.8831C29.4594 22.171 27.5893 22.7354 23.8232 24.84" stroke="#070707" stroke-linecap="round"/>
<path d="M20.6946 10.9951C21.6716 14.0426 21.0619 15.9248 18.6557 19.4722" stroke="#070707" stroke-linecap="round"/>
<circle cx="19.6748" cy="7.45712" r="1.47257" transform="rotate(35.2127 19.6748 7.45712)" stroke="#070707" stroke-linecap="round"/>
<circle cx="35.7222" cy="23.8615" r="1.47257" transform="rotate(60 35.7222 23.8615)" stroke="#070707" stroke-linecap="round"/>
<circle cx="13.7766" cy="9.2543" r="0.255158" stroke="#070707" stroke-linecap="round"/>
<circle cx="31.2146" cy="25.258" r="0.255158" stroke="#070707" stroke-linecap="round"/>
<circle cx="25.1013" cy="13.1095" r="0.255158" stroke="#070707" stroke-linecap="round"/>
<circle cx="34.928" cy="14.5889" r="0.255158" stroke="#070707" stroke-linecap="round"/>
<path d="M23.54 18.1707H24.7911M26.0422 18.1707H24.7911M24.7911 18.1707V16.9197M24.7911 18.1707L24.7911 19.4218" stroke="#070707" stroke-linecap="round"/>
</svg>
