<svg width="51" height="50" viewBox="0 0 51 50" fill="none" xmlns="http://www.w3.org/2000/svg">
<rect x="0.385742" width="50" height="50" rx="25" fill="white"/>
<path opacity="0.6" fill-rule="evenodd" clip-rule="evenodd" d="M27.1764 30.8394H21.9604C20.6756 30.8394 19.634 29.7978 19.634 28.5129L19.634 15.2242C19.634 13.9394 20.6756 12.8978 21.9604 12.8978H35.0593C36.3442 12.8978 37.3857 13.9394 37.3857 15.2242L37.3857 28.4907C37.3857 29.7755 36.3442 30.8171 35.0593 30.8171H32.1584L27.1764 30.8394Z" fill="#F0E68C"/>
<path opacity="0.4" fill-rule="evenodd" clip-rule="evenodd" d="M23.5951 19.1606H28.8111C30.0959 19.1606 31.1375 20.2022 31.1375 21.4871L31.1375 34.7758C31.1375 36.0606 30.0959 37.1022 28.8111 37.1022H15.7122C14.4273 37.1022 13.3857 36.0606 13.3857 34.7758L13.3857 21.5093C13.3857 20.2245 14.4273 19.1829 15.7122 19.1829H18.6131L23.5951 19.1606Z" fill="#1770C2"/>
</svg>
