<svg width="43" height="42" viewBox="0 0 43 42" fill="none" xmlns="http://www.w3.org/2000/svg">
<path d="M16.539 33.0341H8.60815V7.24585H28.9335V15.8224" stroke="#070707" stroke-linecap="round"/>
<path d="M13.543 25.6326H15.7165" stroke="#070707" stroke-linecap="round"/>
<path d="M13.543 20.0814H18.2424" stroke="#070707" stroke-linecap="round"/>
<path d="M13.543 14.53H18.7124H23.8818" stroke="#070707" stroke-linecap="round"/>
<path fill-rule="evenodd" clip-rule="evenodd" d="M26.3824 34.754C30.6802 34.754 34.1642 31.2699 34.1642 26.9722C34.1642 22.6744 30.6802 19.1904 26.3824 19.1904C22.0846 19.1904 18.6006 22.6744 18.6006 26.9722C18.6006 31.2699 22.0846 34.754 26.3824 34.754Z" fill="#1770C2"/>
<path d="M26.8824 23.7358C26.8824 23.4597 26.6586 23.2358 26.3824 23.2358C26.1063 23.2358 25.8824 23.4597 25.8824 23.7358H26.8824ZM26.3824 26.6795H25.8824C25.8824 26.8405 25.9599 26.9916 26.0905 27.0855L26.3824 26.6795ZM29.7629 29.7258C29.9871 29.887 30.2996 29.8359 30.4608 29.6117C30.622 29.3875 30.5709 29.0751 30.3467 28.9139L29.7629 29.7258ZM33.6642 26.9722C33.6642 30.9938 30.404 34.254 26.3824 34.254V35.254C30.9563 35.254 34.6642 31.5461 34.6642 26.9722H33.6642ZM26.3824 19.6904C30.404 19.6904 33.6642 22.9505 33.6642 26.9722H34.6642C34.6642 22.3983 30.9563 18.6904 26.3824 18.6904V19.6904ZM19.1006 26.9722C19.1006 22.9505 22.3608 19.6904 26.3824 19.6904V18.6904C21.8085 18.6904 18.1006 22.3983 18.1006 26.9722H19.1006ZM26.3824 34.254C22.3608 34.254 19.1006 30.9938 19.1006 26.9722H18.1006C18.1006 31.5461 21.8085 35.254 26.3824 35.254V34.254ZM25.8824 23.7358V26.6795H26.8824V23.7358H25.8824ZM26.0905 27.0855L29.7629 29.7258L30.3467 28.9139L26.6743 26.2736L26.0905 27.0855Z" fill="#070707"/>
</svg>
