<svg width="43" height="42" viewBox="0 0 43 42" fill="none" xmlns="http://www.w3.org/2000/svg">
<mask id="path-1-inside-1_2121_533" fill="white">
<path fill-rule="evenodd" clip-rule="evenodd" d="M7.15088 5.13885H29.981V19.3929H14.7632V23.2079L10.8204 19.3929H7.15088V5.13885Z"/>
</mask>
<path fill-rule="evenodd" clip-rule="evenodd" d="M7.15088 5.13885H29.981V19.3929H14.7632V23.2079L10.8204 19.3929H7.15088V5.13885Z" fill="#1770C2"/>
<path d="M29.981 5.13885H30.981C30.981 4.58657 30.5332 4.13885 29.981 4.13885V5.13885ZM7.15088 5.13885V4.13885C6.59859 4.13885 6.15088 4.58657 6.15088 5.13885H7.15088ZM29.981 19.3929V20.3929C30.5332 20.3929 30.981 19.9452 30.981 19.3929H29.981ZM14.7632 19.3929V18.3929C14.2109 18.3929 13.7632 18.8406 13.7632 19.3929H14.7632ZM14.7632 23.2079L14.0678 23.9266C14.3563 24.2057 14.7838 24.2853 15.1535 24.1286C15.5231 23.9719 15.7632 23.6094 15.7632 23.2079H14.7632ZM10.8204 19.3929L11.5158 18.6743C11.3293 18.4938 11.08 18.3929 10.8204 18.3929V19.3929ZM7.15088 19.3929H6.15088C6.15088 19.9452 6.59859 20.3929 7.15088 20.3929V19.3929ZM29.981 4.13885H7.15088V6.13885H29.981V4.13885ZM30.981 19.3929V5.13885H28.981V19.3929H30.981ZM14.7632 20.3929H29.981V18.3929H14.7632V20.3929ZM13.7632 19.3929V23.2079H15.7632V19.3929H13.7632ZM15.4586 22.4893L11.5158 18.6743L10.1251 20.1116L14.0678 23.9266L15.4586 22.4893ZM7.15088 20.3929H10.8204V18.3929H7.15088V20.3929ZM6.15088 5.13885V19.3929H8.15088V5.13885H6.15088Z" fill="#070707" mask="url(#path-1-inside-1_2121_533)"/>
<path d="M31.87 33.6978C31.87 33.4216 31.6461 33.1978 31.37 33.1978H17.7349V22.4241H35.9765V33.1978H33.9423C33.7918 33.1978 33.6493 33.2656 33.5544 33.3823L31.87 35.4537V33.6978Z" stroke="#070707" stroke-linejoin="round"/>
</svg>
