<svg width="43" height="42" viewBox="0 0 43 42" fill="none" xmlns="http://www.w3.org/2000/svg">
<path fill-rule="evenodd" clip-rule="evenodd" d="M21.3859 20C23.4304 20 25.0878 18.3426 25.0878 16.2982C25.0878 14.2537 23.4304 12.5963 21.3859 12.5963C19.3415 12.5963 17.6841 14.2537 17.6841 16.2982C17.6841 18.3426 19.3415 20 21.3859 20ZM21.3859 21C23.9827 21 26.0878 18.8949 26.0878 16.2982C26.0878 13.7014 23.9827 11.5963 21.3859 11.5963C18.7892 11.5963 16.6841 13.7014 16.6841 16.2982C16.6841 18.8949 18.7892 21 21.3859 21Z" fill="#070707"/>
<path d="M30.2308 22.9729C31.079 20.7567 31.6313 18.4984 31.6313 16.3752C31.6313 10.7167 27.0442 6.12964 21.3857 6.12964C15.7272 6.12964 11.1401 10.7167 11.1401 16.3752C11.1401 25.52 21.3857 37.17 21.3857 37.17C21.3857 37.17 22.4391 35.9722 23.8703 34.0433" stroke="black" stroke-linecap="round" stroke-linejoin="round"/>
<path d="M27.1464 23.5309C25.1148 23.5309 23.4678 25.3213 23.4678 27.5298C23.4678 31.5649 28.0655 34.4099 30.8359 37.1684C33.6064 34.4099 38.2041 31.5649 38.2041 27.5298C38.2041 25.3213 36.5571 23.5309 34.5255 23.5309C32.5396 23.5309 30.9081 25.2371 30.8359 27.3767C30.7638 25.2371 29.1323 23.5309 27.1464 23.5309Z" fill="#1770C2"/>
<path d="M30.8376 37.17C28.0673 34.411 23.4678 31.5656 23.4678 27.5298C23.4678 25.3213 25.1148 23.5309 27.1464 23.5309C29.1508 23.5309 30.7942 25.269 30.8376 27.4366M30.8343 37.17C33.6046 34.411 38.2041 31.5656 38.2041 27.5298C38.2041 25.3213 36.5571 23.5309 34.5255 23.5309C32.5211 23.5309 30.8777 25.269 30.8343 27.4366" stroke="black" stroke-linecap="round" stroke-linejoin="round"/>
</svg>
