<svg width="14" height="15" viewBox="0 0 14 15" fill="none" xmlns="http://www.w3.org/2000/svg">
<path fill-rule="evenodd" clip-rule="evenodd" d="M6.07217 13.1876C6.56316 13.7849 7.4369 13.7849 7.92789 13.1876C9.17614 11.6691 11.2415 8.70932 11.2415 5.74954C11.2415 3.40703 9.34254 1.50806 7.00003 1.50806C4.65752 1.50806 2.75854 3.40703 2.75854 5.74954C2.75854 8.70932 4.82392 11.6691 6.07217 13.1876ZM7.00001 7.87034C8.02486 7.87034 8.85566 7.03954 8.85566 6.01469C8.85566 4.98985 8.02486 4.15904 7.00001 4.15904C5.97517 4.15904 5.14436 4.98985 5.14436 6.01469C5.14436 7.03954 5.97517 7.87034 7.00001 7.87034Z" fill="#BFBFBF"/>
</svg>
