<svg width="202" height="36" viewBox="0 0 202 36" fill="none" xmlns="http://www.w3.org/2000/svg">
<path d="M14.0352 22.0171C13.5993 22.0171 13.246 21.6637 13.246 21.2278V4.9379C13.246 4.50201 13.5993 4.14865 14.0352 4.14865H30.0737C30.5096 4.14865 30.863 4.50201 30.863 4.9379V21.1954C30.863 21.6313 30.5096 21.9847 30.0737 21.9847H27.3851V26.1403H31.6169C33.4912 26.1403 35.0107 24.6209 35.0107 22.7465L35.0107 3.39377C35.0107 1.51944 33.4912 0 31.6169 0H12.5086C10.6343 0 9.11482 1.51944 9.11482 3.39377L9.11483 22.779C9.11483 24.6533 10.6343 26.1727 12.5086 26.1727H20.1175V22.0171H14.0352Z" fill="url(#paint0_linear_2121_653)"/>
<path d="M20.9755 13.2918C21.4114 13.2918 21.7647 13.6452 21.7647 14.0811V30.371C21.7647 30.8069 21.4114 31.1603 20.9755 31.1603H4.93696C4.50107 31.1603 4.14771 30.8069 4.14771 30.371V14.1135C4.14771 13.6776 4.50107 13.3243 4.93696 13.3243H7.62553V9.16861H3.39376C1.51944 9.16861 -5.36513e-07 10.6881 0 12.5624L5.5396e-06 31.9152C6.07612e-06 33.7895 1.51945 35.3089 3.39377 35.3089H22.5021C24.3764 35.3089 25.8958 33.7895 25.8958 31.9152L25.8958 12.5299C25.8958 10.6556 24.3764 9.13618 22.5021 9.13618H14.8932V13.2918H20.9755Z" fill="url(#paint1_linear_2121_653)"/>
<path d="M106.563 7.78384C106.082 8.02988 105.478 8.52198 105.008 9.0644C104.645 9.4838 104.533 9.71866 104.533 10.0765C104.538 10.6749 104.958 11.3124 106.261 12.6768C106.702 13.141 107.189 13.6722 107.345 13.8567C107.687 14.2649 108.324 14.9751 108.9 15.5846C109.135 15.8363 109.487 16.2221 109.683 16.4514C109.879 16.6807 110.175 17.0106 110.337 17.184C110.533 17.3964 110.628 17.5474 110.628 17.6481C110.628 17.8382 110.371 18.1514 109.314 19.253C108.833 19.7563 108.335 20.3043 108.218 20.4664C108.1 20.623 107.631 21.1431 107.178 21.6128C106.719 22.0825 106.227 22.6194 106.071 22.8039C105.92 22.9884 105.606 23.3519 105.383 23.6147C104.891 24.1795 104.533 24.8561 104.533 25.2196C104.533 25.5496 104.639 25.7788 104.997 26.2262C105.36 26.6791 105.511 26.8189 105.987 27.1489C107.016 27.8646 107.429 27.8982 108.218 27.3054C108.693 26.9475 108.861 26.7798 109.286 26.215C109.454 25.9969 109.879 25.4936 110.242 25.0966C110.606 24.694 111.003 24.2298 111.137 24.0621C111.265 23.8943 111.556 23.5644 111.774 23.3351C111.998 23.1059 112.361 22.6865 112.585 22.4125C113.021 21.8644 113.905 20.9306 113.978 20.9306C114.006 20.9306 114.184 21.1375 114.38 21.3891C114.576 21.6464 114.967 22.1049 115.247 22.4125C115.527 22.72 115.879 23.1226 116.03 23.3072C116.309 23.6595 116.505 23.8775 116.98 24.3976C117.137 24.5654 117.383 24.8561 117.534 25.0407C118.004 25.6278 119.195 26.914 119.62 27.2831C120.269 27.8534 120.598 27.8814 121.42 27.434C122.086 27.0762 122.969 26.1982 123.148 25.7229C123.21 25.544 123.266 25.2979 123.266 25.1805C123.266 24.6269 122.813 23.9167 121.75 22.8039C121.337 22.3733 120.822 21.8085 120.604 21.5457C120.38 21.2829 119.832 20.6789 119.379 20.2036C118.926 19.7283 118.468 19.225 118.356 19.0852C118.244 18.9454 117.948 18.6043 117.696 18.3303C117.098 17.6705 117.087 17.6425 117.249 17.402C117.322 17.2958 117.54 17.0609 117.741 16.8764C118.104 16.5353 118.775 15.7971 119.268 15.1988C119.419 15.0143 119.883 14.511 120.302 14.0804C120.716 13.6498 121.202 13.1186 121.381 12.8949C121.555 12.6712 121.913 12.2686 122.164 12.0002C122.874 11.2509 123.266 10.5463 123.266 10.0206C123.266 9.53412 122.751 8.82394 121.969 8.2256C121.096 7.56016 120.565 7.44272 119.967 7.76147C119.598 7.96837 118.602 8.93578 118.16 9.53412C117.981 9.77458 117.584 10.2387 117.271 10.5686C116.964 10.9042 116.606 11.3124 116.483 11.4801C116.354 11.6479 116.019 12.0337 115.733 12.3357C115.448 12.6377 115.146 12.9788 115.062 13.0906C114.783 13.4709 113.978 14.388 113.927 14.388C113.899 14.388 113.771 14.2538 113.642 14.0916C113.519 13.935 113.195 13.5603 112.926 13.2696C112.658 12.9788 112.328 12.5985 112.194 12.4308C112.054 12.263 111.702 11.8604 111.411 11.5361C111.114 11.2117 110.634 10.6581 110.337 10.3058C109.605 9.42229 108.497 8.19764 108.33 8.0858C108.257 8.03547 108.134 7.93482 108.056 7.86772C107.893 7.72232 107.452 7.56575 107.183 7.56575C107.083 7.56575 106.809 7.6664 106.563 7.78384Z" fill="black"/>
<path d="M175.16 7.91807C172.968 8.13057 170.966 8.9414 169.26 10.3003C168.472 10.9266 168.147 11.2341 167.957 11.5361C167.851 11.7038 167.683 11.9331 167.577 12.0394C167.376 12.2574 167.258 12.4532 166.805 13.3591C166.503 13.9686 166.145 15.0646 166.039 15.7357C165.933 16.3843 165.827 17.6257 165.849 17.8886C165.866 18.0395 165.905 18.5037 165.938 18.9175C165.989 19.4935 166.056 19.8513 166.218 20.4217C166.341 20.8355 166.436 21.2102 166.436 21.2605C166.436 21.4562 167.336 23.1506 167.65 23.5532C167.829 23.7825 168.075 24.0957 168.203 24.2522C168.762 24.9568 170.194 26.0361 171.245 26.5394C172.503 27.1433 172.895 27.2831 173.913 27.5124C174.584 27.6578 174.707 27.6689 175.887 27.6633H177.145L177.928 27.462C178.358 27.3502 178.811 27.216 178.934 27.1601C179.057 27.1097 179.286 27.0314 179.437 26.9867C180.265 26.7407 181.976 25.6279 182.2 25.1917C182.463 24.6716 182.463 24.3082 182.194 23.6763C182.043 23.3128 181.495 22.5075 181.177 22.1664C180.796 21.7694 180.304 21.5289 179.958 21.5793C179.667 21.624 179.035 21.9316 178.655 22.2112C178.258 22.5075 177.039 23.0052 176.91 22.9269C176.882 22.9102 176.681 22.9325 176.463 22.9717C175.708 23.1003 174.807 22.9996 173.812 22.6865C172.817 22.3677 171.558 21.2605 171.049 20.254C170.787 19.7395 170.574 18.9734 170.507 18.308C170.457 17.7544 170.462 17.5586 170.541 17.0106C170.641 16.2893 170.949 15.389 171.223 14.9919C171.312 14.8689 171.447 14.6732 171.519 14.5613C171.905 13.991 172.8 13.3367 173.745 12.9397C174.315 12.6992 175.132 12.5426 175.842 12.5426C176.764 12.5426 177.184 12.6489 178.107 13.1074C178.543 13.3199 178.99 13.5604 179.108 13.6387C179.219 13.717 179.488 13.8456 179.695 13.9183L180.075 14.0581L180.427 13.8959C180.919 13.6666 181.199 13.4485 181.551 13.0068C181.987 12.4588 182.267 11.9499 182.351 11.5417C182.491 10.8762 182.345 10.5016 181.719 9.90881C181.048 9.28251 178.962 8.30951 177.883 8.12497C176.485 7.88452 175.926 7.83978 175.16 7.91807Z" fill="black"/>
<path d="M50.207 8.06906C49.7485 8.09143 49.234 8.14176 49.0718 8.1809C48.5126 8.32629 48.138 8.81838 47.987 9.61245C47.9311 9.92 47.9143 11.6312 47.9143 17.9948V25.9914L48.0373 26.3213C48.3728 27.2104 48.8314 27.4341 50.3189 27.4341C51.0626 27.4285 51.1241 27.4229 51.5603 27.2551C51.8958 27.1209 52.0636 27.0203 52.181 26.8805C52.4941 26.5058 52.4941 26.5114 52.5109 23.3072C52.5221 21.6743 52.5277 20.2987 52.5277 20.2428C52.5277 20.1533 52.6843 20.1477 55.0049 20.1477C58.4552 20.1477 59.2157 20.075 59.5288 19.7227C59.5792 19.6668 59.7134 19.432 59.8252 19.2027L60.0377 18.7889L60.0433 17.8327C60.0489 17.0554 60.0321 16.8149 59.9482 16.5521C59.8252 16.1607 59.5177 15.7972 59.1374 15.607L58.8746 15.4784L55.827 15.4617C54.1494 15.4561 52.7234 15.4393 52.6563 15.4225L52.5277 15.3946V14.0804V12.7663L52.6563 12.7384C52.7234 12.7216 54.7813 12.7048 57.225 12.6936L61.6706 12.6824L62.0061 12.5482C62.5038 12.3525 62.7163 12.1009 62.8728 11.5305C62.9847 11.1111 62.9959 10.9713 62.9679 10.222C62.9455 9.51179 62.9176 9.32726 62.8002 9.00292C62.5877 8.41576 62.459 8.31511 61.7545 8.14735C61.3742 8.06347 60.843 8.05228 56.1904 8.0411C53.3609 8.03551 50.6712 8.04669 50.207 8.06906Z" fill="black"/>
<path d="M88.0086 8.06907C86.482 8.12499 86.0291 8.36545 85.7719 9.24339L85.6265 9.71871L85.6432 17.9669L85.66 26.215L85.7886 26.4779C85.934 26.7742 86.2807 27.1042 86.5827 27.2328C87.1027 27.4565 87.3991 27.4676 93.2931 27.4676C99.3492 27.4732 99.4051 27.4676 99.9363 27.1992C100.395 26.9644 100.647 26.4443 100.73 25.572C100.848 24.3417 100.44 23.1506 99.8581 23.0276C99.7686 23.0052 99.5952 22.9549 99.4666 22.9102C99.2765 22.8431 98.5328 22.8319 94.7749 22.8319C92.3201 22.8319 90.2902 22.8151 90.2622 22.7872C90.2343 22.7592 90.2231 22.1497 90.2287 21.4283L90.2454 20.1198L93.321 20.0918C96.117 20.0639 96.4302 20.0527 96.7433 19.9576C97.5094 19.7283 97.817 19.0797 97.8226 17.6873C97.8226 17.1952 97.7051 16.4347 97.5933 16.2166C97.4703 15.9705 97.1795 15.7301 96.8775 15.6071C96.57 15.484 96.5196 15.4784 93.4608 15.4617C91.3862 15.4505 90.3349 15.4225 90.2902 15.3834C90.1895 15.2995 90.1839 12.8782 90.2846 12.7775C90.3349 12.7272 91.3527 12.7104 94.5177 12.7104C96.816 12.7104 98.9074 12.688 99.1702 12.6601C100.054 12.565 100.417 12.2631 100.624 11.4578C100.809 10.7476 100.742 9.37201 100.507 8.90787C100.373 8.64505 100.059 8.37104 99.7294 8.22006C99.5169 8.12499 99.2989 8.10263 98.4656 8.06348C97.3081 8.01315 89.3451 8.01875 88.0086 8.06907Z" fill="black"/>
<path d="M129.697 8.06909C128.651 8.11383 128.332 8.18653 128.058 8.45494C127.812 8.68421 127.594 9.03091 127.51 9.31051C127.438 9.57334 127.438 25.6167 127.516 26.0193C127.65 26.7295 127.717 26.8358 128.215 27.1098C128.679 27.367 129.099 27.4397 129.993 27.4062C130.625 27.3838 130.782 27.3558 131.095 27.2272C131.548 27.0427 131.716 26.8805 131.911 26.4499L132.068 26.1032L132.09 24.1628C132.107 22.8095 132.135 22.2056 132.18 22.1665C132.213 22.1385 133.147 22.105 134.254 22.0882C135.803 22.0658 136.346 22.0434 136.603 21.9763C136.787 21.926 137.101 21.8477 137.302 21.7974C138.13 21.5849 139.024 21.1096 140.014 20.3435C140.523 19.9465 140.881 19.5774 141.026 19.3034C141.077 19.1971 141.188 19.0238 141.272 18.9175C141.597 18.5037 142.1 17.2791 142.251 16.5409C142.357 16.0265 142.379 14.6173 142.296 13.9127C142.223 13.3535 141.949 12.4308 141.708 11.9667C141.239 11.044 140.221 9.90886 139.343 9.32729C138.594 8.8296 138.102 8.59474 137.268 8.34869L136.513 8.11942L135.076 8.06909C133.589 8.01317 131.106 8.01317 129.697 8.06909ZM135.842 12.7999C136.446 12.9117 136.614 13.0012 137.117 13.4598C137.57 13.8792 137.71 14.1532 137.772 14.7795C137.85 15.5344 137.626 16.2334 137.162 16.7031C136.491 17.3741 136.105 17.458 133.857 17.4636C132.672 17.4636 132.219 17.4468 132.169 17.3965C132.118 17.3462 132.101 16.7478 132.101 15.0591C132.101 13.8065 132.118 12.7664 132.141 12.7496C132.157 12.7272 132.895 12.7104 133.768 12.7104C134.998 12.7104 135.473 12.7328 135.842 12.7999Z" fill="black"/>
<path d="M189.223 8.06912C187.484 8.13622 187.07 8.44938 186.897 9.83059C186.864 10.1158 186.847 13.1914 186.858 18.2186L186.875 26.1592L187.031 26.4779C187.283 26.998 187.691 27.2664 188.407 27.395C188.748 27.4565 189.995 27.4677 194.508 27.4677C200.586 27.4733 200.586 27.4733 201.185 27.1937C201.677 26.9588 201.94 26.299 201.956 25.2756C201.973 24.4648 201.878 23.9336 201.649 23.5533C201.431 23.201 201.28 23.0836 200.883 22.955C200.603 22.8711 200.133 22.8599 196.074 22.8487C193.596 22.8375 191.538 22.8208 191.505 22.804C191.449 22.7872 191.432 22.4741 191.432 21.5066C191.432 20.8076 191.455 20.2037 191.477 20.1646C191.505 20.1142 192.299 20.0919 194.592 20.0807C197.382 20.0583 197.695 20.0471 197.992 19.9521C198.445 19.8123 198.797 19.4376 198.92 18.9735C199.037 18.5317 199.06 17.2735 198.965 16.7535C198.87 16.2558 198.657 15.8699 198.417 15.7413C197.902 15.4785 197.958 15.4841 194.676 15.4617C191.868 15.4449 191.566 15.4393 191.505 15.3555C191.404 15.2269 191.404 12.8726 191.499 12.7776C191.55 12.7272 192.567 12.7105 195.738 12.7105C198.031 12.7105 200.128 12.6825 200.402 12.6545C201.481 12.5427 201.839 12.1009 201.945 10.7533C201.99 10.2164 201.872 9.14837 201.749 8.90232C201.626 8.66746 201.347 8.41582 201.028 8.25365C200.771 8.11945 200.659 8.09708 199.932 8.06912C198.897 8.01879 190.409 8.02438 189.223 8.06912Z" fill="black"/>
<path d="M68.6385 8.18091C68.2247 8.29275 67.9172 8.47728 67.7662 8.70096C67.7214 8.76807 67.632 9.00293 67.5593 9.21542L67.4307 9.60686V17.7152C67.4307 25.3315 67.4363 25.846 67.5313 26.1871C67.6599 26.6568 67.8445 26.9308 68.1576 27.1098C68.7448 27.4565 68.5267 27.4453 74.5045 27.4453L79.9567 27.4397L80.3761 27.2999C80.7675 27.1713 80.8011 27.1433 80.9241 26.9084C81.131 26.4946 81.2317 25.8963 81.1925 25.2924C81.1422 24.3753 80.9017 23.872 80.4432 23.7154C80.2866 23.6651 79.213 23.6427 76.2268 23.626C72.6256 23.6092 72.2118 23.6036 72.1447 23.5197C72.0832 23.447 72.072 22.228 72.0664 16.7199C72.0608 13.0347 72.0385 9.84732 72.0161 9.64041C71.9546 9.05885 71.6638 8.49965 71.3283 8.3263C70.8194 8.06348 69.3823 7.99078 68.6385 8.18091Z" fill="black"/>
<path d="M152.904 8.20886C152.535 8.36543 152.183 8.65062 151.836 9.07002C151.568 9.39436 150.639 11.1782 150.472 11.6927C150.416 11.8492 150.343 12.0058 150.298 12.045C150.254 12.0785 150.22 12.14 150.22 12.1792C150.22 12.2183 150.119 12.4476 149.991 12.688C149.868 12.9341 149.655 13.387 149.515 13.7058C149.376 14.0189 148.788 15.2324 148.207 16.4011C147.625 17.5642 147.083 18.677 147.005 18.8672C146.921 19.0573 146.809 19.3033 146.747 19.4152C146.691 19.5214 146.641 19.6389 146.641 19.6612C146.641 19.6892 146.591 19.7731 146.529 19.8514C146.468 19.9296 146.417 20.0359 146.417 20.0918C146.417 20.1477 146.367 20.254 146.306 20.3323C146.244 20.4106 146.194 20.5112 146.194 20.5615C146.194 20.6063 145.802 21.4339 145.321 22.3957C144.841 23.3575 144.382 24.3082 144.309 24.5095C144.231 24.7108 144.136 24.9624 144.091 25.0687C143.979 25.365 143.991 25.8739 144.119 26.1256C144.304 26.4834 144.796 26.8749 145.478 27.216C146.266 27.6074 146.719 27.7305 147.161 27.6745C147.458 27.6354 147.513 27.6018 147.849 27.2887C148.207 26.9588 148.235 26.9028 149.057 25.242C149.515 24.3026 149.935 23.4861 149.98 23.4302C150.063 23.3408 150.309 23.3352 153.681 23.3352C155.667 23.3352 157.322 23.3575 157.361 23.3799C157.434 23.4246 158.435 25.4713 158.614 25.9298C158.753 26.3045 159.296 27.1936 159.531 27.4341C159.687 27.5962 159.771 27.6354 160.107 27.6857C160.554 27.7528 160.845 27.6969 161.516 27.4341C161.952 27.2663 162.791 26.7463 163.009 26.5114C163.082 26.4387 163.193 26.2318 163.266 26.0529C163.395 25.7453 163.395 25.7062 163.333 25.3539C163.221 24.7835 163.059 24.4144 161.986 22.2391C160.979 20.2148 160.75 19.7339 160.191 18.4981C160.023 18.129 159.324 16.6863 158.63 15.2939C157.943 13.9015 157.378 12.7495 157.378 12.7272C157.378 12.6824 156.707 11.2453 156.142 10.0934C155.767 9.32725 155.639 9.12594 155.331 8.79601C154.817 8.25359 154.537 8.12498 153.793 8.09702C153.273 8.07465 153.178 8.08583 152.904 8.20886ZM153.832 15.937C153.883 16.0824 154.414 17.2343 154.979 18.403C155.314 19.0964 155.454 19.432 155.404 19.4543C155.365 19.4655 154.593 19.4711 153.687 19.4655L152.037 19.4487L152.021 19.3145C151.998 19.1691 151.998 19.1691 152.966 17.1952C153.614 15.8755 153.749 15.6797 153.832 15.937Z" fill="black"/>
<defs>
<linearGradient id="paint0_linear_2121_653" x1="34.2168" y1="1.30866" x2="3.31089" y2="32.8318" gradientUnits="userSpaceOnUse">
<stop stop-color="#085AA9"/>
<stop offset="1" stop-color="#359AF7"/>
</linearGradient>
<linearGradient id="paint1_linear_2121_653" x1="34.2168" y1="1.30866" x2="3.31089" y2="32.8318" gradientUnits="userSpaceOnUse">
<stop stop-color="#085AA9"/>
<stop offset="1" stop-color="#359AF7"/>
</linearGradient>
</defs>
</svg>
