<svg width="24" height="25" viewBox="0 0 24 25" fill="none" xmlns="http://www.w3.org/2000/svg">
<circle cx="12" cy="12.5" r="7.94629" stroke="white"/>
<path d="M12.6987 8.09595L12.5879 14.3133H11.4075L11.2967 8.09595H12.6987ZM11.9998 16.9042C11.764 16.9042 11.5623 16.8218 11.3947 16.657C11.2271 16.4894 11.1447 16.2877 11.1475 16.0519C11.1447 15.819 11.2271 15.6201 11.3947 15.4553C11.5623 15.2877 11.764 15.2039 11.9998 15.2039C12.2299 15.2039 12.4288 15.2877 12.5964 15.4553C12.764 15.6201 12.8492 15.819 12.8521 16.0519C12.8492 16.2082 12.808 16.3516 12.7285 16.4823C12.6518 16.6102 12.5495 16.7124 12.4217 16.7891C12.2938 16.8658 12.1532 16.9042 11.9998 16.9042Z" fill="white"/>
</svg>
