<svg width="22" height="22" viewBox="0 0 22 22" fill="none" xmlns="http://www.w3.org/2000/svg">
<g clip-path="url(#clip0_2093_398)">
<path fill-rule="evenodd" clip-rule="evenodd" d="M4.76154 2C3.68507 2 2.81241 2.89543 2.81241 4V18C2.81241 19.1046 3.68507 20 4.76154 20H7.53528C8.07352 20 8.50984 20.4477 8.50984 21C8.50984 21.5523 8.07352 22 7.53528 22H4.76154C2.60859 22 0.863281 20.2091 0.863281 18V4C0.863281 1.79086 2.60859 0 4.76154 0H14.5072C16.6601 0 18.4054 1.79086 18.4054 4V7.47616C18.4054 8.02845 17.9691 8.47616 17.4309 8.47616C16.8926 8.47616 16.4563 8.02845 16.4563 7.47616V4C16.4563 2.89543 15.5837 2 14.5072 2H4.76154Z" fill="black"/>
<rect x="4.99951" y="5.9187" width="9.26883" height="2.06433" rx="1" fill="black"/>
<rect x="4.99951" y="10.1066" width="4.58445" height="2.06433" rx="1" fill="black"/>
<rect x="4.99951" y="14.295" width="2.81996" height="2.06433" rx="1" fill="black"/>
<path fill-rule="evenodd" clip-rule="evenodd" d="M15.0004 21.8639C18.2386 21.8639 20.8636 19.1703 20.8636 15.8477C20.8636 12.525 18.2386 9.83142 15.0004 9.83142C11.7623 9.83142 9.13721 12.525 9.13721 15.8477C9.13721 19.1703 11.7623 21.8639 15.0004 21.8639ZM15.9374 13.2718C15.9381 12.8575 15.603 12.5211 15.1888 12.5203C14.7746 12.5195 14.4382 12.8547 14.4374 13.2689L14.4329 15.6227C14.4324 15.8694 14.5533 16.1006 14.7561 16.2409L17.5686 18.1869C17.9093 18.4226 18.3764 18.3375 18.6121 17.9969C18.8478 17.6563 18.7627 17.1891 18.4221 16.9534L15.9336 15.2316L15.9374 13.2718Z" fill="black"/>
</g>
<defs>
<clipPath id="clip0_2093_398">
<rect width="20.5222" height="22" fill="white" transform="translate(0.863281)"/>
</clipPath>
</defs>
</svg>
