<svg width="123" height="16" viewBox="0 0 123 16" fill="none" xmlns="http://www.w3.org/2000/svg">
<path d="M47.0554 0.172935C46.6741 0.368042 46.1952 0.758256 45.8227 1.18838C45.5345 1.52095 45.4458 1.70718 45.4458 1.99098C45.4502 2.46544 45.7828 2.97095 46.816 4.0529C47.1663 4.42094 47.5521 4.8422 47.6762 4.98853C47.9467 5.31223 48.4522 5.87538 48.9089 6.35871C49.0952 6.55825 49.3745 6.86422 49.5297 7.04602C49.6849 7.22782 49.92 7.48944 50.0486 7.62691C50.2037 7.79541 50.2791 7.91513 50.2791 7.99495C50.2791 8.14571 50.0752 8.39403 49.2371 9.26758C48.8557 9.66666 48.4611 10.1012 48.368 10.2298C48.2749 10.354 47.9024 10.7664 47.5432 11.1388C47.1796 11.5113 46.7894 11.937 46.6652 12.0833C46.5455 12.2297 46.2972 12.5179 46.1198 12.7263C45.7296 13.1741 45.4458 13.7107 45.4458 13.9989C45.4458 14.2605 45.5301 14.4423 45.8138 14.7971C46.1021 15.1563 46.2218 15.2671 46.5987 15.5287C47.4146 16.0963 47.7427 16.1229 48.368 15.6529C48.7449 15.3691 48.8779 15.2361 49.2149 14.7882C49.3479 14.6153 49.6849 14.2162 49.9732 13.9014C50.2614 13.5821 50.5762 13.2141 50.6826 13.081C50.7846 12.948 51.0152 12.6864 51.1882 12.5046C51.3655 12.3228 51.6537 11.9902 51.8311 11.7729C52.177 11.3384 52.8776 10.5979 52.9352 10.5979C52.9574 10.5979 53.0993 10.7619 53.2545 10.9615C53.4097 11.1654 53.7201 11.529 53.9418 11.7729C54.1635 12.0168 54.4429 12.3361 54.5626 12.4824C54.7843 12.7618 54.9395 12.9347 55.3164 13.3471C55.4406 13.4801 55.6357 13.7107 55.7554 13.857C56.1279 14.3226 57.0724 15.3425 57.4094 15.6352C57.9238 16.0875 58.1854 16.1096 58.8372 15.7549C59.3649 15.4711 60.0655 14.7749 60.2074 14.398C60.2562 14.2561 60.3005 14.061 60.3005 13.9679C60.3005 13.5289 59.9414 12.9657 59.0989 12.0833C58.7707 11.7419 58.3628 11.294 58.1898 11.0856C58.0125 10.8772 57.5779 10.3983 57.2187 10.0214C56.8596 9.64449 56.4959 9.24541 56.4073 9.13455C56.3186 9.02369 56.0836 8.7532 55.884 8.53593C55.4096 8.01269 55.4007 7.99051 55.5293 7.79984C55.5869 7.71559 55.7599 7.52935 55.9195 7.38302C56.2077 7.11253 56.7398 6.52721 57.13 6.05275C57.2498 5.90642 57.6178 5.50734 57.9504 5.1659C58.2785 4.82446 58.6643 4.40321 58.8062 4.22584C58.9437 4.04847 59.2274 3.7292 59.427 3.51636C59.9901 2.92217 60.3005 2.36345 60.3005 1.94663C60.3005 1.56085 59.8926 0.997705 59.2718 0.523241C58.58 -0.00443459 58.1588 -0.0975533 57.6843 0.155198C57.3917 0.319265 56.6024 1.08639 56.2521 1.56085C56.1102 1.75153 55.7953 2.11957 55.547 2.38119C55.3031 2.64725 55.0193 2.97095 54.9218 3.10397C54.8198 3.237 54.5537 3.54296 54.3276 3.78241C54.1015 4.02186 53.862 4.29235 53.7955 4.38104C53.5738 4.68256 52.9352 5.40978 52.8953 5.40978C52.8732 5.40978 52.7712 5.30336 52.6692 5.17477C52.5716 5.05061 52.3145 4.75351 52.1016 4.52293C51.8888 4.29235 51.6271 3.99082 51.5207 3.85779C51.4099 3.72477 51.1305 3.4055 50.8999 3.14832C50.6649 2.89113 50.2836 2.45214 50.0486 2.17278C49.4677 1.47217 48.5897 0.50107 48.4567 0.412385C48.399 0.372477 48.3015 0.29266 48.2394 0.23945C48.1108 0.124159 47.7605 0 47.5476 0C47.4678 0 47.2505 0.0798159 47.0554 0.172935Z" fill="black"/>
<path d="M101.45 0.279374C99.7121 0.447875 98.1247 1.09084 96.7722 2.16836C96.147 2.665 95.8898 2.90888 95.739 3.14833C95.6548 3.28136 95.5218 3.46316 95.4375 3.54741C95.2779 3.72035 95.1848 3.87555 94.8256 4.5939C94.5861 5.07723 94.3023 5.94634 94.2181 6.47845C94.1338 6.99282 94.0496 7.97723 94.0673 8.18564C94.0806 8.30536 94.1117 8.6734 94.1383 9.00154C94.1782 9.45826 94.2314 9.74206 94.36 10.1943C94.4575 10.5225 94.5329 10.8196 94.5329 10.8595C94.5329 11.0147 95.2468 12.3583 95.4952 12.6775C95.6371 12.8593 95.8322 13.1077 95.9341 13.2318C96.3776 13.7905 97.5127 14.6463 98.3464 15.0454C99.3441 15.5243 99.6545 15.6352 100.462 15.817C100.994 15.9323 101.091 15.9411 102.027 15.9367H103.025L103.645 15.7771C103.987 15.6884 104.346 15.582 104.443 15.5376C104.541 15.4977 104.723 15.4356 104.843 15.4002C105.499 15.205 106.856 14.3226 107.033 13.9768C107.241 13.5644 107.241 13.2762 107.029 12.7751C106.909 12.4869 106.474 11.8483 106.222 11.5778C105.92 11.263 105.53 11.0723 105.255 11.1122C105.024 11.1477 104.523 11.3916 104.222 11.6133C103.907 11.8483 102.94 12.243 102.838 12.1809C102.816 12.1676 102.656 12.1853 102.484 12.2164C101.885 12.3184 101.171 12.2385 100.382 11.9902C99.5924 11.7375 98.5947 10.8595 98.1912 10.0613C97.9828 9.65337 97.8143 9.04588 97.7611 8.5182C97.7211 8.07921 97.7256 7.92402 97.7877 7.48946C97.8675 6.91744 98.1114 6.20353 98.3286 5.8887C98.3996 5.79114 98.506 5.63594 98.5637 5.54726C98.8696 5.09497 99.5791 4.57616 100.328 4.26133C100.781 4.07065 101.428 3.9465 101.991 3.9465C102.723 3.9465 103.056 4.03075 103.787 4.39436C104.133 4.56286 104.488 4.75353 104.581 4.81561C104.67 4.87769 104.882 4.97968 105.047 5.03732L105.348 5.14818L105.627 5.01958C106.018 4.83778 106.239 4.66484 106.519 4.31454C106.865 3.87998 107.086 3.47647 107.153 3.15277C107.264 2.62509 107.148 2.328 106.652 1.85797C106.12 1.36133 104.466 0.589771 103.61 0.443441C102.501 0.252769 102.058 0.217295 101.45 0.279374Z" fill="black"/>
<path d="M2.36687 0.399084C2.00326 0.416821 1.59531 0.456729 1.46672 0.487769C1.02329 0.603059 0.726198 0.993273 0.606473 1.62294C0.562131 1.86682 0.548828 3.2237 0.548828 8.26987V14.6108L0.646382 14.8725C0.912436 15.5775 1.27604 15.7549 2.45555 15.7549C3.04531 15.7504 3.09409 15.746 3.43996 15.613C3.70601 15.5066 3.83904 15.4267 3.93216 15.3159C4.18048 15.0188 4.18048 15.0232 4.19378 12.4824C4.20265 11.1876 4.20708 10.0968 4.20708 10.0524C4.20708 9.98149 4.33124 9.97706 6.17145 9.97706C8.90738 9.97706 9.51044 9.91941 9.75876 9.64006C9.79867 9.59571 9.90509 9.40947 9.99378 9.22767L10.1623 8.89954L10.1667 8.14128C10.1711 7.52492 10.1578 7.33425 10.0913 7.12584C9.99378 6.81544 9.74989 6.52721 9.44836 6.37645L9.23995 6.27446L6.82329 6.26116C5.49301 6.25672 4.36228 6.24342 4.30907 6.23012L4.20708 6.20795V5.1659V4.12385L4.30907 4.10168C4.36228 4.08838 5.99408 4.07508 7.93185 4.06621L11.4571 4.05734L11.7231 3.95092C12.1178 3.79572 12.2863 3.59618 12.4104 3.14388C12.4991 2.81131 12.508 2.70046 12.4858 2.10627C12.4681 1.54312 12.4459 1.39679 12.3528 1.1396C12.1843 0.674007 12.0823 0.594191 11.5236 0.461164C11.2221 0.39465 10.8008 0.385781 7.11151 0.376912C4.86778 0.372478 2.73491 0.381347 2.36687 0.399084Z" fill="black"/>
<path d="M32.3426 0.39907C31.1321 0.443413 30.7729 0.634085 30.5689 1.33026L30.4536 1.70717L30.4669 8.24769L30.4802 14.7882L30.5822 14.9966C30.6975 15.2316 30.9724 15.4932 31.2119 15.5952C31.6243 15.7726 31.8593 15.7815 36.533 15.7815C41.3353 15.7859 41.3796 15.7815 41.8009 15.5686C42.1645 15.3824 42.364 14.97 42.4305 14.2783C42.5236 13.3027 42.1999 12.3582 41.7388 12.2607C41.6678 12.2429 41.5304 12.203 41.4284 12.1676C41.2776 12.1144 40.6879 12.1055 37.708 12.1055C35.7614 12.1055 34.1518 12.0922 34.1296 12.07C34.1074 12.0478 34.0986 11.5645 34.103 10.9925L34.1163 9.95487L36.5551 9.9327C38.7723 9.91053 39.0206 9.90166 39.2689 9.82628C39.8764 9.64447 40.1203 9.1301 40.1247 8.02597C40.1247 7.63576 40.0316 7.0327 39.9429 6.85977C39.8454 6.66466 39.6148 6.47399 39.3753 6.37644C39.1314 6.27888 39.0915 6.27445 36.666 6.26114C35.0209 6.25228 34.1873 6.2301 34.1518 6.19907C34.072 6.13255 34.0675 4.21252 34.1473 4.13271C34.1873 4.0928 34.9943 4.07949 37.5041 4.07949C39.3265 4.07949 40.985 4.06176 41.1934 4.03959C41.894 3.9642 42.1822 3.72476 42.3463 3.08622C42.4926 2.52307 42.4394 1.43225 42.2531 1.06421C42.1467 0.855798 41.8984 0.638519 41.6368 0.518794C41.4683 0.443413 41.2953 0.425675 40.6346 0.394635C39.7168 0.354728 33.4024 0.359161 32.3426 0.39907Z" fill="black"/>
<path d="M65.4 0.399067C64.5708 0.434541 64.3181 0.492186 64.1008 0.705029C63.9057 0.886834 63.7327 1.16176 63.6662 1.38347C63.6086 1.59188 63.6086 14.3137 63.6707 14.633C63.7771 15.1961 63.8303 15.2804 64.2249 15.4977C64.593 15.7017 64.9256 15.7593 65.635 15.7327C66.1361 15.715 66.2603 15.6928 66.5086 15.5908C66.8678 15.4445 67.0008 15.3159 67.156 14.9744L67.2801 14.6995L67.2979 13.1608C67.3112 12.0877 67.3334 11.6088 67.3688 11.5778C67.3954 11.5556 68.136 11.529 69.0139 11.5157C70.2422 11.498 70.6723 11.4803 70.8763 11.427C71.0226 11.3871 71.271 11.3251 71.4306 11.2851C72.0869 11.1166 72.7963 10.7397 73.5812 10.1322C73.9847 9.81741 74.2685 9.52475 74.3838 9.30747C74.4237 9.22322 74.5124 9.08576 74.5789 9.00151C74.8361 8.67337 75.2352 7.70227 75.3549 7.11695C75.4392 6.709 75.4569 5.59157 75.3904 5.03286C75.3327 4.58943 75.1155 3.85778 74.9248 3.48974C74.5523 2.75809 73.7453 1.85793 73.0491 1.39677C72.4549 1.00212 72.0647 0.815886 71.404 0.620779L70.8054 0.438975L69.6658 0.399067C68.4863 0.354724 66.5175 0.354724 65.4 0.399067ZM70.2733 4.15044C70.7522 4.23912 70.8852 4.31007 71.2843 4.67368C71.6434 5.00625 71.7543 5.22353 71.8031 5.72016C71.8652 6.31879 71.6878 6.87307 71.3197 7.24554C70.7876 7.77765 70.4817 7.84417 68.6991 7.8486C67.759 7.8486 67.3999 7.8353 67.36 7.79539C67.3201 7.75548 67.3067 7.28102 67.3067 5.94188C67.3067 4.9486 67.3201 4.12383 67.3378 4.11053C67.3511 4.09279 67.9364 4.07949 68.6282 4.07949C69.6037 4.07949 69.9806 4.09723 70.2733 4.15044Z" fill="black"/>
<path d="M112.603 0.399096C111.223 0.452308 110.895 0.700625 110.758 1.79588C110.731 2.02203 110.718 4.46087 110.727 8.44726L110.74 14.7439L110.864 14.9966C111.064 15.409 111.388 15.6219 111.955 15.7239C112.226 15.7726 113.214 15.7815 116.793 15.7815C121.613 15.7859 121.613 15.7859 122.087 15.5642C122.478 15.378 122.686 14.8547 122.699 14.0433C122.713 13.4003 122.637 12.9791 122.455 12.6775C122.283 12.3982 122.163 12.3051 121.848 12.2031C121.626 12.1365 121.254 12.1277 118.034 12.1188C116.07 12.1099 114.438 12.0966 114.412 12.0833C114.367 12.07 114.354 11.8217 114.354 11.0546C114.354 10.5003 114.372 10.0214 114.39 9.99037C114.412 9.95047 115.041 9.93273 116.859 9.92386C119.072 9.90612 119.32 9.89725 119.555 9.82187C119.915 9.71102 120.194 9.41392 120.292 9.04588C120.385 8.69557 120.402 7.69787 120.327 7.28548C120.252 6.89083 120.083 6.58487 119.892 6.48288C119.484 6.27447 119.529 6.27891 116.926 6.26117C114.7 6.24787 114.46 6.24343 114.412 6.17692C114.332 6.07493 114.332 4.20812 114.407 4.13273C114.447 4.09282 115.254 4.07952 117.768 4.07952C119.586 4.07952 121.249 4.05735 121.467 4.03518C122.322 3.94649 122.606 3.59619 122.69 2.52754C122.726 2.10185 122.633 1.25491 122.535 1.0598C122.438 0.873561 122.216 0.67402 121.963 0.545426C121.759 0.439005 121.671 0.421268 121.094 0.399096C120.274 0.359188 113.543 0.363623 112.603 0.399096Z" fill="black"/>
<path d="M16.9822 0.487718C16.6541 0.576403 16.4102 0.722733 16.2905 0.900103C16.255 0.953314 16.184 1.13955 16.1264 1.30805L16.0244 1.61845V8.04811C16.0244 14.0876 16.0288 14.4955 16.1042 14.766C16.2062 15.1385 16.3525 15.3557 16.6009 15.4976C17.0665 15.7726 16.8935 15.7637 21.6337 15.7637L25.9571 15.7593L26.2897 15.6484C26.6001 15.5464 26.6267 15.5243 26.7243 15.338C26.8883 15.0099 26.9681 14.5354 26.9371 14.0565C26.8972 13.3293 26.7065 12.9302 26.3429 12.8061C26.2187 12.7661 25.3674 12.7484 22.9995 12.7351C20.1438 12.7218 19.8157 12.7174 19.7625 12.6509C19.7137 12.5932 19.7048 11.6265 19.7004 7.25881C19.696 4.33664 19.6782 1.80912 19.6605 1.64506C19.6117 1.1839 19.3811 0.74047 19.1151 0.603008C18.7116 0.394599 17.572 0.336953 16.9822 0.487718Z" fill="black"/>
<path d="M83.8017 0.509974C83.509 0.634134 83.2297 0.86028 82.9548 1.19285C82.7419 1.45004 82.0058 2.86456 81.8728 3.27251C81.8285 3.39667 81.7708 3.52083 81.7353 3.55187C81.6999 3.57847 81.6733 3.62725 81.6733 3.65829C81.6733 3.68933 81.5935 3.87113 81.4915 4.06181C81.3939 4.25691 81.2254 4.61609 81.1146 4.86884C81.0037 5.11716 80.5381 6.07939 80.0769 7.00615C79.6158 7.92847 79.1857 8.81089 79.1236 8.96165C79.0571 9.11241 78.9684 9.30752 78.9196 9.39621C78.8753 9.48046 78.8353 9.57358 78.8353 9.59131C78.8353 9.61348 78.7954 9.68 78.7467 9.74208C78.6979 9.80416 78.658 9.88841 78.658 9.93275C78.658 9.97709 78.6181 10.0613 78.5693 10.1234C78.5205 10.1855 78.4806 10.2653 78.4806 10.3052C78.4806 10.3407 78.1702 10.997 77.7889 11.7597C77.4075 12.5224 77.0439 13.2762 76.9863 13.4358C76.9242 13.5954 76.8488 13.795 76.8133 13.8792C76.7246 14.1142 76.7335 14.5178 76.8355 14.7173C76.9818 15.0011 77.372 15.3115 77.913 15.582C78.5383 15.8924 78.8974 15.9899 79.2477 15.9456C79.4827 15.9146 79.5271 15.8879 79.7931 15.6396C80.0769 15.378 80.0991 15.3337 80.7509 14.0167C81.1146 13.2717 81.4471 12.6243 81.4826 12.58C81.5491 12.509 81.7442 12.5046 84.4181 12.5046C85.9922 12.5046 87.3048 12.5224 87.3358 12.5401C87.3934 12.5756 88.1872 14.1985 88.3291 14.5621C88.4399 14.8592 88.8701 15.5642 89.0563 15.7549C89.1804 15.8835 89.247 15.9146 89.513 15.9545C89.8678 16.0077 90.0983 15.9633 90.6304 15.7549C90.9763 15.6219 91.6415 15.2095 91.8144 15.0233C91.872 14.9656 91.9607 14.8016 92.0184 14.6597C92.1204 14.4158 92.1204 14.3847 92.0716 14.1054C91.9829 13.6531 91.8543 13.3604 91.0029 11.6355C90.2048 10.0303 90.023 9.64896 89.5795 8.66899C89.4465 8.37633 88.8922 7.23229 88.3424 6.12817C87.797 5.02404 87.3491 4.11058 87.3491 4.09285C87.3491 4.05737 86.817 2.91777 86.3691 2.00432C86.072 1.39682 85.9701 1.23719 85.7262 0.975571C85.3182 0.545449 85.0965 0.443461 84.5068 0.42129C84.0944 0.403553 84.019 0.412421 83.8017 0.509974ZM84.5378 6.63811C84.5777 6.7534 84.999 7.66685 85.4468 8.59361C85.7129 9.14345 85.8237 9.40951 85.7838 9.42725C85.7528 9.43611 85.1408 9.44055 84.4225 9.43611L83.1144 9.42281L83.1011 9.31639C83.0834 9.2011 83.0834 9.2011 83.8505 7.63581C84.3649 6.58933 84.4713 6.43413 84.5378 6.63811Z" fill="black"/>
</svg>
